SplineFontDB: 3.2
FontName: RetroGaming
FullName: Retro Gaming
FamilyName: Retro Gaming
Weight: Book
Copyright: Copyright (c) 2019 by Vasily Draigo aka Daymarius. All rights reserved.
Version: 1.00 February 22, 2019, initial release
ItalicAngle: 0
UnderlinePosition: 307
UnderlineWidth: 204
Ascent: 3276
Descent: 820
InvalidEm: 0
sfntRevision: 0x00010000
LayerCount: 2
Layer: 0 1 "Back" 1
Layer: 1 1 "Fore" 0
XUID: [1021 1014 1742081541 5859664]
StyleMap: 0x0040
FSType: 4
OS2Version: 3
OS2_WeightWidthSlopeOnly: 0
OS2_UseTypoMetrics: 0
CreationTime: 1550785245
ModificationTime: 1745980109
PfmFamily: 81
TTFWeight: 400
TTFWidth: 5
LineGap: 0
VLineGap: 0
Panose: 0 0 4 0 0 0 0 0 0 0
OS2TypoAscent: 2978
OS2TypoAOffset: 0
OS2TypoDescent: -1117
OS2TypoDOffset: 0
OS2TypoLinegap: 0
OS2WinAscent: 4096
OS2WinAOffset: 0
OS2WinDescent: 1117
OS2WinDOffset: 0
HheadAscent: 4096
HheadAOffset: 0
HheadDescent: -1117
HheadDOffset: 0
OS2SubXSize: 2048
OS2SubYSize: 2048
OS2SubXOff: 0
OS2SubYOff: -558
OS2SupXSize: 2048
OS2SupYSize: 2048
OS2SupXOff: 0
OS2SupYOff: 2048
OS2StrikeYSize: 204
OS2StrikeYPos: 819
OS2CapHeight: 2978
OS2XHeight: 1861
OS2Vendor: 'DAY '
OS2CodePages: 00000005.00000000
OS2UnicodeRanges: 80000287.4000000a.00000000.00000000
Lookup: 4 0 1 "'liga' Standard Ligatures in Latin lookup 0" { "'liga' Standard Ligatures in Latin lookup 0 subtable"  } ['liga' ('latn' <'dflt' > ) ]
DEI: 91125
ShortTable: maxp 16
  1
  0
  319
  128
  10
  0
  0
  2
  0
  0
  0
  0
  0
  0
  0
  0
EndShort
LangName: 1033 "Copyright +AKkA 2019 by Vasily Draigo aka Daymarius. All rights reserved." "" "Regular" "Retro Gaming:Version 1.00" "" "Version 1.00 February 22, 2019, initial release" "" "" "Vasily Draigo aka Daymarius" "Vasily Draigo aka Daymarius" "Copyright +AKkA 2019 by Vasily Draigo aka Daymarius. All rights reserved." "" "" "" "" "" "" "" "" "Five big quacking zephyrs jolt my wax bed"
Encoding: UnicodeBmp
UnicodeInterp: none
NameList: AGL For New Fonts
DisplaySize: -48
AntiAlias: 1
FitToEm: 0

StartChar: .notdef
Encoding: 65536 -1 0
Width: 2454
GlyphClass: 2
Flags: W
LayerCount: 2
Fore
SplineSet
2139 -987 m 1,0,-1
 862 -987 l 1,1,-1
 862 -890 l 1,2,-1
 1023 -890 l 1,3,-1
 1023 -795 l 1,4,-1
 1182 -795 l 1,5,-1
 1182 -698 l 1,6,-1
 1341 -698 l 1,7,-1
 1341 -603 l 1,8,-1
 1501 -603 l 1,9,-1
 1501 -508 l 1,10,-1
 862 -508 l 1,11,-1
 862 -316 l 1,12,-1
 2139 -316 l 1,13,-1
 2139 -411 l 1,14,-1
 1979 -411 l 1,15,-1
 1979 -508 l 1,16,-1
 1820 -508 l 1,17,-1
 1820 -603 l 1,18,-1
 1661 -603 l 1,19,-1
 1661 -698 l 1,20,-1
 1501 -698 l 1,21,-1
 1501 -795 l 1,22,-1
 2139 -795 l 1,23,-1
 2139 -987 l 1,0,-1
1979 262 m 1,24,-1
 1023 262 l 1,25,-1
 1023 -25 l 1,26,-1
 1979 -25 l 1,27,-1
 1979 262 l 1,24,-1
2139 -120 m 1,28,-1
 1979 -120 l 1,29,-1
 1979 -215 l 1,30,-1
 1023 -215 l 1,31,-1
 1023 -120 l 1,32,-1
 862 -120 l 1,33,-1
 862 359 l 1,34,-1
 1023 359 l 1,35,-1
 1023 454 l 1,36,-1
 1979 454 l 1,37,-1
 1979 359 l 1,38,-1
 2139 359 l 1,39,-1
 2139 -120 l 1,28,-1
2139 745 m 1,40,-1
 1979 745 l 1,41,-1
 1979 649 l 1,42,-1
 1820 649 l 1,43,-1
 1820 553 l 1,44,-1
 1182 553 l 1,45,-1
 1182 649 l 1,46,-1
 1023 649 l 1,47,-1
 1023 745 l 1,48,-1
 862 745 l 1,49,-1
 862 1127 l 1,50,-1
 1023 1127 l 1,51,-1
 1023 1224 l 1,52,-1
 1182 1224 l 1,53,-1
 1182 1032 l 1,54,-1
 1023 1032 l 1,55,-1
 1023 840 l 1,56,-1
 1182 840 l 1,57,-1
 1182 745 l 1,58,-1
 1820 745 l 1,59,-1
 1820 840 l 1,60,-1
 1979 840 l 1,61,-1
 1979 1032 l 1,62,-1
 1580 1032 l 1,63,-1
 1580 840 l 1,64,-1
 1421 840 l 1,65,-1
 1421 1224 l 1,66,-1
 2139 1224 l 1,67,-1
 2139 745 l 1,40,-1
2139 1323 m 1,68,-1
 862 1323 l 1,69,-1
 862 1514 l 1,70,-1
 1979 1514 l 1,71,-1
 1979 1897 l 1,72,-1
 2139 1897 l 1,73,-1
 2139 1323 l 1,68,-1
2139 1996 m 1,74,-1
 1660 1996 l 1,75,-1
 1660 1948 l 1,76,-1
 1501 1948 l 1,77,-1
 1501 1853 l 1,78,-1
 1341 1853 l 1,79,-1
 1341 1758 l 1,80,-1
 862 1758 l 1,81,-1
 862 1948 l 1,82,-1
 1341 1948 l 1,83,-1
 1341 2045 l 1,84,-1
 1501 2045 l 1,85,-1
 1501 2140 l 1,86,-1
 1341 2140 l 1,87,-1
 1341 2235 l 1,88,-1
 862 2235 l 1,89,-1
 862 2427 l 1,90,-1
 1341 2427 l 1,91,-1
 1341 2332 l 1,92,-1
 1501 2332 l 1,93,-1
 1501 2235 l 1,94,-1
 1660 2235 l 1,95,-1
 1660 2188 l 1,96,-1
 2139 2188 l 1,97,-1
 2139 1996 l 1,74,-1
1341 3005 m 1,98,-1
 1023 3005 l 1,99,-1
 1023 2718 l 1,100,-1
 1341 2718 l 1,101,-1
 1341 3005 l 1,98,-1
2139 2526 m 1,102,-1
 862 2526 l 1,103,-1
 862 3100 l 1,104,-1
 1023 3100 l 1,105,-1
 1023 3197 l 1,106,-1
 1341 3197 l 1,107,-1
 1341 3100 l 1,108,-1
 1501 3100 l 1,109,-1
 1501 2718 l 1,110,-1
 2139 2718 l 1,111,-1
 2139 2526 l 1,102,-1
2140 3296 m 1,112,-1
 862 3296 l 1,113,-1
 862 3488 l 1,114,-1
 1341 3488 l 1,115,-1
 1341 3775 l 1,116,-1
 862 3775 l 1,117,-1
 862 3966 l 1,118,-1
 2140 3966 l 1,119,-1
 2140 3775 l 1,120,-1
 1501 3775 l 1,121,-1
 1501 3488 l 1,122,-1
 2140 3488 l 1,123,-1
 2140 3296 l 1,112,-1
2269 -1117 m 1,124,-1
 2269 4096 l 1,125,-1
 732 4096 l 1,126,-1
 732 -1117 l 1,127,-1
 2269 -1117 l 1,124,-1
EndSplineSet
EndChar

StartChar: exclam
Encoding: 33 33 4
Width: 1303
GlyphClass: 2
Flags: W
LayerCount: 2
Fore
SplineSet
372 0 m 1,0,-1
 372 744 l 1,1,-1
 1117 744 l 1,2,-1
 1117 0 l 1,3,-1
 372 0 l 1,0,-1
372 1117 m 1,4,-1
 372 2978 l 1,5,-1
 1117 2978 l 1,6,-1
 1117 1117 l 1,7,-1
 372 1117 l 1,4,-1
EndSplineSet
EndChar

StartChar: quotedbl
Encoding: 34 34 5
Width: 2420
GlyphClass: 2
Flags: W
LayerCount: 2
Fore
SplineSet
372 1861 m 1,0,-1
 372 2978 l 1,1,-1
 1117 2978 l 1,2,-1
 1117 1861 l 1,3,-1
 372 1861 l 1,0,-1
1489 1861 m 1,4,-1
 1489 2978 l 1,5,-1
 2234 2978 l 1,6,-1
 2234 1861 l 1,7,-1
 1489 1861 l 1,4,-1
EndSplineSet
EndChar

StartChar: numbersign
Encoding: 35 35 6
Width: 4282
GlyphClass: 2
Flags: W
LayerCount: 2
Fore
SplineSet
2606 1117 m 1,0,-1
 2606 1861 l 1,1,-1
 1861 1861 l 1,2,-1
 1861 1117 l 1,3,-1
 2606 1117 l 1,0,-1
1117 0 m 1,4,-1
 1117 744 l 1,5,-1
 372 744 l 1,6,-1
 372 1117 l 1,7,-1
 1117 1117 l 1,8,-1
 1117 1861 l 1,9,-1
 372 1861 l 1,10,-1
 372 2234 l 1,11,-1
 1117 2234 l 1,12,-1
 1117 2978 l 1,13,-1
 1861 2978 l 1,14,-1
 1861 2234 l 1,15,-1
 2606 2234 l 1,16,-1
 2606 2978 l 1,17,-1
 3351 2978 l 1,18,-1
 3351 2234 l 1,19,-1
 4096 2234 l 1,20,-1
 4096 1861 l 1,21,-1
 3351 1861 l 1,22,-1
 3351 1117 l 1,23,-1
 4096 1117 l 1,24,-1
 4096 744 l 1,25,-1
 3351 744 l 1,26,-1
 3351 0 l 1,27,-1
 2606 0 l 1,28,-1
 2606 744 l 1,29,-1
 1861 744 l 1,30,-1
 1861 0 l 1,31,-1
 1117 0 l 1,4,-1
EndSplineSet
EndChar

StartChar: dollar
Encoding: 36 36 7
Width: 3165
GlyphClass: 2
Flags: W
LayerCount: 2
Fore
SplineSet
2234 372 m 1,0,-1
 2234 1489 l 1,1,-1
 1861 1489 l 1,2,-1
 1861 372 l 1,3,-1
 2234 372 l 1,0,-1
1489 1861 m 1,4,-1
 1489 2606 l 1,5,-1
 1117 2606 l 1,6,-1
 1117 1861 l 1,7,-1
 1489 1861 l 1,4,-1
1303 -744 m 1,8,-1
 1303 0 l 1,9,-1
 744 0 l 1,10,-1
 744 372 l 1,11,-1
 372 372 l 1,12,-1
 372 744 l 1,13,-1
 1117 744 l 1,14,-1
 1117 372 l 1,15,-1
 1489 372 l 1,16,-1
 1489 1489 l 1,17,-1
 744 1489 l 1,18,-1
 744 1861 l 1,19,-1
 372 1861 l 1,20,-1
 372 2606 l 1,21,-1
 744 2606 l 1,22,-1
 744 2978 l 1,23,-1
 1303 2978 l 1,24,-1
 1303 3723 l 1,25,-1
 2048 3723 l 1,26,-1
 2048 2978 l 1,27,-1
 2606 2978 l 1,28,-1
 2606 2606 l 1,29,-1
 2978 2606 l 1,30,-1
 2978 2234 l 1,31,-1
 2234 2234 l 1,32,-1
 2234 2606 l 1,33,-1
 1861 2606 l 1,34,-1
 1861 1861 l 1,35,-1
 2606 1861 l 1,36,-1
 2606 1489 l 1,37,-1
 2978 1489 l 1,38,-1
 2978 372 l 1,39,-1
 2606 372 l 1,40,-1
 2606 0 l 1,41,-1
 2048 0 l 1,42,-1
 2048 -744 l 1,43,-1
 1303 -744 l 1,8,-1
EndSplineSet
EndChar

StartChar: percent
Encoding: 37 37 8
Width: 3165
GlyphClass: 2
Flags: W
LayerCount: 2
Fore
SplineSet
1861 0 m 1,0,-1
 1861 744 l 1,1,-1
 2234 744 l 1,2,-1
 2234 372 l 1,3,-1
 2606 372 l 1,4,-1
 2606 0 l 1,5,-1
 1861 0 l 1,0,-1
2606 372 m 1,6,-1
 2606 744 l 1,7,-1
 2234 744 l 1,8,-1
 2234 1117 l 1,9,-1
 2978 1117 l 1,10,-1
 2978 372 l 1,11,-1
 2606 372 l 1,6,-1
372 1861 m 1,12,-1
 372 2606 l 1,13,-1
 744 2606 l 1,14,-1
 744 2234 l 1,15,-1
 1117 2234 l 1,16,-1
 1117 1861 l 1,17,-1
 372 1861 l 1,12,-1
1117 2234 m 1,18,-1
 1117 2606 l 1,19,-1
 744 2606 l 1,20,-1
 744 2978 l 1,21,-1
 1489 2978 l 1,22,-1
 1489 2234 l 1,23,-1
 1117 2234 l 1,18,-1
372 0 m 1,24,-1
 372 744 l 1,25,-1
 744 744 l 1,26,-1
 744 1117 l 1,27,-1
 1117 1117 l 1,28,-1
 1117 1489 l 1,29,-1
 1489 1489 l 1,30,-1
 1489 1861 l 1,31,-1
 1861 1861 l 1,32,-1
 1861 2234 l 1,33,-1
 2234 2234 l 1,34,-1
 2234 2978 l 1,35,-1
 2978 2978 l 1,36,-1
 2978 2234 l 1,37,-1
 2606 2234 l 1,38,-1
 2606 1861 l 1,39,-1
 2234 1861 l 1,40,-1
 2234 1489 l 1,41,-1
 1861 1489 l 1,42,-1
 1861 1117 l 1,43,-1
 1489 1117 l 1,44,-1
 1489 744 l 1,45,-1
 1117 744 l 1,46,-1
 1117 0 l 1,47,-1
 372 0 l 1,24,-1
EndSplineSet
EndChar

StartChar: ampersand
Encoding: 38 38 9
Width: 3537
GlyphClass: 2
Flags: W
LayerCount: 2
Fore
SplineSet
744 0 m 1,0,-1
 744 372 l 1,1,-1
 372 372 l 1,2,-1
 372 1489 l 1,3,-1
 744 1489 l 1,4,-1
 744 1861 l 1,5,-1
 372 1861 l 1,6,-1
 372 2606 l 1,7,-1
 744 2606 l 1,8,-1
 744 2978 l 1,9,-1
 2606 2978 l 1,10,-1
 2606 2606 l 1,11,-1
 2978 2606 l 1,12,-1
 2978 2234 l 1,13,-1
 2234 2234 l 1,14,-1
 2234 2606 l 1,15,-1
 1117 2606 l 1,16,-1
 1117 1861 l 1,17,-1
 1861 1861 l 1,18,-1
 1861 1489 l 1,19,-1
 1117 1489 l 1,20,-1
 1117 372 l 1,21,-1
 2048 372 l 1,22,-1
 2048 1489 l 1,23,-1
 3351 1489 l 1,24,-1
 3351 1117 l 1,25,-1
 2792 1117 l 1,26,-1
 2792 372 l 1,27,-1
 2420 372 l 1,28,-1
 2420 0 l 1,29,-1
 744 0 l 1,0,-1
EndSplineSet
EndChar

StartChar: quotesingle
Encoding: 39 39 10
Width: 1303
GlyphClass: 2
Flags: W
LayerCount: 2
Fore
SplineSet
372 1861 m 1,0,-1
 372 2978 l 1,1,-1
 1117 2978 l 1,2,-1
 1117 1861 l 1,3,-1
 372 1861 l 1,0,-1
EndSplineSet
EndChar

StartChar: parenleft
Encoding: 40 40 11
Width: 2048
GlyphClass: 2
Flags: W
LayerCount: 2
Fore
SplineSet
1117 0 m 1,0,-1
 1117 372 l 1,1,-1
 744 372 l 1,2,-1
 744 744 l 1,3,-1
 372 744 l 1,4,-1
 372 2234 l 1,5,-1
 744 2234 l 1,6,-1
 744 2606 l 1,7,-1
 1117 2606 l 1,8,-1
 1117 2978 l 1,9,-1
 1861 2978 l 1,10,-1
 1861 2606 l 1,11,-1
 1489 2606 l 1,12,-1
 1489 2234 l 1,13,-1
 1117 2234 l 1,14,-1
 1117 744 l 1,15,-1
 1489 744 l 1,16,-1
 1489 372 l 1,17,-1
 1861 372 l 1,18,-1
 1861 0 l 1,19,-1
 1117 0 l 1,0,-1
EndSplineSet
EndChar

StartChar: parenright
Encoding: 41 41 12
Width: 2048
GlyphClass: 2
Flags: W
LayerCount: 2
Fore
SplineSet
372 0 m 1,0,-1
 372 372 l 1,1,-1
 744 372 l 1,2,-1
 744 744 l 1,3,-1
 1117 744 l 1,4,-1
 1117 2234 l 1,5,-1
 744 2234 l 1,6,-1
 744 2606 l 1,7,-1
 372 2606 l 1,8,-1
 372 2978 l 1,9,-1
 1117 2978 l 1,10,-1
 1117 2606 l 1,11,-1
 1489 2606 l 1,12,-1
 1489 2234 l 1,13,-1
 1861 2234 l 1,14,-1
 1861 744 l 1,15,-1
 1489 744 l 1,16,-1
 1489 372 l 1,17,-1
 1117 372 l 1,18,-1
 1117 0 l 1,19,-1
 372 0 l 1,0,-1
EndSplineSet
EndChar

StartChar: asterisk
Encoding: 42 42 13
Width: 3537
GlyphClass: 2
Flags: W
LayerCount: 2
Fore
SplineSet
744 744 m 1,0,-1
 744 1117 l 1,1,-1
 1303 1117 l 1,2,-1
 1303 1489 l 1,3,-1
 372 1489 l 1,4,-1
 372 1861 l 1,5,-1
 1303 1861 l 1,6,-1
 1303 2234 l 1,7,-1
 744 2234 l 1,8,-1
 744 2606 l 1,9,-1
 1675 2606 l 1,10,-1
 1675 2234 l 1,11,-1
 2048 2234 l 1,12,-1
 2048 2606 l 1,13,-1
 2978 2606 l 1,14,-1
 2978 2234 l 1,15,-1
 2420 2234 l 1,16,-1
 2420 1861 l 1,17,-1
 3351 1861 l 1,18,-1
 3351 1489 l 1,19,-1
 2420 1489 l 1,20,-1
 2420 1117 l 1,21,-1
 2978 1117 l 1,22,-1
 2978 744 l 1,23,-1
 2048 744 l 1,24,-1
 2048 1117 l 1,25,-1
 1675 1117 l 1,26,-1
 1675 744 l 1,27,-1
 744 744 l 1,0,-1
EndSplineSet
EndChar

StartChar: plus
Encoding: 43 43 14
Width: 2792
GlyphClass: 2
Flags: W
LayerCount: 2
Fore
SplineSet
1117 558 m 1,0,-1
 1117 1303 l 1,1,-1
 372 1303 l 1,2,-1
 372 1675 l 1,3,-1
 1117 1675 l 1,4,-1
 1117 2420 l 1,5,-1
 1861 2420 l 1,6,-1
 1861 1675 l 1,7,-1
 2606 1675 l 1,8,-1
 2606 1303 l 1,9,-1
 1861 1303 l 1,10,-1
 1861 558 l 1,11,-1
 1117 558 l 1,0,-1
EndSplineSet
EndChar

StartChar: comma
Encoding: 44 44 15
Width: 1303
GlyphClass: 2
Flags: W
LayerCount: 2
Fore
SplineSet
0 -372 m 1,0,-1
 0 0 l 1,1,-1
 372 0 l 1,2,-1
 372 744 l 1,3,-1
 1117 744 l 1,4,-1
 1117 0 l 1,5,-1
 744 0 l 1,6,-1
 744 -372 l 1,7,-1
 0 -372 l 1,0,-1
EndSplineSet
EndChar

StartChar: hyphen
Encoding: 45 45 16
Width: 2048
GlyphClass: 2
Flags: W
LayerCount: 2
Fore
SplineSet
372 1303 m 1,0,-1
 372 1675 l 1,1,-1
 1861 1675 l 1,2,-1
 1861 1303 l 1,3,-1
 372 1303 l 1,0,-1
EndSplineSet
EndChar

StartChar: period
Encoding: 46 46 17
Width: 1303
GlyphClass: 2
Flags: W
LayerCount: 2
Fore
SplineSet
372 0 m 1,0,-1
 372 744 l 1,1,-1
 1117 744 l 1,2,-1
 1117 0 l 1,3,-1
 372 0 l 1,0,-1
EndSplineSet
EndChar

StartChar: slash
Encoding: 47 47 18
Width: 3165
GlyphClass: 2
Flags: W
LayerCount: 2
Fore
SplineSet
372 0 m 1,0,-1
 372 744 l 1,1,-1
 744 744 l 1,2,-1
 744 1117 l 1,3,-1
 1117 1117 l 1,4,-1
 1117 1489 l 1,5,-1
 1489 1489 l 1,6,-1
 1489 1861 l 1,7,-1
 1861 1861 l 1,8,-1
 1861 2234 l 1,9,-1
 2234 2234 l 1,10,-1
 2234 2978 l 1,11,-1
 2978 2978 l 1,12,-1
 2978 2234 l 1,13,-1
 2606 2234 l 1,14,-1
 2606 1861 l 1,15,-1
 2234 1861 l 1,16,-1
 2234 1489 l 1,17,-1
 1861 1489 l 1,18,-1
 1861 1117 l 1,19,-1
 1489 1117 l 1,20,-1
 1489 744 l 1,21,-1
 1117 744 l 1,22,-1
 1117 0 l 1,23,-1
 372 0 l 1,0,-1
EndSplineSet
EndChar

StartChar: zero
Encoding: 48 48 19
Width: 3074
GlyphClass: 2
Flags: W
LayerCount: 2
Fore
SplineSet
2234 372 m 1,0,-1
 2234 1489 l 1,1,-1
 1861 1489 l 1,2,-1
 1861 1117 l 1,3,-1
 1489 1117 l 1,4,-1
 1489 744 l 1,5,-1
 1117 744 l 1,6,-1
 1117 372 l 1,7,-1
 2234 372 l 1,0,-1
1489 1489 m 1,8,-1
 1489 1861 l 1,9,-1
 1861 1861 l 1,10,-1
 1861 2234 l 1,11,-1
 2234 2234 l 1,12,-1
 2234 2606 l 1,13,-1
 1117 2606 l 1,14,-1
 1117 1489 l 1,15,-1
 1489 1489 l 1,8,-1
744 0 m 1,16,-1
 744 372 l 1,17,-1
 372 372 l 1,18,-1
 372 2606 l 1,19,-1
 744 2606 l 1,20,-1
 744 2978 l 1,21,-1
 2606 2978 l 1,22,-1
 2606 2606 l 1,23,-1
 2978 2606 l 1,24,-1
 2978 372 l 1,25,-1
 2606 372 l 1,26,-1
 2606 0 l 1,27,-1
 744 0 l 1,16,-1
EndSplineSet
EndChar

StartChar: one
Encoding: 49 49 20
Width: 3070
GlyphClass: 2
Flags: W
LayerCount: 2
Fore
SplineSet
853 8 m 1,0,-1
 853 380 l 1,1,-1
 1225 380 l 1,2,-1
 1225 2242 l 1,3,-1
 853 2242 l 1,4,-1
 853 2614 l 1,5,-1
 1225 2614 l 1,6,-1
 1225 2986 l 1,7,-1
 1970 2986 l 1,8,-1
 1970 380 l 1,9,-1
 2342 380 l 1,10,-1
 2342 8 l 1,11,-1
 853 8 l 1,0,-1
EndSplineSet
EndChar

StartChar: two
Encoding: 50 50 21
Width: 3165
GlyphClass: 2
Flags: W
LayerCount: 2
Fore
SplineSet
372 0 m 1,0,-1
 372 1489 l 1,1,-1
 744 1489 l 1,2,-1
 744 1861 l 1,3,-1
 2234 1861 l 1,4,-1
 2234 2606 l 1,5,-1
 1117 2606 l 1,6,-1
 1117 2234 l 1,7,-1
 372 2234 l 1,8,-1
 372 2606 l 1,9,-1
 744 2606 l 1,10,-1
 744 2978 l 1,11,-1
 2606 2978 l 1,12,-1
 2606 2606 l 1,13,-1
 2978 2606 l 1,14,-1
 2978 1861 l 1,15,-1
 2606 1861 l 1,16,-1
 2606 1489 l 1,17,-1
 1117 1489 l 1,18,-1
 1117 372 l 1,19,-1
 2234 372 l 1,20,-1
 2234 744 l 1,21,-1
 2978 744 l 1,22,-1
 2978 0 l 1,23,-1
 372 0 l 1,0,-1
EndSplineSet
EndChar

StartChar: three
Encoding: 51 51 22
Width: 3165
GlyphClass: 2
Flags: W
LayerCount: 2
Fore
SplineSet
744 0 m 1,0,-1
 744 372 l 1,1,-1
 372 372 l 1,2,-1
 372 744 l 1,3,-1
 1117 744 l 1,4,-1
 1117 372 l 1,5,-1
 2234 372 l 1,6,-1
 2234 1489 l 1,7,-1
 1117 1489 l 1,8,-1
 1117 1861 l 1,9,-1
 1489 1861 l 1,10,-1
 1489 2234 l 1,11,-1
 1861 2234 l 1,12,-1
 1861 2606 l 1,13,-1
 372 2606 l 1,14,-1
 372 2978 l 1,15,-1
 2978 2978 l 1,16,-1
 2978 2606 l 1,17,-1
 2606 2606 l 1,18,-1
 2606 2234 l 1,19,-1
 2234 2234 l 1,20,-1
 2234 1861 l 1,21,-1
 2606 1861 l 1,22,-1
 2606 1489 l 1,23,-1
 2978 1489 l 1,24,-1
 2978 372 l 1,25,-1
 2606 372 l 1,26,-1
 2606 0 l 1,27,-1
 744 0 l 1,0,-1
EndSplineSet
EndChar

StartChar: four
Encoding: 52 52 23
Width: 3165
GlyphClass: 2
Flags: W
LayerCount: 2
Fore
SplineSet
2234 1489 m 1,0,-1
 2234 2606 l 1,1,-1
 1861 2606 l 1,2,-1
 1861 2234 l 1,3,-1
 1489 2234 l 1,4,-1
 1489 1861 l 1,5,-1
 1117 1861 l 1,6,-1
 1117 1489 l 1,7,-1
 2234 1489 l 1,0,-1
2234 0 m 1,8,-1
 2234 1117 l 1,9,-1
 372 1117 l 1,10,-1
 372 1861 l 1,11,-1
 744 1861 l 1,12,-1
 744 2234 l 1,13,-1
 1117 2234 l 1,14,-1
 1117 2606 l 1,15,-1
 1489 2606 l 1,16,-1
 1489 2978 l 1,17,-1
 2978 2978 l 1,18,-1
 2978 0 l 1,19,-1
 2234 0 l 1,8,-1
EndSplineSet
EndChar

StartChar: five
Encoding: 53 53 24
Width: 3165
GlyphClass: 2
Flags: W
LayerCount: 2
Fore
SplineSet
744 0 m 1,0,-1
 744 372 l 1,1,-1
 372 372 l 1,2,-1
 372 744 l 1,3,-1
 1117 744 l 1,4,-1
 1117 372 l 1,5,-1
 2234 372 l 1,6,-1
 2234 1489 l 1,7,-1
 372 1489 l 1,8,-1
 372 2978 l 1,9,-1
 2606 2978 l 1,10,-1
 2606 2606 l 1,11,-1
 1117 2606 l 1,12,-1
 1117 1861 l 1,13,-1
 2606 1861 l 1,14,-1
 2606 1489 l 1,15,-1
 2978 1489 l 1,16,-1
 2978 372 l 1,17,-1
 2606 372 l 1,18,-1
 2606 0 l 1,19,-1
 744 0 l 1,0,-1
EndSplineSet
EndChar

StartChar: six
Encoding: 54 54 25
Width: 3165
GlyphClass: 2
Flags: W
LayerCount: 2
Fore
SplineSet
2234 372 m 1,0,-1
 2234 1489 l 1,1,-1
 1117 1489 l 1,2,-1
 1117 372 l 1,3,-1
 2234 372 l 1,0,-1
744 0 m 1,4,-1
 744 372 l 1,5,-1
 372 372 l 1,6,-1
 372 2606 l 1,7,-1
 744 2606 l 1,8,-1
 744 2978 l 1,9,-1
 2606 2978 l 1,10,-1
 2606 2606 l 1,11,-1
 2978 2606 l 1,12,-1
 2978 2234 l 1,13,-1
 2234 2234 l 1,14,-1
 2234 2606 l 1,15,-1
 1117 2606 l 1,16,-1
 1117 1861 l 1,17,-1
 2606 1861 l 1,18,-1
 2606 1489 l 1,19,-1
 2978 1489 l 1,20,-1
 2978 372 l 1,21,-1
 2606 372 l 1,22,-1
 2606 0 l 1,23,-1
 744 0 l 1,4,-1
EndSplineSet
EndChar

StartChar: seven
Encoding: 55 55 26
Width: 3165
GlyphClass: 2
Flags: W
LayerCount: 2
Fore
SplineSet
1117 0 m 1,0,-1
 1117 1489 l 1,1,-1
 1489 1489 l 1,2,-1
 1489 1861 l 1,3,-1
 1861 1861 l 1,4,-1
 1861 2234 l 1,5,-1
 2234 2234 l 1,6,-1
 2234 2606 l 1,7,-1
 1117 2606 l 1,8,-1
 1117 2234 l 1,9,-1
 372 2234 l 1,10,-1
 372 2978 l 1,11,-1
 2978 2978 l 1,12,-1
 2978 2234 l 1,13,-1
 2606 2234 l 1,14,-1
 2606 1861 l 1,15,-1
 2234 1861 l 1,16,-1
 2234 1489 l 1,17,-1
 1861 1489 l 1,18,-1
 1861 0 l 1,19,-1
 1117 0 l 1,0,-1
EndSplineSet
EndChar

StartChar: eight
Encoding: 56 56 27
Width: 3165
GlyphClass: 2
Flags: W
LayerCount: 2
Fore
SplineSet
2234 372 m 1,0,-1
 2234 1489 l 1,1,-1
 1117 1489 l 1,2,-1
 1117 372 l 1,3,-1
 2234 372 l 1,0,-1
2234 1861 m 1,4,-1
 2234 2606 l 1,5,-1
 1117 2606 l 1,6,-1
 1117 1861 l 1,7,-1
 2234 1861 l 1,4,-1
744 0 m 1,8,-1
 744 372 l 1,9,-1
 372 372 l 1,10,-1
 372 1489 l 1,11,-1
 744 1489 l 1,12,-1
 744 1861 l 1,13,-1
 372 1861 l 1,14,-1
 372 2606 l 1,15,-1
 744 2606 l 1,16,-1
 744 2978 l 1,17,-1
 2606 2978 l 1,18,-1
 2606 2606 l 1,19,-1
 2978 2606 l 1,20,-1
 2978 1861 l 1,21,-1
 2606 1861 l 1,22,-1
 2606 1489 l 1,23,-1
 2978 1489 l 1,24,-1
 2978 372 l 1,25,-1
 2606 372 l 1,26,-1
 2606 0 l 1,27,-1
 744 0 l 1,8,-1
EndSplineSet
EndChar

StartChar: nine
Encoding: 57 57 28
Width: 3165
GlyphClass: 2
Flags: W
LayerCount: 2
Fore
SplineSet
2234 1489 m 1,0,-1
 2234 2606 l 1,1,-1
 1117 2606 l 1,2,-1
 1117 1489 l 1,3,-1
 2234 1489 l 1,0,-1
744 0 m 1,4,-1
 744 372 l 1,5,-1
 372 372 l 1,6,-1
 372 744 l 1,7,-1
 1117 744 l 1,8,-1
 1117 372 l 1,9,-1
 2234 372 l 1,10,-1
 2234 1117 l 1,11,-1
 744 1117 l 1,12,-1
 744 1489 l 1,13,-1
 372 1489 l 1,14,-1
 372 2606 l 1,15,-1
 744 2606 l 1,16,-1
 744 2978 l 1,17,-1
 2606 2978 l 1,18,-1
 2606 2606 l 1,19,-1
 2978 2606 l 1,20,-1
 2978 372 l 1,21,-1
 2606 372 l 1,22,-1
 2606 0 l 1,23,-1
 744 0 l 1,4,-1
EndSplineSet
EndChar

StartChar: colon
Encoding: 58 58 29
Width: 1303
GlyphClass: 2
Flags: W
LayerCount: 2
Fore
SplineSet
372 0 m 1,0,-1
 372 744 l 1,1,-1
 1117 744 l 1,2,-1
 1117 0 l 1,3,-1
 372 0 l 1,0,-1
372 1489 m 1,4,-1
 372 2234 l 1,5,-1
 1117 2234 l 1,6,-1
 1117 1489 l 1,7,-1
 372 1489 l 1,4,-1
EndSplineSet
EndChar

StartChar: semicolon
Encoding: 59 59 30
Width: 1303
GlyphClass: 2
Flags: W
LayerCount: 2
Fore
SplineSet
0 -372 m 1,0,-1
 0 0 l 1,1,-1
 372 0 l 1,2,-1
 372 744 l 1,3,-1
 1117 744 l 1,4,-1
 1117 0 l 1,5,-1
 744 0 l 1,6,-1
 744 -372 l 1,7,-1
 0 -372 l 1,0,-1
372 1489 m 1,8,-1
 372 2234 l 1,9,-1
 1117 2234 l 1,10,-1
 1117 1489 l 1,11,-1
 372 1489 l 1,8,-1
EndSplineSet
EndChar

StartChar: less
Encoding: 60 60 31
Width: 2420
GlyphClass: 2
Flags: W
LayerCount: 2
Fore
SplineSet
1489 0 m 1,0,-1
 1489 372 l 1,1,-1
 1117 372 l 1,2,-1
 1117 744 l 1,3,-1
 744 744 l 1,4,-1
 744 1117 l 1,5,-1
 372 1117 l 1,6,-1
 372 1489 l 1,7,-1
 744 1489 l 1,8,-1
 744 1861 l 1,9,-1
 1117 1861 l 1,10,-1
 1117 2234 l 1,11,-1
 1489 2234 l 1,12,-1
 1489 2606 l 1,13,-1
 2234 2606 l 1,14,-1
 2234 2234 l 1,15,-1
 1861 2234 l 1,16,-1
 1861 1861 l 1,17,-1
 1489 1861 l 1,18,-1
 1489 1489 l 1,19,-1
 1117 1489 l 1,20,-1
 1117 1117 l 1,21,-1
 1489 1117 l 1,22,-1
 1489 744 l 1,23,-1
 1861 744 l 1,24,-1
 1861 372 l 1,25,-1
 2234 372 l 1,26,-1
 2234 0 l 1,27,-1
 1489 0 l 1,0,-1
EndSplineSet
EndChar

StartChar: equal
Encoding: 61 61 32
Width: 2420
GlyphClass: 2
Flags: W
LayerCount: 2
Fore
SplineSet
372 744 m 1,0,-1
 372 1117 l 1,1,-1
 2234 1117 l 1,2,-1
 2234 744 l 1,3,-1
 372 744 l 1,0,-1
372 1489 m 1,4,-1
 372 1861 l 1,5,-1
 2234 1861 l 1,6,-1
 2234 1489 l 1,7,-1
 372 1489 l 1,4,-1
EndSplineSet
EndChar

StartChar: greater
Encoding: 62 62 33
Width: 2420
GlyphClass: 2
Flags: W
LayerCount: 2
Fore
SplineSet
372 0 m 1,0,-1
 372 372 l 1,1,-1
 744 372 l 1,2,-1
 744 744 l 1,3,-1
 1117 744 l 1,4,-1
 1117 1117 l 1,5,-1
 1489 1117 l 1,6,-1
 1489 1489 l 1,7,-1
 1117 1489 l 1,8,-1
 1117 1861 l 1,9,-1
 744 1861 l 1,10,-1
 744 2234 l 1,11,-1
 372 2234 l 1,12,-1
 372 2606 l 1,13,-1
 1117 2606 l 1,14,-1
 1117 2234 l 1,15,-1
 1489 2234 l 1,16,-1
 1489 1861 l 1,17,-1
 1861 1861 l 1,18,-1
 1861 1489 l 1,19,-1
 2234 1489 l 1,20,-1
 2234 1117 l 1,21,-1
 1861 1117 l 1,22,-1
 1861 744 l 1,23,-1
 1489 744 l 1,24,-1
 1489 372 l 1,25,-1
 1117 372 l 1,26,-1
 1117 0 l 1,27,-1
 372 0 l 1,0,-1
EndSplineSet
EndChar

StartChar: question
Encoding: 63 63 34
Width: 3165
GlyphClass: 2
Flags: W
LayerCount: 2
Fore
SplineSet
1117 0 m 1,0,-1
 1117 744 l 1,1,-1
 1861 744 l 1,2,-1
 1861 0 l 1,3,-1
 1117 0 l 1,0,-1
1117 1117 m 1,4,-1
 1117 1489 l 1,5,-1
 1489 1489 l 1,6,-1
 1489 1861 l 1,7,-1
 2234 1861 l 1,8,-1
 2234 2606 l 1,9,-1
 1117 2606 l 1,10,-1
 1117 2234 l 1,11,-1
 372 2234 l 1,12,-1
 372 2606 l 1,13,-1
 744 2606 l 1,14,-1
 744 2978 l 1,15,-1
 2606 2978 l 1,16,-1
 2606 2606 l 1,17,-1
 2978 2606 l 1,18,-1
 2978 1861 l 1,19,-1
 2606 1861 l 1,20,-1
 2606 1489 l 1,21,-1
 1861 1489 l 1,22,-1
 1861 1117 l 1,23,-1
 1117 1117 l 1,4,-1
EndSplineSet
EndChar

StartChar: at
Encoding: 64 64 35
Width: 3165
GlyphClass: 2
Flags: W
LayerCount: 2
Fore
SplineSet
744 0 m 1,0,-1
 744 372 l 1,1,-1
 2606 372 l 1,2,-1
 2606 0 l 1,3,-1
 744 0 l 1,0,-1
1861 1117 m 1,4,-1
 1861 1861 l 1,5,-1
 1489 1861 l 1,6,-1
 1489 1117 l 1,7,-1
 1861 1117 l 1,4,-1
372 372 m 1,8,-1
 372 2606 l 1,9,-1
 744 2606 l 1,10,-1
 744 372 l 1,11,-1
 372 372 l 1,8,-1
1117 744 m 1,12,-1
 1117 2234 l 1,13,-1
 2234 2234 l 1,14,-1
 2234 1117 l 1,15,-1
 2606 1117 l 1,16,-1
 2606 2606 l 1,17,-1
 2978 2606 l 1,18,-1
 2978 744 l 1,19,-1
 1117 744 l 1,12,-1
744 2606 m 1,20,-1
 744 2978 l 1,21,-1
 2606 2978 l 1,22,-1
 2606 2606 l 1,23,-1
 744 2606 l 1,20,-1
EndSplineSet
EndChar

StartChar: A
Encoding: 65 65 36
Width: 3165
GlyphClass: 2
Flags: W
LayerCount: 2
Fore
SplineSet
2234 1489 m 1,0,-1
 2234 2234 l 1,1,-1
 1861 2234 l 1,2,-1
 1861 2606 l 1,3,-1
 1489 2606 l 1,4,-1
 1489 2234 l 1,5,-1
 1117 2234 l 1,6,-1
 1117 1489 l 1,7,-1
 2234 1489 l 1,0,-1
372 0 m 1,8,-1
 372 2234 l 1,9,-1
 744 2234 l 1,10,-1
 744 2606 l 1,11,-1
 1117 2606 l 1,12,-1
 1117 2978 l 1,13,-1
 2234 2978 l 1,14,-1
 2234 2606 l 1,15,-1
 2606 2606 l 1,16,-1
 2606 2234 l 1,17,-1
 2978 2234 l 1,18,-1
 2978 0 l 1,19,-1
 2234 0 l 1,20,-1
 2234 1117 l 1,21,-1
 1117 1117 l 1,22,-1
 1117 0 l 1,23,-1
 372 0 l 1,8,-1
EndSplineSet
EndChar

StartChar: B
Encoding: 66 66 37
Width: 3165
GlyphClass: 2
Flags: W
LayerCount: 2
Fore
SplineSet
2234 372 m 1,0,-1
 2234 1489 l 1,1,-1
 1117 1489 l 1,2,-1
 1117 372 l 1,3,-1
 2234 372 l 1,0,-1
2234 1861 m 1,4,-1
 2234 2606 l 1,5,-1
 1117 2606 l 1,6,-1
 1117 1861 l 1,7,-1
 2234 1861 l 1,4,-1
372 0 m 1,8,-1
 372 2978 l 1,9,-1
 2606 2978 l 1,10,-1
 2606 2606 l 1,11,-1
 2978 2606 l 1,12,-1
 2978 1861 l 1,13,-1
 2606 1861 l 1,14,-1
 2606 1489 l 1,15,-1
 2978 1489 l 1,16,-1
 2978 372 l 1,17,-1
 2606 372 l 1,18,-1
 2606 0 l 1,19,-1
 372 0 l 1,8,-1
EndSplineSet
EndChar

StartChar: C
Encoding: 67 67 38
Width: 3165
GlyphClass: 2
Flags: W
LayerCount: 2
Fore
SplineSet
1117 0 m 1,0,-1
 1117 372 l 1,1,-1
 744 372 l 1,2,-1
 744 744 l 1,3,-1
 372 744 l 1,4,-1
 372 2234 l 1,5,-1
 744 2234 l 1,6,-1
 744 2606 l 1,7,-1
 1117 2606 l 1,8,-1
 1117 2978 l 1,9,-1
 2606 2978 l 1,10,-1
 2606 2606 l 1,11,-1
 2978 2606 l 1,12,-1
 2978 2234 l 1,13,-1
 2234 2234 l 1,14,-1
 2234 2606 l 1,15,-1
 1489 2606 l 1,16,-1
 1489 2234 l 1,17,-1
 1117 2234 l 1,18,-1
 1117 744 l 1,19,-1
 1489 744 l 1,20,-1
 1489 372 l 1,21,-1
 2234 372 l 1,22,-1
 2234 744 l 1,23,-1
 2978 744 l 1,24,-1
 2978 372 l 1,25,-1
 2606 372 l 1,26,-1
 2606 0 l 1,27,-1
 1117 0 l 1,0,-1
EndSplineSet
EndChar

StartChar: D
Encoding: 68 68 39
Width: 3165
GlyphClass: 2
Flags: W
LayerCount: 2
Fore
SplineSet
1861 372 m 1,0,-1
 1861 744 l 1,1,-1
 2234 744 l 1,2,-1
 2234 2234 l 1,3,-1
 1861 2234 l 1,4,-1
 1861 2606 l 1,5,-1
 1117 2606 l 1,6,-1
 1117 372 l 1,7,-1
 1861 372 l 1,0,-1
372 0 m 1,8,-1
 372 2978 l 1,9,-1
 2234 2978 l 1,10,-1
 2234 2606 l 1,11,-1
 2606 2606 l 1,12,-1
 2606 2234 l 1,13,-1
 2978 2234 l 1,14,-1
 2978 744 l 1,15,-1
 2606 744 l 1,16,-1
 2606 372 l 1,17,-1
 2234 372 l 1,18,-1
 2234 0 l 1,19,-1
 372 0 l 1,8,-1
EndSplineSet
EndChar

StartChar: E
Encoding: 69 69 40
Width: 3165
GlyphClass: 2
Flags: W
LayerCount: 2
Fore
SplineSet
372 0 m 1,0,-1
 372 2978 l 1,1,-1
 2978 2978 l 1,2,-1
 2978 2606 l 1,3,-1
 1117 2606 l 1,4,-1
 1117 1861 l 1,5,-1
 2234 1861 l 1,6,-1
 2234 1489 l 1,7,-1
 1117 1489 l 1,8,-1
 1117 372 l 1,9,-1
 2978 372 l 1,10,-1
 2978 0 l 1,11,-1
 372 0 l 1,0,-1
EndSplineSet
EndChar

StartChar: F
Encoding: 70 70 41
Width: 3165
GlyphClass: 2
Flags: W
LayerCount: 2
Fore
SplineSet
372 0 m 1,0,-1
 372 2978 l 1,1,-1
 2978 2978 l 1,2,-1
 2978 2606 l 1,3,-1
 1117 2606 l 1,4,-1
 1117 1861 l 1,5,-1
 2234 1861 l 1,6,-1
 2234 1489 l 1,7,-1
 1117 1489 l 1,8,-1
 1117 0 l 1,9,-1
 372 0 l 1,0,-1
EndSplineSet
EndChar

StartChar: G
Encoding: 71 71 42
Width: 3165
GlyphClass: 2
Flags: W
LayerCount: 2
Fore
SplineSet
1117 0 m 1,0,-1
 1117 372 l 1,1,-1
 744 372 l 1,2,-1
 744 744 l 1,3,-1
 372 744 l 1,4,-1
 372 2234 l 1,5,-1
 744 2234 l 1,6,-1
 744 2606 l 1,7,-1
 1117 2606 l 1,8,-1
 1117 2978 l 1,9,-1
 2606 2978 l 1,10,-1
 2606 2606 l 1,11,-1
 2978 2606 l 1,12,-1
 2978 2234 l 1,13,-1
 2234 2234 l 1,14,-1
 2234 2606 l 1,15,-1
 1489 2606 l 1,16,-1
 1489 2234 l 1,17,-1
 1117 2234 l 1,18,-1
 1117 744 l 1,19,-1
 1489 744 l 1,20,-1
 1489 372 l 1,21,-1
 2234 372 l 1,22,-1
 2234 1303 l 1,23,-1
 1489 1303 l 1,24,-1
 1489 1675 l 1,25,-1
 2978 1675 l 1,26,-1
 2978 0 l 1,27,-1
 1117 0 l 1,0,-1
EndSplineSet
EndChar

StartChar: H
Encoding: 72 72 43
Width: 3165
GlyphClass: 2
Flags: W
LayerCount: 2
Fore
SplineSet
372 0 m 1,0,-1
 372 2978 l 1,1,-1
 1117 2978 l 1,2,-1
 1117 1861 l 1,3,-1
 2234 1861 l 1,4,-1
 2234 2978 l 1,5,-1
 2978 2978 l 1,6,-1
 2978 0 l 1,7,-1
 2234 0 l 1,8,-1
 2234 1489 l 1,9,-1
 1117 1489 l 1,10,-1
 1117 0 l 1,11,-1
 372 0 l 1,0,-1
EndSplineSet
EndChar

StartChar: I
Encoding: 73 73 44
Width: 2792
GlyphClass: 2
Flags: W
LayerCount: 2
Fore
SplineSet
372 0 m 1,0,-1
 372 372 l 1,1,-1
 1117 372 l 1,2,-1
 1117 2606 l 1,3,-1
 372 2606 l 1,4,-1
 372 2978 l 1,5,-1
 2606 2978 l 1,6,-1
 2606 2606 l 1,7,-1
 1861 2606 l 1,8,-1
 1861 372 l 1,9,-1
 2606 372 l 1,10,-1
 2606 0 l 1,11,-1
 372 0 l 1,0,-1
EndSplineSet
EndChar

StartChar: J
Encoding: 74 74 45
Width: 3165
GlyphClass: 2
Flags: W
LayerCount: 2
Fore
SplineSet
744 0 m 1,0,-1
 744 372 l 1,1,-1
 372 372 l 1,2,-1
 372 1117 l 1,3,-1
 1117 1117 l 1,4,-1
 1117 372 l 1,5,-1
 2234 372 l 1,6,-1
 2234 2606 l 1,7,-1
 1117 2606 l 1,8,-1
 1117 2978 l 1,9,-1
 2978 2978 l 1,10,-1
 2978 372 l 1,11,-1
 2606 372 l 1,12,-1
 2606 0 l 1,13,-1
 744 0 l 1,0,-1
EndSplineSet
EndChar

StartChar: K
Encoding: 75 75 46
Width: 3165
GlyphClass: 2
Flags: W
LayerCount: 2
Fore
SplineSet
372 0 m 1,0,-1
 372 2978 l 1,1,-1
 1117 2978 l 1,2,-1
 1117 1861 l 1,3,-1
 1489 1861 l 1,4,-1
 1489 2234 l 1,5,-1
 1861 2234 l 1,6,-1
 1861 2606 l 1,7,-1
 2234 2606 l 1,8,-1
 2234 2978 l 1,9,-1
 2978 2978 l 1,10,-1
 2978 2606 l 1,11,-1
 2606 2606 l 1,12,-1
 2606 2234 l 1,13,-1
 2234 2234 l 1,14,-1
 2234 1861 l 1,15,-1
 1861 1861 l 1,16,-1
 1861 1489 l 1,17,-1
 2234 1489 l 1,18,-1
 2234 1117 l 1,19,-1
 2606 1117 l 1,20,-1
 2606 744 l 1,21,-1
 2978 744 l 1,22,-1
 2978 0 l 1,23,-1
 2234 0 l 1,24,-1
 2234 744 l 1,25,-1
 1861 744 l 1,26,-1
 1861 1117 l 1,27,-1
 1489 1117 l 1,28,-1
 1489 1489 l 1,29,-1
 1117 1489 l 1,30,-1
 1117 0 l 1,31,-1
 372 0 l 1,0,-1
EndSplineSet
EndChar

StartChar: L
Encoding: 76 76 47
Width: 2792
GlyphClass: 2
Flags: W
LayerCount: 2
Fore
SplineSet
372 0 m 1,0,-1
 372 2978 l 1,1,-1
 1117 2978 l 1,2,-1
 1117 372 l 1,3,-1
 2606 372 l 1,4,-1
 2606 0 l 1,5,-1
 372 0 l 1,0,-1
EndSplineSet
EndChar

StartChar: M
Encoding: 77 77 48
Width: 3165
GlyphClass: 2
Flags: W
LayerCount: 2
Fore
SplineSet
372 0 m 1,0,-1
 372 2978 l 1,1,-1
 744 2978 l 1,2,-1
 744 2606 l 1,3,-1
 1117 2606 l 1,4,-1
 1117 2234 l 1,5,-1
 1489 2234 l 1,6,-1
 1489 1861 l 1,7,-1
 1861 1861 l 1,8,-1
 1861 2234 l 1,9,-1
 2234 2234 l 1,10,-1
 2234 2606 l 1,11,-1
 2606 2606 l 1,12,-1
 2606 2978 l 1,13,-1
 2978 2978 l 1,14,-1
 2978 0 l 1,15,-1
 2234 0 l 1,16,-1
 2234 1489 l 1,17,-1
 1861 1489 l 1,18,-1
 1861 1117 l 1,19,-1
 1489 1117 l 1,20,-1
 1489 1489 l 1,21,-1
 1117 1489 l 1,22,-1
 1117 0 l 1,23,-1
 372 0 l 1,0,-1
EndSplineSet
EndChar

StartChar: N
Encoding: 78 78 49
Width: 3165
GlyphClass: 2
Flags: W
LayerCount: 2
Fore
SplineSet
372 0 m 1,0,-1
 372 2978 l 1,1,-1
 744 2978 l 1,2,-1
 744 2606 l 1,3,-1
 1117 2606 l 1,4,-1
 1117 2234 l 1,5,-1
 1489 2234 l 1,6,-1
 1489 1861 l 1,7,-1
 1861 1861 l 1,8,-1
 1861 1489 l 1,9,-1
 2234 1489 l 1,10,-1
 2234 2978 l 1,11,-1
 2978 2978 l 1,12,-1
 2978 0 l 1,13,-1
 2606 0 l 1,14,-1
 2606 372 l 1,15,-1
 2234 372 l 1,16,-1
 2234 744 l 1,17,-1
 1861 744 l 1,18,-1
 1861 1117 l 1,19,-1
 1489 1117 l 1,20,-1
 1489 1489 l 1,21,-1
 1117 1489 l 1,22,-1
 1117 0 l 1,23,-1
 372 0 l 1,0,-1
EndSplineSet
EndChar

StartChar: O
Encoding: 79 79 50
Width: 3165
GlyphClass: 2
Flags: W
LayerCount: 2
Fore
SplineSet
2234 372 m 1,0,-1
 2234 2606 l 1,1,-1
 1117 2606 l 1,2,-1
 1117 372 l 1,3,-1
 2234 372 l 1,0,-1
744 0 m 1,4,-1
 744 372 l 1,5,-1
 372 372 l 1,6,-1
 372 2606 l 1,7,-1
 744 2606 l 1,8,-1
 744 2978 l 1,9,-1
 2606 2978 l 1,10,-1
 2606 2606 l 1,11,-1
 2978 2606 l 1,12,-1
 2978 372 l 1,13,-1
 2606 372 l 1,14,-1
 2606 0 l 1,15,-1
 744 0 l 1,4,-1
EndSplineSet
EndChar

StartChar: P
Encoding: 80 80 51
Width: 3165
GlyphClass: 2
Flags: W
LayerCount: 2
Fore
SplineSet
2234 1861 m 1,0,-1
 2234 2606 l 1,1,-1
 1117 2606 l 1,2,-1
 1117 1861 l 1,3,-1
 2234 1861 l 1,0,-1
372 0 m 1,4,-1
 372 2978 l 1,5,-1
 2606 2978 l 1,6,-1
 2606 2606 l 1,7,-1
 2978 2606 l 1,8,-1
 2978 1861 l 1,9,-1
 2606 1861 l 1,10,-1
 2606 1489 l 1,11,-1
 1117 1489 l 1,12,-1
 1117 0 l 1,13,-1
 372 0 l 1,4,-1
EndSplineSet
EndChar

StartChar: Q
Encoding: 81 81 52
Width: 3165
GlyphClass: 2
Flags: W
LayerCount: 2
Fore
SplineSet
2606 0 m 1,0,-1
 2606 372 l 1,1,-1
 2978 372 l 1,2,-1
 2978 0 l 1,3,-1
 2606 0 l 1,0,-1
1861 372 m 1,4,-1
 1861 744 l 1,5,-1
 1489 744 l 1,6,-1
 1489 1117 l 1,7,-1
 2234 1117 l 1,8,-1
 2234 2606 l 1,9,-1
 1117 2606 l 1,10,-1
 1117 372 l 1,11,-1
 1861 372 l 1,4,-1
744 0 m 1,12,-1
 744 372 l 1,13,-1
 372 372 l 1,14,-1
 372 2606 l 1,15,-1
 744 2606 l 1,16,-1
 744 2978 l 1,17,-1
 2606 2978 l 1,18,-1
 2606 2606 l 1,19,-1
 2978 2606 l 1,20,-1
 2978 744 l 1,21,-1
 2606 744 l 1,22,-1
 2606 372 l 1,23,-1
 2234 372 l 1,24,-1
 2234 0 l 1,25,-1
 744 0 l 1,12,-1
EndSplineSet
EndChar

StartChar: R
Encoding: 82 82 53
Width: 3165
GlyphClass: 2
Flags: W
LayerCount: 2
Fore
SplineSet
2234 1861 m 1,0,-1
 2234 2606 l 1,1,-1
 1117 2606 l 1,2,-1
 1117 1861 l 1,3,-1
 2234 1861 l 1,0,-1
372 0 m 1,4,-1
 372 2978 l 1,5,-1
 2606 2978 l 1,6,-1
 2606 2606 l 1,7,-1
 2978 2606 l 1,8,-1
 2978 1861 l 1,9,-1
 2606 1861 l 1,10,-1
 2606 1489 l 1,11,-1
 2978 1489 l 1,12,-1
 2978 0 l 1,13,-1
 2234 0 l 1,14,-1
 2234 1489 l 1,15,-1
 1117 1489 l 1,16,-1
 1117 0 l 1,17,-1
 372 0 l 1,4,-1
EndSplineSet
EndChar

StartChar: S
Encoding: 83 83 54
Width: 3165
GlyphClass: 2
Flags: W
LayerCount: 2
Fore
SplineSet
744 0 m 1,0,-1
 744 372 l 1,1,-1
 372 372 l 1,2,-1
 372 744 l 1,3,-1
 1117 744 l 1,4,-1
 1117 372 l 1,5,-1
 2234 372 l 1,6,-1
 2234 1489 l 1,7,-1
 744 1489 l 1,8,-1
 744 1861 l 1,9,-1
 372 1861 l 1,10,-1
 372 2606 l 1,11,-1
 744 2606 l 1,12,-1
 744 2978 l 1,13,-1
 2606 2978 l 1,14,-1
 2606 2606 l 1,15,-1
 2978 2606 l 1,16,-1
 2978 2234 l 1,17,-1
 2234 2234 l 1,18,-1
 2234 2606 l 1,19,-1
 1117 2606 l 1,20,-1
 1117 1861 l 1,21,-1
 2606 1861 l 1,22,-1
 2606 1489 l 1,23,-1
 2978 1489 l 1,24,-1
 2978 372 l 1,25,-1
 2606 372 l 1,26,-1
 2606 0 l 1,27,-1
 744 0 l 1,0,-1
EndSplineSet
EndChar

StartChar: T
Encoding: 84 84 55
Width: 3165
GlyphClass: 2
Flags: W
LayerCount: 2
Fore
SplineSet
1303 0 m 1,0,-1
 1303 2606 l 1,1,-1
 372 2606 l 1,2,-1
 372 2978 l 1,3,-1
 2978 2978 l 1,4,-1
 2978 2606 l 1,5,-1
 2048 2606 l 1,6,-1
 2048 0 l 1,7,-1
 1303 0 l 1,0,-1
EndSplineSet
EndChar

StartChar: U
Encoding: 85 85 56
Width: 3165
GlyphClass: 2
Flags: W
LayerCount: 2
Fore
SplineSet
744 0 m 1,0,-1
 744 372 l 1,1,-1
 372 372 l 1,2,-1
 372 2978 l 1,3,-1
 1117 2978 l 1,4,-1
 1117 372 l 1,5,-1
 2234 372 l 1,6,-1
 2234 2978 l 1,7,-1
 2978 2978 l 1,8,-1
 2978 372 l 1,9,-1
 2606 372 l 1,10,-1
 2606 0 l 1,11,-1
 744 0 l 1,0,-1
EndSplineSet
EndChar

StartChar: V
Encoding: 86 86 57
Width: 3165
GlyphClass: 2
Flags: W
LayerCount: 2
Fore
SplineSet
1489 0 m 1,0,-1
 1489 372 l 1,1,-1
 1117 372 l 1,2,-1
 1117 744 l 1,3,-1
 744 744 l 1,4,-1
 744 1117 l 1,5,-1
 372 1117 l 1,6,-1
 372 2978 l 1,7,-1
 1117 2978 l 1,8,-1
 1117 1117 l 1,9,-1
 1489 1117 l 1,10,-1
 1489 744 l 1,11,-1
 1861 744 l 1,12,-1
 1861 1117 l 1,13,-1
 2234 1117 l 1,14,-1
 2234 2978 l 1,15,-1
 2978 2978 l 1,16,-1
 2978 1117 l 1,17,-1
 2606 1117 l 1,18,-1
 2606 744 l 1,19,-1
 2234 744 l 1,20,-1
 2234 372 l 1,21,-1
 1861 372 l 1,22,-1
 1861 0 l 1,23,-1
 1489 0 l 1,0,-1
EndSplineSet
EndChar

StartChar: W
Encoding: 87 87 58
Width: 3537
GlyphClass: 2
Flags: W
LayerCount: 2
Fore
SplineSet
744 0 m 1,0,-1
 744 372 l 1,1,-1
 372 372 l 1,2,-1
 372 2978 l 1,3,-1
 1117 2978 l 1,4,-1
 1117 1117 l 1,5,-1
 1675 1117 l 1,6,-1
 1675 2978 l 1,7,-1
 2048 2978 l 1,8,-1
 2048 1117 l 1,9,-1
 2606 1117 l 1,10,-1
 2606 2978 l 1,11,-1
 3351 2978 l 1,12,-1
 3351 372 l 1,13,-1
 2978 372 l 1,14,-1
 2978 0 l 1,15,-1
 2606 0 l 1,16,-1
 2606 372 l 1,17,-1
 2234 372 l 1,18,-1
 2234 744 l 1,19,-1
 1489 744 l 1,20,-1
 1489 372 l 1,21,-1
 1117 372 l 1,22,-1
 1117 0 l 1,23,-1
 744 0 l 1,0,-1
EndSplineSet
EndChar

StartChar: X
Encoding: 88 88 59
Width: 3165
GlyphClass: 2
Flags: W
LayerCount: 2
Fore
SplineSet
372 0 m 1,0,-1
 372 1117 l 1,1,-1
 744 1117 l 1,2,-1
 744 1489 l 1,3,-1
 1117 1489 l 1,4,-1
 1117 1861 l 1,5,-1
 744 1861 l 1,6,-1
 744 2234 l 1,7,-1
 372 2234 l 1,8,-1
 372 2978 l 1,9,-1
 1117 2978 l 1,10,-1
 1117 2234 l 1,11,-1
 1489 2234 l 1,12,-1
 1489 1861 l 1,13,-1
 1861 1861 l 1,14,-1
 1861 2234 l 1,15,-1
 2234 2234 l 1,16,-1
 2234 2978 l 1,17,-1
 2978 2978 l 1,18,-1
 2978 2234 l 1,19,-1
 2606 2234 l 1,20,-1
 2606 1861 l 1,21,-1
 2234 1861 l 1,22,-1
 2234 1489 l 1,23,-1
 2606 1489 l 1,24,-1
 2606 1117 l 1,25,-1
 2978 1117 l 1,26,-1
 2978 0 l 1,27,-1
 2234 0 l 1,28,-1
 2234 1117 l 1,29,-1
 1861 1117 l 1,30,-1
 1861 1489 l 1,31,-1
 1489 1489 l 1,32,-1
 1489 1117 l 1,33,-1
 1117 1117 l 1,34,-1
 1117 0 l 1,35,-1
 372 0 l 1,0,-1
EndSplineSet
EndChar

StartChar: Y
Encoding: 89 89 60
Width: 3165
GlyphClass: 2
Flags: W
LayerCount: 2
Fore
SplineSet
1303 0 m 1,0,-1
 1303 1117 l 1,1,-1
 1117 1117 l 1,2,-1
 1117 1489 l 1,3,-1
 744 1489 l 1,4,-1
 744 1861 l 1,5,-1
 372 1861 l 1,6,-1
 372 2978 l 1,7,-1
 1117 2978 l 1,8,-1
 1117 1861 l 1,9,-1
 1489 1861 l 1,10,-1
 1489 1489 l 1,11,-1
 1861 1489 l 1,12,-1
 1861 1861 l 1,13,-1
 2234 1861 l 1,14,-1
 2234 2978 l 1,15,-1
 2978 2978 l 1,16,-1
 2978 1861 l 1,17,-1
 2606 1861 l 1,18,-1
 2606 1489 l 1,19,-1
 2234 1489 l 1,20,-1
 2234 1117 l 1,21,-1
 2048 1117 l 1,22,-1
 2048 0 l 1,23,-1
 1303 0 l 1,0,-1
EndSplineSet
EndChar

StartChar: Z
Encoding: 90 90 61
Width: 3165
GlyphClass: 2
Flags: W
LayerCount: 2
Fore
SplineSet
372 0 m 1,0,-1
 372 744 l 1,1,-1
 744 744 l 1,2,-1
 744 1117 l 1,3,-1
 1117 1117 l 1,4,-1
 1117 1489 l 1,5,-1
 1489 1489 l 1,6,-1
 1489 1861 l 1,7,-1
 1861 1861 l 1,8,-1
 1861 2234 l 1,9,-1
 2234 2234 l 1,10,-1
 2234 2606 l 1,11,-1
 372 2606 l 1,12,-1
 372 2978 l 1,13,-1
 2978 2978 l 1,14,-1
 2978 2234 l 1,15,-1
 2606 2234 l 1,16,-1
 2606 1861 l 1,17,-1
 2234 1861 l 1,18,-1
 2234 1489 l 1,19,-1
 1861 1489 l 1,20,-1
 1861 1117 l 1,21,-1
 1489 1117 l 1,22,-1
 1489 744 l 1,23,-1
 1117 744 l 1,24,-1
 1117 372 l 1,25,-1
 2978 372 l 1,26,-1
 2978 0 l 1,27,-1
 372 0 l 1,0,-1
EndSplineSet
EndChar

StartChar: bracketleft
Encoding: 91 91 62
Width: 2048
GlyphClass: 2
Flags: W
LayerCount: 2
Fore
SplineSet
372 0 m 1,0,-1
 372 2978 l 1,1,-1
 1861 2978 l 1,2,-1
 1861 2606 l 1,3,-1
 1117 2606 l 1,4,-1
 1117 372 l 1,5,-1
 1861 372 l 1,6,-1
 1861 0 l 1,7,-1
 372 0 l 1,0,-1
EndSplineSet
EndChar

StartChar: backslash
Encoding: 92 92 63
Width: 3165
GlyphClass: 2
Flags: W
LayerCount: 2
Fore
SplineSet
2234 0 m 1,0,-1
 2234 744 l 1,1,-1
 1861 744 l 1,2,-1
 1861 1117 l 1,3,-1
 1489 1117 l 1,4,-1
 1489 1489 l 1,5,-1
 1117 1489 l 1,6,-1
 1117 1861 l 1,7,-1
 744 1861 l 1,8,-1
 744 2234 l 1,9,-1
 372 2234 l 1,10,-1
 372 2978 l 1,11,-1
 1117 2978 l 1,12,-1
 1117 2234 l 1,13,-1
 1489 2234 l 1,14,-1
 1489 1861 l 1,15,-1
 1861 1861 l 1,16,-1
 1861 1489 l 1,17,-1
 2234 1489 l 1,18,-1
 2234 1117 l 1,19,-1
 2606 1117 l 1,20,-1
 2606 744 l 1,21,-1
 2978 744 l 1,22,-1
 2978 0 l 1,23,-1
 2234 0 l 1,0,-1
EndSplineSet
EndChar

StartChar: bracketright
Encoding: 93 93 64
Width: 2048
GlyphClass: 2
Flags: W
LayerCount: 2
Fore
SplineSet
372 0 m 1,0,-1
 372 372 l 1,1,-1
 1117 372 l 1,2,-1
 1117 2606 l 1,3,-1
 372 2606 l 1,4,-1
 372 2978 l 1,5,-1
 1861 2978 l 1,6,-1
 1861 0 l 1,7,-1
 372 0 l 1,0,-1
EndSplineSet
EndChar

StartChar: asciicircum
Encoding: 94 94 65
Width: 3165
GlyphClass: 2
Flags: W
LayerCount: 2
Fore
SplineSet
372 1861 m 1,0,-1
 372 2234 l 1,1,-1
 744 2234 l 1,2,-1
 744 2606 l 1,3,-1
 1117 2606 l 1,4,-1
 1117 2978 l 1,5,-1
 2234 2978 l 1,6,-1
 2234 2606 l 1,7,-1
 2606 2606 l 1,8,-1
 2606 2234 l 1,9,-1
 2978 2234 l 1,10,-1
 2978 1861 l 1,11,-1
 2234 1861 l 1,12,-1
 2234 2234 l 1,13,-1
 1861 2234 l 1,14,-1
 1861 2606 l 1,15,-1
 1489 2606 l 1,16,-1
 1489 2234 l 1,17,-1
 1117 2234 l 1,18,-1
 1117 1861 l 1,19,-1
 372 1861 l 1,0,-1
EndSplineSet
EndChar

StartChar: underscore
Encoding: 95 95 66
Width: 2420
GlyphClass: 2
Flags: W
LayerCount: 2
Fore
SplineSet
372 0 m 1,0,-1
 372 372 l 1,1,-1
 2234 372 l 1,2,-1
 2234 0 l 1,3,-1
 372 0 l 1,0,-1
EndSplineSet
EndChar

StartChar: grave
Encoding: 96 96 67
Width: 2048
GlyphClass: 2
Flags: W
LayerCount: 2
Fore
SplineSet
1117 1861 m 1,0,-1
 1117 2234 l 1,1,-1
 744 2234 l 1,2,-1
 744 2606 l 1,3,-1
 372 2606 l 1,4,-1
 372 2978 l 1,5,-1
 1117 2978 l 1,6,-1
 1117 2606 l 1,7,-1
 1489 2606 l 1,8,-1
 1489 2234 l 1,9,-1
 1861 2234 l 1,10,-1
 1861 1861 l 1,11,-1
 1117 1861 l 1,0,-1
EndSplineSet
EndChar

StartChar: a
Encoding: 97 97 68
Width: 3165
GlyphClass: 2
Flags: W
LayerCount: 2
Fore
SplineSet
2234 372 m 1,0,-1
 2234 744 l 1,1,-1
 1117 744 l 1,2,-1
 1117 372 l 1,3,-1
 2234 372 l 1,0,-1
744 0 m 1,4,-1
 744 372 l 1,5,-1
 372 372 l 1,6,-1
 372 744 l 1,7,-1
 744 744 l 1,8,-1
 744 1117 l 1,9,-1
 2234 1117 l 1,10,-1
 2234 1489 l 1,11,-1
 744 1489 l 1,12,-1
 744 1861 l 1,13,-1
 2606 1861 l 1,14,-1
 2606 1489 l 1,15,-1
 2978 1489 l 1,16,-1
 2978 0 l 1,17,-1
 744 0 l 1,4,-1
EndSplineSet
EndChar

StartChar: b
Encoding: 98 98 69
Width: 3165
GlyphClass: 2
Flags: W
LayerCount: 2
Fore
SplineSet
2234 372 m 1,0,-1
 2234 1489 l 1,1,-1
 1117 1489 l 1,2,-1
 1117 372 l 1,3,-1
 2234 372 l 1,0,-1
372 0 m 1,4,-1
 372 2978 l 1,5,-1
 1117 2978 l 1,6,-1
 1117 1861 l 1,7,-1
 2606 1861 l 1,8,-1
 2606 1489 l 1,9,-1
 2978 1489 l 1,10,-1
 2978 372 l 1,11,-1
 2606 372 l 1,12,-1
 2606 0 l 1,13,-1
 372 0 l 1,4,-1
EndSplineSet
EndChar

StartChar: c
Encoding: 99 99 70
Width: 3165
GlyphClass: 2
Flags: W
LayerCount: 2
Fore
SplineSet
744 0 m 1,0,-1
 744 372 l 1,1,-1
 372 372 l 1,2,-1
 372 1489 l 1,3,-1
 744 1489 l 1,4,-1
 744 1861 l 1,5,-1
 2606 1861 l 1,6,-1
 2606 1489 l 1,7,-1
 2978 1489 l 1,8,-1
 2978 1117 l 1,9,-1
 2234 1117 l 1,10,-1
 2234 1489 l 1,11,-1
 1117 1489 l 1,12,-1
 1117 372 l 1,13,-1
 2234 372 l 1,14,-1
 2234 744 l 1,15,-1
 2978 744 l 1,16,-1
 2978 372 l 1,17,-1
 2606 372 l 1,18,-1
 2606 0 l 1,19,-1
 744 0 l 1,0,-1
EndSplineSet
EndChar

StartChar: d
Encoding: 100 100 71
Width: 3165
GlyphClass: 2
Flags: W
LayerCount: 2
Fore
SplineSet
2234 372 m 1,0,-1
 2234 1489 l 1,1,-1
 1117 1489 l 1,2,-1
 1117 372 l 1,3,-1
 2234 372 l 1,0,-1
744 0 m 1,4,-1
 744 372 l 1,5,-1
 372 372 l 1,6,-1
 372 1489 l 1,7,-1
 744 1489 l 1,8,-1
 744 1861 l 1,9,-1
 2234 1861 l 1,10,-1
 2234 2978 l 1,11,-1
 2978 2978 l 1,12,-1
 2978 0 l 1,13,-1
 744 0 l 1,4,-1
EndSplineSet
EndChar

StartChar: e
Encoding: 101 101 72
Width: 3165
GlyphClass: 2
Flags: W
LayerCount: 2
Fore
SplineSet
2234 1117 m 1,0,-1
 2234 1489 l 1,1,-1
 1117 1489 l 1,2,-1
 1117 1117 l 1,3,-1
 2234 1117 l 1,0,-1
744 0 m 1,4,-1
 744 372 l 1,5,-1
 372 372 l 1,6,-1
 372 1489 l 1,7,-1
 744 1489 l 1,8,-1
 744 1861 l 1,9,-1
 2606 1861 l 1,10,-1
 2606 1489 l 1,11,-1
 2978 1489 l 1,12,-1
 2978 744 l 1,13,-1
 1117 744 l 1,14,-1
 1117 372 l 1,15,-1
 2606 372 l 1,16,-1
 2606 0 l 1,17,-1
 744 0 l 1,4,-1
EndSplineSet
EndChar

StartChar: f
Encoding: 102 102 73
Width: 2420
GlyphClass: 2
Flags: W
LayerCount: 2
Fore
SplineSet
744 0 m 1,0,-1
 744 1489 l 1,1,-1
 372 1489 l 1,2,-1
 372 1861 l 1,3,-1
 744 1861 l 1,4,-1
 744 2606 l 1,5,-1
 1117 2606 l 1,6,-1
 1117 2978 l 1,7,-1
 2234 2978 l 1,8,-1
 2234 2606 l 1,9,-1
 1489 2606 l 1,10,-1
 1489 1861 l 1,11,-1
 2234 1861 l 1,12,-1
 2234 1489 l 1,13,-1
 1489 1489 l 1,14,-1
 1489 0 l 1,15,-1
 744 0 l 1,0,-1
EndSplineSet
EndChar

StartChar: g
Encoding: 103 103 74
Width: 3165
GlyphClass: 2
Flags: W
LayerCount: 2
Fore
SplineSet
2234 372 m 1,0,-1
 2234 1489 l 1,1,-1
 1117 1489 l 1,2,-1
 1117 372 l 1,3,-1
 2234 372 l 1,0,-1
744 -1117 m 1,4,-1
 744 -744 l 1,5,-1
 2234 -744 l 1,6,-1
 2234 0 l 1,7,-1
 744 0 l 1,8,-1
 744 372 l 1,9,-1
 372 372 l 1,10,-1
 372 1489 l 1,11,-1
 744 1489 l 1,12,-1
 744 1861 l 1,13,-1
 2978 1861 l 1,14,-1
 2978 -744 l 1,15,-1
 2606 -744 l 1,16,-1
 2606 -1117 l 1,17,-1
 744 -1117 l 1,4,-1
EndSplineSet
EndChar

StartChar: h
Encoding: 104 104 75
Width: 3165
GlyphClass: 2
Flags: W
LayerCount: 2
Fore
SplineSet
372 0 m 1,0,-1
 372 2978 l 1,1,-1
 1117 2978 l 1,2,-1
 1117 1861 l 1,3,-1
 2606 1861 l 1,4,-1
 2606 1489 l 1,5,-1
 2978 1489 l 1,6,-1
 2978 0 l 1,7,-1
 2234 0 l 1,8,-1
 2234 1489 l 1,9,-1
 1117 1489 l 1,10,-1
 1117 0 l 1,11,-1
 372 0 l 1,0,-1
EndSplineSet
EndChar

StartChar: i
Encoding: 105 105 76
Width: 1303
GlyphClass: 2
Flags: W
LayerCount: 2
Fore
SplineSet
372 0 m 1,0,-1
 372 1861 l 1,1,-1
 1117 1861 l 1,2,-1
 1117 0 l 1,3,-1
 372 0 l 1,0,-1
372 2234 m 1,4,-1
 372 2978 l 1,5,-1
 1117 2978 l 1,6,-1
 1117 2234 l 1,7,-1
 372 2234 l 1,4,-1
EndSplineSet
EndChar

StartChar: j
Encoding: 106 106 77
Width: 2420
GlyphClass: 2
Flags: W
LayerCount: 2
Fore
SplineSet
744 -372 m 1,0,-1
 744 0 l 1,1,-1
 372 0 l 1,2,-1
 372 372 l 1,3,-1
 1117 372 l 1,4,-1
 1117 0 l 1,5,-1
 1489 0 l 1,6,-1
 1489 1861 l 1,7,-1
 2234 1861 l 1,8,-1
 2234 0 l 1,9,-1
 1861 0 l 1,10,-1
 1861 -372 l 1,11,-1
 744 -372 l 1,0,-1
1489 2234 m 1,12,-1
 1489 2978 l 1,13,-1
 2234 2978 l 1,14,-1
 2234 2234 l 1,15,-1
 1489 2234 l 1,12,-1
EndSplineSet
EndChar

StartChar: k
Encoding: 107 107 78
Width: 2792
GlyphClass: 2
Flags: W
LayerCount: 2
Fore
SplineSet
372 0 m 1,0,-1
 372 2978 l 1,1,-1
 1117 2978 l 1,2,-1
 1117 1117 l 1,3,-1
 1489 1117 l 1,4,-1
 1489 1489 l 1,5,-1
 1861 1489 l 1,6,-1
 1861 1861 l 1,7,-1
 2606 1861 l 1,8,-1
 2606 1489 l 1,9,-1
 2234 1489 l 1,10,-1
 2234 1117 l 1,11,-1
 1861 1117 l 1,12,-1
 1861 744 l 1,13,-1
 2234 744 l 1,14,-1
 2234 372 l 1,15,-1
 2606 372 l 1,16,-1
 2606 0 l 1,17,-1
 1861 0 l 1,18,-1
 1861 372 l 1,19,-1
 1489 372 l 1,20,-1
 1489 744 l 1,21,-1
 1117 744 l 1,22,-1
 1117 0 l 1,23,-1
 372 0 l 1,0,-1
EndSplineSet
EndChar

StartChar: l
Encoding: 108 108 79
Width: 1675
GlyphClass: 2
Flags: W
LayerCount: 2
Fore
SplineSet
744 0 m 1,0,-1
 744 372 l 1,1,-1
 372 372 l 1,2,-1
 372 2978 l 1,3,-1
 1117 2978 l 1,4,-1
 1117 372 l 1,5,-1
 1489 372 l 1,6,-1
 1489 0 l 1,7,-1
 744 0 l 1,0,-1
EndSplineSet
EndChar

StartChar: m
Encoding: 109 109 80
Width: 3165
GlyphClass: 2
Flags: W
LayerCount: 2
Fore
SplineSet
372 0 m 1,0,-1
 372 1861 l 1,1,-1
 2606 1861 l 1,2,-1
 2606 1489 l 1,3,-1
 2978 1489 l 1,4,-1
 2978 0 l 1,5,-1
 2234 0 l 1,6,-1
 2234 1489 l 1,7,-1
 1861 1489 l 1,8,-1
 1861 0 l 1,9,-1
 1489 0 l 1,10,-1
 1489 1489 l 1,11,-1
 1117 1489 l 1,12,-1
 1117 0 l 1,13,-1
 372 0 l 1,0,-1
EndSplineSet
EndChar

StartChar: n
Encoding: 110 110 81
Width: 3165
GlyphClass: 2
Flags: W
LayerCount: 2
Fore
SplineSet
372 0 m 1,0,-1
 372 1861 l 1,1,-1
 2606 1861 l 1,2,-1
 2606 1489 l 1,3,-1
 2978 1489 l 1,4,-1
 2978 0 l 1,5,-1
 2234 0 l 1,6,-1
 2234 1489 l 1,7,-1
 1117 1489 l 1,8,-1
 1117 0 l 1,9,-1
 372 0 l 1,0,-1
EndSplineSet
EndChar

StartChar: o
Encoding: 111 111 82
Width: 3165
GlyphClass: 2
Flags: W
LayerCount: 2
Fore
SplineSet
2234 372 m 1,0,-1
 2234 1489 l 1,1,-1
 1117 1489 l 1,2,-1
 1117 372 l 1,3,-1
 2234 372 l 1,0,-1
744 0 m 1,4,-1
 744 372 l 1,5,-1
 372 372 l 1,6,-1
 372 1489 l 1,7,-1
 744 1489 l 1,8,-1
 744 1861 l 1,9,-1
 2606 1861 l 1,10,-1
 2606 1489 l 1,11,-1
 2978 1489 l 1,12,-1
 2978 372 l 1,13,-1
 2606 372 l 1,14,-1
 2606 0 l 1,15,-1
 744 0 l 1,4,-1
EndSplineSet
EndChar

StartChar: p
Encoding: 112 112 83
Width: 3165
GlyphClass: 2
Flags: W
LayerCount: 2
Fore
SplineSet
2234 372 m 1,0,-1
 2234 1489 l 1,1,-1
 1117 1489 l 1,2,-1
 1117 372 l 1,3,-1
 2234 372 l 1,0,-1
372 -1117 m 1,4,-1
 372 1861 l 1,5,-1
 2606 1861 l 1,6,-1
 2606 1489 l 1,7,-1
 2978 1489 l 1,8,-1
 2978 372 l 1,9,-1
 2606 372 l 1,10,-1
 2606 0 l 1,11,-1
 1117 0 l 1,12,-1
 1117 -1117 l 1,13,-1
 372 -1117 l 1,4,-1
EndSplineSet
EndChar

StartChar: q
Encoding: 113 113 84
Width: 3165
GlyphClass: 2
Flags: W
LayerCount: 2
Fore
SplineSet
2234 372 m 1,0,-1
 2234 1489 l 1,1,-1
 1117 1489 l 1,2,-1
 1117 372 l 1,3,-1
 2234 372 l 1,0,-1
2234 -1117 m 1,4,-1
 2234 0 l 1,5,-1
 744 0 l 1,6,-1
 744 372 l 1,7,-1
 372 372 l 1,8,-1
 372 1489 l 1,9,-1
 744 1489 l 1,10,-1
 744 1861 l 1,11,-1
 2978 1861 l 1,12,-1
 2978 -1117 l 1,13,-1
 2234 -1117 l 1,4,-1
EndSplineSet
EndChar

StartChar: r
Encoding: 114 114 85
Width: 2792
GlyphClass: 2
Flags: W
LayerCount: 2
Fore
SplineSet
372 0 m 1,0,-1
 372 1861 l 1,1,-1
 1117 1861 l 1,2,-1
 1117 1489 l 1,3,-1
 1489 1489 l 1,4,-1
 1489 1117 l 1,5,-1
 1117 1117 l 1,6,-1
 1117 0 l 1,7,-1
 372 0 l 1,0,-1
1489 1489 m 1,8,-1
 1489 1861 l 1,9,-1
 2606 1861 l 1,10,-1
 2606 1489 l 1,11,-1
 1489 1489 l 1,8,-1
EndSplineSet
EndChar

StartChar: s
Encoding: 115 115 86
Width: 3165
GlyphClass: 2
Flags: W
LayerCount: 2
Fore
SplineSet
372 0 m 1,0,-1
 372 372 l 1,1,-1
 2234 372 l 1,2,-1
 2234 744 l 1,3,-1
 744 744 l 1,4,-1
 744 1117 l 1,5,-1
 372 1117 l 1,6,-1
 372 1489 l 1,7,-1
 744 1489 l 1,8,-1
 744 1861 l 1,9,-1
 2606 1861 l 1,10,-1
 2606 1489 l 1,11,-1
 1117 1489 l 1,12,-1
 1117 1117 l 1,13,-1
 2606 1117 l 1,14,-1
 2606 744 l 1,15,-1
 2978 744 l 1,16,-1
 2978 372 l 1,17,-1
 2606 372 l 1,18,-1
 2606 0 l 1,19,-1
 372 0 l 1,0,-1
EndSplineSet
EndChar

StartChar: t
Encoding: 116 116 87
Width: 2420
GlyphClass: 2
Flags: W
LayerCount: 2
Fore
SplineSet
1117 0 m 1,0,-1
 1117 372 l 1,1,-1
 744 372 l 1,2,-1
 744 1489 l 1,3,-1
 372 1489 l 1,4,-1
 372 1861 l 1,5,-1
 744 1861 l 1,6,-1
 744 2978 l 1,7,-1
 1489 2978 l 1,8,-1
 1489 1861 l 1,9,-1
 2234 1861 l 1,10,-1
 2234 1489 l 1,11,-1
 1489 1489 l 1,12,-1
 1489 372 l 1,13,-1
 2234 372 l 1,14,-1
 2234 0 l 1,15,-1
 1117 0 l 1,0,-1
EndSplineSet
EndChar

StartChar: u
Encoding: 117 117 88
Width: 3165
GlyphClass: 2
Flags: W
LayerCount: 2
Fore
SplineSet
744 0 m 1,0,-1
 744 372 l 1,1,-1
 372 372 l 1,2,-1
 372 1861 l 1,3,-1
 1117 1861 l 1,4,-1
 1117 372 l 1,5,-1
 2234 372 l 1,6,-1
 2234 1861 l 1,7,-1
 2978 1861 l 1,8,-1
 2978 372 l 1,9,-1
 2606 372 l 1,10,-1
 2606 0 l 1,11,-1
 744 0 l 1,0,-1
EndSplineSet
EndChar

StartChar: v
Encoding: 118 118 89
Width: 3165
GlyphClass: 2
Flags: W
LayerCount: 2
Fore
SplineSet
1117 0 m 1,0,-1
 1117 372 l 1,1,-1
 744 372 l 1,2,-1
 744 744 l 1,3,-1
 372 744 l 1,4,-1
 372 1861 l 1,5,-1
 1117 1861 l 1,6,-1
 1117 744 l 1,7,-1
 1489 744 l 1,8,-1
 1489 372 l 1,9,-1
 1861 372 l 1,10,-1
 1861 744 l 1,11,-1
 2234 744 l 1,12,-1
 2234 1861 l 1,13,-1
 2978 1861 l 1,14,-1
 2978 744 l 1,15,-1
 2606 744 l 1,16,-1
 2606 372 l 1,17,-1
 2234 372 l 1,18,-1
 2234 0 l 1,19,-1
 1117 0 l 1,0,-1
EndSplineSet
EndChar

StartChar: w
Encoding: 119 119 90
Width: 3165
GlyphClass: 2
Flags: W
LayerCount: 2
Fore
SplineSet
744 0 m 1,0,-1
 744 372 l 1,1,-1
 372 372 l 1,2,-1
 372 1861 l 1,3,-1
 1117 1861 l 1,4,-1
 1117 372 l 1,5,-1
 1489 372 l 1,6,-1
 1489 0 l 1,7,-1
 744 0 l 1,0,-1
1489 372 m 1,8,-1
 1489 1861 l 1,9,-1
 1861 1861 l 1,10,-1
 1861 372 l 1,11,-1
 1489 372 l 1,8,-1
1861 0 m 1,12,-1
 1861 372 l 1,13,-1
 2234 372 l 1,14,-1
 2234 1861 l 1,15,-1
 2978 1861 l 1,16,-1
 2978 372 l 1,17,-1
 2606 372 l 1,18,-1
 2606 0 l 1,19,-1
 1861 0 l 1,12,-1
EndSplineSet
EndChar

StartChar: x
Encoding: 120 120 91
Width: 3165
GlyphClass: 2
Flags: W
LayerCount: 2
Fore
SplineSet
372 0 m 1,0,-1
 372 372 l 1,1,-1
 744 372 l 1,2,-1
 744 744 l 1,3,-1
 1117 744 l 1,4,-1
 1117 1117 l 1,5,-1
 744 1117 l 1,6,-1
 744 1489 l 1,7,-1
 372 1489 l 1,8,-1
 372 1861 l 1,9,-1
 1117 1861 l 1,10,-1
 1117 1489 l 1,11,-1
 1489 1489 l 1,12,-1
 1489 1303 l 1,13,-1
 1861 1303 l 1,14,-1
 1861 1489 l 1,15,-1
 2234 1489 l 1,16,-1
 2234 1861 l 1,17,-1
 2978 1861 l 1,18,-1
 2978 1489 l 1,19,-1
 2606 1489 l 1,20,-1
 2606 1117 l 1,21,-1
 2234 1117 l 1,22,-1
 2234 744 l 1,23,-1
 2606 744 l 1,24,-1
 2606 372 l 1,25,-1
 2978 372 l 1,26,-1
 2978 0 l 1,27,-1
 2234 0 l 1,28,-1
 2234 372 l 1,29,-1
 1861 372 l 1,30,-1
 1861 558 l 1,31,-1
 1489 558 l 1,32,-1
 1489 372 l 1,33,-1
 1117 372 l 1,34,-1
 1117 0 l 1,35,-1
 372 0 l 1,0,-1
EndSplineSet
EndChar

StartChar: y
Encoding: 121 121 92
Width: 3165
GlyphClass: 2
Flags: W
LayerCount: 2
Fore
SplineSet
744 -1117 m 1,0,-1
 744 -744 l 1,1,-1
 2234 -744 l 1,2,-1
 2234 0 l 1,3,-1
 744 0 l 1,4,-1
 744 372 l 1,5,-1
 372 372 l 1,6,-1
 372 1861 l 1,7,-1
 1117 1861 l 1,8,-1
 1117 372 l 1,9,-1
 2234 372 l 1,10,-1
 2234 1861 l 1,11,-1
 2978 1861 l 1,12,-1
 2978 -744 l 1,13,-1
 2606 -744 l 1,14,-1
 2606 -1117 l 1,15,-1
 744 -1117 l 1,0,-1
EndSplineSet
EndChar

StartChar: z
Encoding: 122 122 93
Width: 3165
GlyphClass: 2
Flags: W
LayerCount: 2
Fore
SplineSet
372 0 m 1,0,-1
 372 372 l 1,1,-1
 744 372 l 1,2,-1
 744 744 l 1,3,-1
 1117 744 l 1,4,-1
 1117 1117 l 1,5,-1
 1489 1117 l 1,6,-1
 1489 1489 l 1,7,-1
 372 1489 l 1,8,-1
 372 1861 l 1,9,-1
 2978 1861 l 1,10,-1
 2978 1489 l 1,11,-1
 2606 1489 l 1,12,-1
 2606 1117 l 1,13,-1
 2234 1117 l 1,14,-1
 2234 744 l 1,15,-1
 1861 744 l 1,16,-1
 1861 372 l 1,17,-1
 2978 372 l 1,18,-1
 2978 0 l 1,19,-1
 372 0 l 1,0,-1
EndSplineSet
EndChar

StartChar: braceleft
Encoding: 123 123 94
Width: 2048
GlyphClass: 2
Flags: W
LayerCount: 2
Fore
SplineSet
1117 0 m 1,0,-1
 1117 372 l 1,1,-1
 744 372 l 1,2,-1
 744 1303 l 1,3,-1
 372 1303 l 1,4,-1
 372 1675 l 1,5,-1
 744 1675 l 1,6,-1
 744 2606 l 1,7,-1
 1117 2606 l 1,8,-1
 1117 2978 l 1,9,-1
 1861 2978 l 1,10,-1
 1861 2606 l 1,11,-1
 1489 2606 l 1,12,-1
 1489 1675 l 1,13,-1
 1117 1675 l 1,14,-1
 1117 1303 l 1,15,-1
 1489 1303 l 1,16,-1
 1489 372 l 1,17,-1
 1861 372 l 1,18,-1
 1861 0 l 1,19,-1
 1117 0 l 1,0,-1
EndSplineSet
EndChar

StartChar: bar
Encoding: 124 124 95
Width: 1303
GlyphClass: 2
Flags: W
LayerCount: 2
Fore
SplineSet
409 -626 m 5,0,-1
 409 3096 l 5,1,-1
 1154 3096 l 5,2,-1
 1154 -626 l 5,3,-1
 409 -626 l 5,0,-1
EndSplineSet
EndChar

StartChar: braceright
Encoding: 125 125 96
Width: 2048
GlyphClass: 2
Flags: W
LayerCount: 2
Fore
SplineSet
372 0 m 1,0,-1
 372 372 l 1,1,-1
 744 372 l 1,2,-1
 744 1303 l 1,3,-1
 1117 1303 l 1,4,-1
 1117 1675 l 1,5,-1
 744 1675 l 1,6,-1
 744 2606 l 1,7,-1
 372 2606 l 1,8,-1
 372 2978 l 1,9,-1
 1117 2978 l 1,10,-1
 1117 2606 l 1,11,-1
 1489 2606 l 1,12,-1
 1489 1675 l 1,13,-1
 1861 1675 l 1,14,-1
 1861 1303 l 1,15,-1
 1489 1303 l 1,16,-1
 1489 372 l 1,17,-1
 1117 372 l 1,18,-1
 1117 0 l 1,19,-1
 372 0 l 1,0,-1
EndSplineSet
EndChar

StartChar: asciitilde
Encoding: 126 126 97
Width: 2792
GlyphClass: 2
Flags: W
LayerCount: 2
Fore
SplineSet
372 1489 m 1,0,-1
 372 1861 l 1,1,-1
 744 1861 l 1,2,-1
 744 1489 l 1,3,-1
 372 1489 l 1,0,-1
2234 1489 m 1,4,-1
 2234 1861 l 1,5,-1
 2606 1861 l 1,6,-1
 2606 1489 l 1,7,-1
 2234 1489 l 1,4,-1
1489 1117 m 1,8,-1
 1489 1489 l 1,9,-1
 1117 1489 l 1,10,-1
 1117 1861 l 1,11,-1
 744 1861 l 1,12,-1
 744 2234 l 1,13,-1
 1489 2234 l 1,14,-1
 1489 1861 l 1,15,-1
 1861 1861 l 1,16,-1
 1861 1489 l 1,17,-1
 2234 1489 l 1,18,-1
 2234 1117 l 1,19,-1
 1489 1117 l 1,8,-1
EndSplineSet
EndChar

StartChar: exclamdown
Encoding: 161 161 98
Width: 1303
GlyphClass: 2
Flags: W
LayerCount: 2
Fore
SplineSet
372 0 m 1,0,-1
 372 1861 l 1,1,-1
 1117 1861 l 1,2,-1
 1117 0 l 1,3,-1
 372 0 l 1,0,-1
372 2234 m 1,4,-1
 372 2978 l 1,5,-1
 1117 2978 l 1,6,-1
 1117 2234 l 1,7,-1
 372 2234 l 1,4,-1
EndSplineSet
EndChar

StartChar: cent
Encoding: 162 162 99
Width: 3165
GlyphClass: 2
Flags: W
LayerCount: 2
Fore
SplineSet
1489 372 m 1,0,-1
 1489 1489 l 1,1,-1
 1117 1489 l 1,2,-1
 1117 372 l 1,3,-1
 1489 372 l 1,0,-1
1489 -372 m 1,4,-1
 1489 0 l 1,5,-1
 744 0 l 1,6,-1
 744 372 l 1,7,-1
 372 372 l 1,8,-1
 372 1489 l 1,9,-1
 744 1489 l 1,10,-1
 744 1861 l 1,11,-1
 1489 1861 l 1,12,-1
 1489 2234 l 1,13,-1
 1861 2234 l 1,14,-1
 1861 1861 l 1,15,-1
 2606 1861 l 1,16,-1
 2606 1489 l 1,17,-1
 2978 1489 l 1,18,-1
 2978 1117 l 1,19,-1
 2234 1117 l 1,20,-1
 2234 1489 l 1,21,-1
 1861 1489 l 1,22,-1
 1861 372 l 1,23,-1
 2234 372 l 1,24,-1
 2234 744 l 1,25,-1
 2978 744 l 1,26,-1
 2978 372 l 1,27,-1
 2606 372 l 1,28,-1
 2606 0 l 1,29,-1
 1861 0 l 1,30,-1
 1861 -372 l 1,31,-1
 1489 -372 l 1,4,-1
EndSplineSet
EndChar

StartChar: sterling
Encoding: 163 163 100
Width: 3165
GlyphClass: 2
Flags: W
LayerCount: 2
Fore
SplineSet
372 0 m 1,0,-1
 372 372 l 1,1,-1
 744 372 l 1,2,-1
 744 1489 l 1,3,-1
 372 1489 l 1,4,-1
 372 1861 l 1,5,-1
 744 1861 l 1,6,-1
 744 2606 l 1,7,-1
 1117 2606 l 1,8,-1
 1117 2978 l 1,9,-1
 2606 2978 l 1,10,-1
 2606 2606 l 1,11,-1
 2978 2606 l 1,12,-1
 2978 2234 l 1,13,-1
 2234 2234 l 1,14,-1
 2234 2606 l 1,15,-1
 1489 2606 l 1,16,-1
 1489 1861 l 1,17,-1
 2606 1861 l 1,18,-1
 2606 1489 l 1,19,-1
 1489 1489 l 1,20,-1
 1489 372 l 1,21,-1
 2978 372 l 1,22,-1
 2978 0 l 1,23,-1
 372 0 l 1,0,-1
EndSplineSet
EndChar

StartChar: currency
Encoding: 164 164 101
Width: 2978
GlyphClass: 2
Flags: W
LayerCount: 2
Fore
SplineSet
372 558 m 1,0,-1
 372 930 l 1,1,-1
 744 930 l 1,2,-1
 744 558 l 1,3,-1
 372 558 l 1,0,-1
1117 558 m 1,4,-1
 1117 930 l 1,5,-1
 2048 930 l 1,6,-1
 2048 558 l 1,7,-1
 1117 558 l 1,4,-1
2420 558 m 1,8,-1
 2420 930 l 1,9,-1
 2792 930 l 1,10,-1
 2792 558 l 1,11,-1
 2420 558 l 1,8,-1
744 930 m 1,12,-1
 744 2048 l 1,13,-1
 1117 2048 l 1,14,-1
 1117 930 l 1,15,-1
 744 930 l 1,12,-1
2048 930 m 1,16,-1
 2048 2048 l 1,17,-1
 2420 2048 l 1,18,-1
 2420 930 l 1,19,-1
 2048 930 l 1,16,-1
372 2048 m 1,20,-1
 372 2420 l 1,21,-1
 744 2420 l 1,22,-1
 744 2048 l 1,23,-1
 372 2048 l 1,20,-1
1117 2048 m 1,24,-1
 1117 2420 l 1,25,-1
 2048 2420 l 1,26,-1
 2048 2048 l 1,27,-1
 1117 2048 l 1,24,-1
2420 2048 m 1,28,-1
 2420 2420 l 1,29,-1
 2792 2420 l 1,30,-1
 2792 2048 l 1,31,-1
 2420 2048 l 1,28,-1
EndSplineSet
EndChar

StartChar: yen
Encoding: 165 165 102
Width: 3165
GlyphClass: 2
Flags: W
LayerCount: 2
Fore
SplineSet
1303 0 m 1,0,-1
 1303 372 l 1,1,-1
 372 372 l 1,2,-1
 372 744 l 1,3,-1
 1303 744 l 1,4,-1
 1303 930 l 1,5,-1
 372 930 l 1,6,-1
 372 1303 l 1,7,-1
 1117 1303 l 1,8,-1
 1117 1489 l 1,9,-1
 744 1489 l 1,10,-1
 744 1861 l 1,11,-1
 372 1861 l 1,12,-1
 372 2978 l 1,13,-1
 1117 2978 l 1,14,-1
 1117 1861 l 1,15,-1
 1489 1861 l 1,16,-1
 1489 1489 l 1,17,-1
 1861 1489 l 1,18,-1
 1861 1861 l 1,19,-1
 2234 1861 l 1,20,-1
 2234 2978 l 1,21,-1
 2978 2978 l 1,22,-1
 2978 1861 l 1,23,-1
 2606 1861 l 1,24,-1
 2606 1489 l 1,25,-1
 2234 1489 l 1,26,-1
 2234 1303 l 1,27,-1
 2978 1303 l 1,28,-1
 2978 930 l 1,29,-1
 2048 930 l 1,30,-1
 2048 744 l 1,31,-1
 2978 744 l 1,32,-1
 2978 372 l 1,33,-1
 2048 372 l 1,34,-1
 2048 0 l 1,35,-1
 1303 0 l 1,0,-1
EndSplineSet
EndChar

StartChar: brokenbar
Encoding: 166 166 103
Width: 1117
GlyphClass: 2
Flags: W
LayerCount: 2
Fore
SplineSet
372 -1117 m 1,0,-1
 372 930 l 1,1,-1
 930 930 l 1,2,-1
 930 -1117 l 1,3,-1
 372 -1117 l 1,0,-1
372 1675 m 1,4,-1
 372 3723 l 1,5,-1
 930 3723 l 1,6,-1
 930 1675 l 1,7,-1
 372 1675 l 1,4,-1
EndSplineSet
EndChar

StartChar: section
Encoding: 167 167 104
Width: 3165
GlyphClass: 2
Flags: W
LayerCount: 2
Fore
SplineSet
744 0 m 1,0,-1
 744 372 l 1,1,-1
 372 372 l 1,2,-1
 372 744 l 1,3,-1
 1117 744 l 1,4,-1
 1117 372 l 1,5,-1
 2234 372 l 1,6,-1
 2234 930 l 1,7,-1
 1117 930 l 1,8,-1
 1117 1303 l 1,9,-1
 2234 1303 l 1,10,-1
 2234 1675 l 1,11,-1
 2606 1675 l 1,12,-1
 2606 1117 l 1,13,-1
 2978 1117 l 1,14,-1
 2978 372 l 1,15,-1
 2606 372 l 1,16,-1
 2606 0 l 1,17,-1
 744 0 l 1,0,-1
744 1303 m 1,18,-1
 744 1675 l 1,19,-1
 372 1675 l 1,20,-1
 372 2606 l 1,21,-1
 744 2606 l 1,22,-1
 744 2978 l 1,23,-1
 2606 2978 l 1,24,-1
 2606 2606 l 1,25,-1
 2978 2606 l 1,26,-1
 2978 2234 l 1,27,-1
 2234 2234 l 1,28,-1
 2234 2606 l 1,29,-1
 1117 2606 l 1,30,-1
 1117 2048 l 1,31,-1
 2234 2048 l 1,32,-1
 2234 1675 l 1,33,-1
 1117 1675 l 1,34,-1
 1117 1303 l 1,35,-1
 744 1303 l 1,18,-1
EndSplineSet
EndChar

StartChar: dieresis
Encoding: 168 168 105
Width: 2420
GlyphClass: 2
Flags: W
LayerCount: 2
Fore
SplineSet
372 2234 m 1,0,-1
 372 2978 l 1,1,-1
 1117 2978 l 1,2,-1
 1117 2234 l 1,3,-1
 372 2234 l 1,0,-1
1489 2234 m 1,4,-1
 1489 2978 l 1,5,-1
 2234 2978 l 1,6,-1
 2234 2234 l 1,7,-1
 1489 2234 l 1,4,-1
EndSplineSet
EndChar

StartChar: copyright
Encoding: 169 169 106
Width: 3909
GlyphClass: 3
Flags: W
LayerCount: 2
Fore
SplineSet
1675 744 m 1,0,-1
 1675 1117 l 1,1,-1
 1303 1117 l 1,2,-1
 1303 1861 l 1,3,-1
 1675 1861 l 1,4,-1
 1675 2234 l 1,5,-1
 2792 2234 l 1,6,-1
 2792 1861 l 1,7,-1
 2048 1861 l 1,8,-1
 2048 1117 l 1,9,-1
 2792 1117 l 1,10,-1
 2792 744 l 1,11,-1
 1675 744 l 1,0,-1
2978 372 m 1,12,-1
 2978 2606 l 1,13,-1
 1117 2606 l 1,14,-1
 1117 372 l 1,15,-1
 2978 372 l 1,12,-1
744 0 m 1,16,-1
 744 372 l 1,17,-1
 372 372 l 1,18,-1
 372 2606 l 1,19,-1
 744 2606 l 1,20,-1
 744 2978 l 1,21,-1
 3351 2978 l 1,22,-1
 3351 2606 l 1,23,-1
 3723 2606 l 1,24,-1
 3723 372 l 1,25,-1
 3351 372 l 1,26,-1
 3351 0 l 1,27,-1
 744 0 l 1,16,-1
EndSplineSet
Ligature2: "'liga' Standard Ligatures in Latin lookup 0 subtable" parenleft c parenright
EndChar

StartChar: ordfeminine
Encoding: 170 170 107
Width: 2048
GlyphClass: 2
Flags: W
LayerCount: 2
Fore
SplineSet
372 1303 m 1,0,-1
 372 1861 l 1,1,-1
 744 1861 l 1,2,-1
 744 1303 l 1,3,-1
 372 1303 l 1,0,-1
744 930 m 1,4,-1
 744 1303 l 1,5,-1
 1489 1303 l 1,6,-1
 1489 1861 l 1,7,-1
 744 1861 l 1,8,-1
 744 2234 l 1,9,-1
 1489 2234 l 1,10,-1
 1489 2606 l 1,11,-1
 1861 2606 l 1,12,-1
 1861 930 l 1,13,-1
 744 930 l 1,4,-1
744 2606 m 1,14,-1
 744 2978 l 1,15,-1
 1489 2978 l 1,16,-1
 1489 2606 l 1,17,-1
 744 2606 l 1,14,-1
EndSplineSet
EndChar

StartChar: guillemotleft
Encoding: 171 171 108
Width: 3909
GlyphClass: 2
Flags: W
LayerCount: 2
Fore
SplineSet
1489 0 m 1,0,-1
 1489 372 l 1,1,-1
 1117 372 l 1,2,-1
 1117 744 l 1,3,-1
 744 744 l 1,4,-1
 744 1117 l 1,5,-1
 372 1117 l 1,6,-1
 372 1489 l 1,7,-1
 744 1489 l 1,8,-1
 744 1861 l 1,9,-1
 1117 1861 l 1,10,-1
 1117 2234 l 1,11,-1
 1489 2234 l 1,12,-1
 1489 2606 l 1,13,-1
 2234 2606 l 1,14,-1
 2234 2234 l 1,15,-1
 1861 2234 l 1,16,-1
 1861 1861 l 1,17,-1
 1489 1861 l 1,18,-1
 1489 1489 l 1,19,-1
 1117 1489 l 1,20,-1
 1117 1117 l 1,21,-1
 1489 1117 l 1,22,-1
 1489 744 l 1,23,-1
 1861 744 l 1,24,-1
 1861 372 l 1,25,-1
 2234 372 l 1,26,-1
 2234 0 l 1,27,-1
 1489 0 l 1,0,-1
2978 0 m 1,28,-1
 2978 372 l 1,29,-1
 2606 372 l 1,30,-1
 2606 744 l 1,31,-1
 2234 744 l 1,32,-1
 2234 1117 l 1,33,-1
 1861 1117 l 1,34,-1
 1861 1489 l 1,35,-1
 2234 1489 l 1,36,-1
 2234 1861 l 1,37,-1
 2606 1861 l 1,38,-1
 2606 2234 l 1,39,-1
 2978 2234 l 1,40,-1
 2978 2606 l 1,41,-1
 3723 2606 l 1,42,-1
 3723 2234 l 1,43,-1
 3351 2234 l 1,44,-1
 3351 1861 l 1,45,-1
 2978 1861 l 1,46,-1
 2978 1489 l 1,47,-1
 2606 1489 l 1,48,-1
 2606 1117 l 1,49,-1
 2978 1117 l 1,50,-1
 2978 744 l 1,51,-1
 3351 744 l 1,52,-1
 3351 372 l 1,53,-1
 3723 372 l 1,54,-1
 3723 0 l 1,55,-1
 2978 0 l 1,28,-1
EndSplineSet
EndChar

StartChar: registered
Encoding: 174 174 109
Width: 2792
GlyphClass: 3
Flags: W
LayerCount: 2
Fore
SplineSet
744 744 m 1,0,-1
 744 1117 l 1,1,-1
 2234 1117 l 1,2,-1
 2234 744 l 1,3,-1
 744 744 l 1,0,-1
1675 1861 m 1,4,-1
 1675 2048 l 1,5,-1
 1303 2048 l 1,6,-1
 1303 1861 l 1,7,-1
 1675 1861 l 1,4,-1
930 1303 m 1,8,-1
 930 2420 l 1,9,-1
 2048 2420 l 1,10,-1
 2048 1675 l 1,11,-1
 1861 1675 l 1,12,-1
 1861 1489 l 1,13,-1
 2048 1489 l 1,14,-1
 2048 1303 l 1,15,-1
 1489 1303 l 1,16,-1
 1489 1489 l 1,17,-1
 1303 1489 l 1,18,-1
 1303 1303 l 1,19,-1
 930 1303 l 1,8,-1
372 1117 m 1,20,-1
 372 2606 l 1,21,-1
 744 2606 l 1,22,-1
 744 1117 l 1,23,-1
 372 1117 l 1,20,-1
2234 1117 m 1,24,-1
 2234 2606 l 1,25,-1
 2606 2606 l 1,26,-1
 2606 1117 l 1,27,-1
 2234 1117 l 1,24,-1
744 2606 m 1,28,-1
 744 2978 l 1,29,-1
 2234 2978 l 1,30,-1
 2234 2606 l 1,31,-1
 744 2606 l 1,28,-1
EndSplineSet
Ligature2: "'liga' Standard Ligatures in Latin lookup 0 subtable" parenleft r parenright
EndChar

StartChar: plusminus
Encoding: 177 177 110
Width: 2792
GlyphClass: 2
Flags: W
LayerCount: 2
Fore
SplineSet
372 186 m 1,0,-1
 372 558 l 1,1,-1
 2606 558 l 1,2,-1
 2606 186 l 1,3,-1
 372 186 l 1,0,-1
1117 930 m 1,4,-1
 1117 1675 l 1,5,-1
 372 1675 l 1,6,-1
 372 2048 l 1,7,-1
 1117 2048 l 1,8,-1
 1117 2792 l 1,9,-1
 1861 2792 l 1,10,-1
 1861 2048 l 1,11,-1
 2606 2048 l 1,12,-1
 2606 1675 l 1,13,-1
 1861 1675 l 1,14,-1
 1861 930 l 1,15,-1
 1117 930 l 1,4,-1
EndSplineSet
EndChar

StartChar: mu
Encoding: 181 181 111
Width: 3165
GlyphClass: 2
Flags: W
LayerCount: 2
Fore
SplineSet
186 -1117 m 1,0,-1
 186 1861 l 1,1,-1
 930 1861 l 1,2,-1
 930 744 l 1,3,-1
 1303 744 l 1,4,-1
 1303 372 l 1,5,-1
 930 372 l 1,6,-1
 930 -1117 l 1,7,-1
 186 -1117 l 1,0,-1
1303 0 m 1,8,-1
 1303 372 l 1,9,-1
 1861 372 l 1,10,-1
 1861 744 l 1,11,-1
 2420 744 l 1,12,-1
 2420 1861 l 1,13,-1
 2978 1861 l 1,14,-1
 2978 0 l 1,15,-1
 2420 0 l 1,16,-1
 2420 372 l 1,17,-1
 2048 372 l 1,18,-1
 2048 0 l 1,19,-1
 1303 0 l 1,8,-1
EndSplineSet
EndChar

StartChar: paragraph
Encoding: 182 182 112
Width: 3165
GlyphClass: 2
Flags: W
LayerCount: 2
Fore
SplineSet
2606 186 m 1,0,-1
 2606 2606 l 1,1,-1
 2234 2606 l 1,2,-1
 2234 186 l 1,3,-1
 2606 186 l 1,0,-1
1861 0 m 1,4,-1
 1861 1489 l 1,5,-1
 744 1489 l 1,6,-1
 744 1861 l 1,7,-1
 372 1861 l 1,8,-1
 372 2606 l 1,9,-1
 744 2606 l 1,10,-1
 744 2978 l 1,11,-1
 2978 2978 l 1,12,-1
 2978 0 l 1,13,-1
 1861 0 l 1,4,-1
EndSplineSet
EndChar

StartChar: guillemotright
Encoding: 187 187 113
Width: 3909
GlyphClass: 2
Flags: W
LayerCount: 2
Fore
SplineSet
372 0 m 1,0,-1
 372 372 l 1,1,-1
 744 372 l 1,2,-1
 744 744 l 1,3,-1
 1117 744 l 1,4,-1
 1117 1117 l 1,5,-1
 1489 1117 l 1,6,-1
 1489 1489 l 1,7,-1
 1117 1489 l 1,8,-1
 1117 1861 l 1,9,-1
 744 1861 l 1,10,-1
 744 2234 l 1,11,-1
 372 2234 l 1,12,-1
 372 2606 l 1,13,-1
 1117 2606 l 1,14,-1
 1117 2234 l 1,15,-1
 1489 2234 l 1,16,-1
 1489 1861 l 1,17,-1
 1861 1861 l 1,18,-1
 1861 1489 l 1,19,-1
 2234 1489 l 1,20,-1
 2234 1117 l 1,21,-1
 1861 1117 l 1,22,-1
 1861 744 l 1,23,-1
 1489 744 l 1,24,-1
 1489 372 l 1,25,-1
 1117 372 l 1,26,-1
 1117 0 l 1,27,-1
 372 0 l 1,0,-1
1861 0 m 1,28,-1
 1861 372 l 1,29,-1
 2234 372 l 1,30,-1
 2234 744 l 1,31,-1
 2606 744 l 1,32,-1
 2606 1117 l 1,33,-1
 2978 1117 l 1,34,-1
 2978 1489 l 1,35,-1
 2606 1489 l 1,36,-1
 2606 1861 l 1,37,-1
 2234 1861 l 1,38,-1
 2234 2234 l 1,39,-1
 1861 2234 l 1,40,-1
 1861 2606 l 1,41,-1
 2606 2606 l 1,42,-1
 2606 2234 l 1,43,-1
 2978 2234 l 1,44,-1
 2978 1861 l 1,45,-1
 3351 1861 l 1,46,-1
 3351 1489 l 1,47,-1
 3723 1489 l 1,48,-1
 3723 1117 l 1,49,-1
 3351 1117 l 1,50,-1
 3351 744 l 1,51,-1
 2978 744 l 1,52,-1
 2978 372 l 1,53,-1
 2606 372 l 1,54,-1
 2606 0 l 1,55,-1
 1861 0 l 1,28,-1
EndSplineSet
EndChar

StartChar: questiondown
Encoding: 191 191 114
Width: 3165
GlyphClass: 2
Flags: W
LayerCount: 2
Fore
SplineSet
744 0 m 1,0,-1
 744 372 l 1,1,-1
 372 372 l 1,2,-1
 372 1117 l 1,3,-1
 744 1117 l 1,4,-1
 744 1489 l 1,5,-1
 1489 1489 l 1,6,-1
 1489 1861 l 1,7,-1
 2234 1861 l 1,8,-1
 2234 1489 l 1,9,-1
 1861 1489 l 1,10,-1
 1861 1117 l 1,11,-1
 1117 1117 l 1,12,-1
 1117 372 l 1,13,-1
 2234 372 l 1,14,-1
 2234 744 l 1,15,-1
 2978 744 l 1,16,-1
 2978 372 l 1,17,-1
 2606 372 l 1,18,-1
 2606 0 l 1,19,-1
 744 0 l 1,0,-1
1489 2234 m 1,20,-1
 1489 2978 l 1,21,-1
 2234 2978 l 1,22,-1
 2234 2234 l 1,23,-1
 1489 2234 l 1,20,-1
EndSplineSet
EndChar

StartChar: Agrave
Encoding: 192 192 115
Width: 3165
GlyphClass: 2
Flags: W
LayerCount: 2
Fore
SplineSet
2234 1489 m 1,0,-1
 2234 2234 l 1,1,-1
 1861 2234 l 1,2,-1
 1861 2606 l 1,3,-1
 1489 2606 l 1,4,-1
 1489 2234 l 1,5,-1
 1117 2234 l 1,6,-1
 1117 1489 l 1,7,-1
 2234 1489 l 1,0,-1
372 0 m 1,8,-1
 372 2234 l 1,9,-1
 744 2234 l 1,10,-1
 744 2606 l 1,11,-1
 1117 2606 l 1,12,-1
 1117 2978 l 1,13,-1
 2234 2978 l 1,14,-1
 2234 2606 l 1,15,-1
 2606 2606 l 1,16,-1
 2606 2234 l 1,17,-1
 2978 2234 l 1,18,-1
 2978 0 l 1,19,-1
 2234 0 l 1,20,-1
 2234 1117 l 1,21,-1
 1117 1117 l 1,22,-1
 1117 0 l 1,23,-1
 372 0 l 1,8,-1
1303 3351 m 1,24,-1
 1303 3723 l 1,25,-1
 930 3723 l 1,26,-1
 930 4096 l 1,27,-1
 1675 4096 l 1,28,-1
 1675 3723 l 1,29,-1
 2048 3723 l 1,30,-1
 2048 3351 l 1,31,-1
 1303 3351 l 1,24,-1
EndSplineSet
EndChar

StartChar: Aacute
Encoding: 193 193 116
Width: 3165
GlyphClass: 2
Flags: W
LayerCount: 2
Fore
SplineSet
2234 1489 m 1,0,-1
 2234 2234 l 1,1,-1
 1861 2234 l 1,2,-1
 1861 2606 l 1,3,-1
 1489 2606 l 1,4,-1
 1489 2234 l 1,5,-1
 1117 2234 l 1,6,-1
 1117 1489 l 1,7,-1
 2234 1489 l 1,0,-1
372 0 m 1,8,-1
 372 2234 l 1,9,-1
 744 2234 l 1,10,-1
 744 2606 l 1,11,-1
 1117 2606 l 1,12,-1
 1117 2978 l 1,13,-1
 2234 2978 l 1,14,-1
 2234 2606 l 1,15,-1
 2606 2606 l 1,16,-1
 2606 2234 l 1,17,-1
 2978 2234 l 1,18,-1
 2978 0 l 1,19,-1
 2234 0 l 1,20,-1
 2234 1117 l 1,21,-1
 1117 1117 l 1,22,-1
 1117 0 l 1,23,-1
 372 0 l 1,8,-1
1303 3351 m 1,24,-1
 1303 3723 l 1,25,-1
 1675 3723 l 1,26,-1
 1675 4096 l 1,27,-1
 2420 4096 l 1,28,-1
 2420 3723 l 1,29,-1
 2048 3723 l 1,30,-1
 2048 3351 l 1,31,-1
 1303 3351 l 1,24,-1
EndSplineSet
EndChar

StartChar: Acircumflex
Encoding: 194 194 117
Width: 3165
GlyphClass: 2
Flags: W
LayerCount: 2
Fore
SplineSet
2234 1489 m 1,0,-1
 2234 2234 l 1,1,-1
 1861 2234 l 1,2,-1
 1861 2606 l 1,3,-1
 1489 2606 l 1,4,-1
 1489 2234 l 1,5,-1
 1117 2234 l 1,6,-1
 1117 1489 l 1,7,-1
 2234 1489 l 1,0,-1
372 0 m 1,8,-1
 372 2234 l 1,9,-1
 744 2234 l 1,10,-1
 744 2606 l 1,11,-1
 1117 2606 l 1,12,-1
 1117 2978 l 1,13,-1
 2234 2978 l 1,14,-1
 2234 2606 l 1,15,-1
 2606 2606 l 1,16,-1
 2606 2234 l 1,17,-1
 2978 2234 l 1,18,-1
 2978 0 l 1,19,-1
 2234 0 l 1,20,-1
 2234 1117 l 1,21,-1
 1117 1117 l 1,22,-1
 1117 0 l 1,23,-1
 372 0 l 1,8,-1
744 3351 m 1,24,-1
 744 3723 l 1,25,-1
 1117 3723 l 1,26,-1
 1117 4096 l 1,27,-1
 2234 4096 l 1,28,-1
 2234 3723 l 1,29,-1
 2606 3723 l 1,30,-1
 2606 3351 l 1,31,-1
 1861 3351 l 1,32,-1
 1861 3723 l 1,33,-1
 1489 3723 l 1,34,-1
 1489 3351 l 1,35,-1
 744 3351 l 1,24,-1
EndSplineSet
EndChar

StartChar: Atilde
Encoding: 195 195 118
Width: 3165
GlyphClass: 2
Flags: W
LayerCount: 2
Fore
SplineSet
2234 1489 m 1,0,-1
 2234 2234 l 1,1,-1
 1861 2234 l 1,2,-1
 1861 2606 l 1,3,-1
 1489 2606 l 1,4,-1
 1489 2234 l 1,5,-1
 1117 2234 l 1,6,-1
 1117 1489 l 1,7,-1
 2234 1489 l 1,0,-1
372 0 m 1,8,-1
 372 2234 l 1,9,-1
 744 2234 l 1,10,-1
 744 2606 l 1,11,-1
 1117 2606 l 1,12,-1
 1117 2978 l 1,13,-1
 2234 2978 l 1,14,-1
 2234 2606 l 1,15,-1
 2606 2606 l 1,16,-1
 2606 2234 l 1,17,-1
 2978 2234 l 1,18,-1
 2978 0 l 1,19,-1
 2234 0 l 1,20,-1
 2234 1117 l 1,21,-1
 1117 1117 l 1,22,-1
 1117 0 l 1,23,-1
 372 0 l 1,8,-1
930 3351 m 1,24,-1
 930 3723 l 1,25,-1
 1303 3723 l 1,26,-1
 1303 3351 l 1,27,-1
 930 3351 l 1,24,-1
1675 3351 m 1,28,-1
 1675 3723 l 1,29,-1
 2048 3723 l 1,30,-1
 2048 3351 l 1,31,-1
 1675 3351 l 1,28,-1
1303 3723 m 1,32,-1
 1303 4096 l 1,33,-1
 1675 4096 l 1,34,-1
 1675 3723 l 1,35,-1
 1303 3723 l 1,32,-1
2048 3723 m 1,36,-1
 2048 4096 l 1,37,-1
 2420 4096 l 1,38,-1
 2420 3723 l 1,39,-1
 2048 3723 l 1,36,-1
EndSplineSet
EndChar

StartChar: Adieresis
Encoding: 196 196 119
Width: 3165
GlyphClass: 2
Flags: W
LayerCount: 2
Fore
SplineSet
2234 1489 m 1,0,-1
 2234 2234 l 1,1,-1
 1861 2234 l 1,2,-1
 1861 2606 l 1,3,-1
 1489 2606 l 1,4,-1
 1489 2234 l 1,5,-1
 1117 2234 l 1,6,-1
 1117 1489 l 1,7,-1
 2234 1489 l 1,0,-1
372 0 m 1,8,-1
 372 2234 l 1,9,-1
 744 2234 l 1,10,-1
 744 2606 l 1,11,-1
 1117 2606 l 1,12,-1
 1117 2978 l 1,13,-1
 2234 2978 l 1,14,-1
 2234 2606 l 1,15,-1
 2606 2606 l 1,16,-1
 2606 2234 l 1,17,-1
 2978 2234 l 1,18,-1
 2978 0 l 1,19,-1
 2234 0 l 1,20,-1
 2234 1117 l 1,21,-1
 1117 1117 l 1,22,-1
 1117 0 l 1,23,-1
 372 0 l 1,8,-1
744 3351 m 1,24,-1
 744 4096 l 1,25,-1
 1489 4096 l 1,26,-1
 1489 3351 l 1,27,-1
 744 3351 l 1,24,-1
1861 3351 m 1,28,-1
 1861 4096 l 1,29,-1
 2606 4096 l 1,30,-1
 2606 3351 l 1,31,-1
 1861 3351 l 1,28,-1
EndSplineSet
EndChar

StartChar: Aring
Encoding: 197 197 120
Width: 3165
GlyphClass: 2
Flags: W
LayerCount: 2
Fore
SplineSet
2234 1489 m 1,0,-1
 2234 2234 l 1,1,-1
 1861 2234 l 1,2,-1
 1861 2606 l 1,3,-1
 1489 2606 l 1,4,-1
 1489 2234 l 1,5,-1
 1117 2234 l 1,6,-1
 1117 1489 l 1,7,-1
 2234 1489 l 1,0,-1
372 0 m 1,8,-1
 372 2234 l 1,9,-1
 744 2234 l 1,10,-1
 744 2606 l 1,11,-1
 1117 2606 l 1,12,-1
 1117 2978 l 1,13,-1
 1489 2978 l 1,14,-1
 1489 3351 l 1,15,-1
 1861 3351 l 1,16,-1
 1861 2978 l 1,17,-1
 2234 2978 l 1,18,-1
 2234 2606 l 1,19,-1
 2606 2606 l 1,20,-1
 2606 2234 l 1,21,-1
 2978 2234 l 1,22,-1
 2978 0 l 1,23,-1
 2234 0 l 1,24,-1
 2234 1117 l 1,25,-1
 1117 1117 l 1,26,-1
 1117 0 l 1,27,-1
 372 0 l 1,8,-1
1117 3351 m 1,28,-1
 1117 3723 l 1,29,-1
 1489 3723 l 1,30,-1
 1489 3351 l 1,31,-1
 1117 3351 l 1,28,-1
1861 3351 m 1,32,-1
 1861 3723 l 1,33,-1
 2234 3723 l 1,34,-1
 2234 3351 l 1,35,-1
 1861 3351 l 1,32,-1
1489 3723 m 1,36,-1
 1489 4096 l 1,37,-1
 1861 4096 l 1,38,-1
 1861 3723 l 1,39,-1
 1489 3723 l 1,36,-1
EndSplineSet
EndChar

StartChar: AE
Encoding: 198 198 121
Width: 4282
GlyphClass: 2
Flags: W
LayerCount: 2
Fore
SplineSet
1861 1489 m 1,0,-1
 1861 2606 l 1,1,-1
 1489 2606 l 1,2,-1
 1489 2234 l 1,3,-1
 1117 2234 l 1,4,-1
 1117 1489 l 1,5,-1
 1861 1489 l 1,0,-1
372 0 m 1,6,-1
 372 2234 l 1,7,-1
 744 2234 l 1,8,-1
 744 2606 l 1,9,-1
 1117 2606 l 1,10,-1
 1117 2978 l 1,11,-1
 4096 2978 l 1,12,-1
 4096 2606 l 1,13,-1
 2606 2606 l 1,14,-1
 2606 1861 l 1,15,-1
 3723 1861 l 1,16,-1
 3723 1489 l 1,17,-1
 2606 1489 l 1,18,-1
 2606 372 l 1,19,-1
 4096 372 l 1,20,-1
 4096 0 l 1,21,-1
 1861 0 l 1,22,-1
 1861 1117 l 1,23,-1
 1117 1117 l 1,24,-1
 1117 0 l 1,25,-1
 372 0 l 1,6,-1
EndSplineSet
EndChar

StartChar: Ccedilla
Encoding: 199 199 122
Width: 3165
GlyphClass: 2
Flags: W
LayerCount: 2
Fore
SplineSet
1117 -744 m 1,0,-1
 1117 -372 l 1,1,-1
 1861 -372 l 1,2,-1
 1861 0 l 1,3,-1
 1117 0 l 1,4,-1
 1117 372 l 1,5,-1
 744 372 l 1,6,-1
 744 744 l 1,7,-1
 372 744 l 1,8,-1
 372 2234 l 1,9,-1
 744 2234 l 1,10,-1
 744 2606 l 1,11,-1
 1117 2606 l 1,12,-1
 1117 2978 l 1,13,-1
 2606 2978 l 1,14,-1
 2606 2606 l 1,15,-1
 2978 2606 l 1,16,-1
 2978 2234 l 1,17,-1
 2234 2234 l 1,18,-1
 2234 2606 l 1,19,-1
 1489 2606 l 1,20,-1
 1489 2234 l 1,21,-1
 1117 2234 l 1,22,-1
 1117 744 l 1,23,-1
 1489 744 l 1,24,-1
 1489 372 l 1,25,-1
 2234 372 l 1,26,-1
 2234 744 l 1,27,-1
 2978 744 l 1,28,-1
 2978 372 l 1,29,-1
 2606 372 l 1,30,-1
 2606 -372 l 1,31,-1
 2234 -372 l 1,32,-1
 2234 -744 l 1,33,-1
 1117 -744 l 1,0,-1
EndSplineSet
EndChar

StartChar: Egrave
Encoding: 200 200 123
Width: 3165
GlyphClass: 2
Flags: W
LayerCount: 2
Fore
SplineSet
372 0 m 1,0,-1
 372 2978 l 1,1,-1
 2978 2978 l 1,2,-1
 2978 2606 l 1,3,-1
 1117 2606 l 1,4,-1
 1117 1861 l 1,5,-1
 2234 1861 l 1,6,-1
 2234 1489 l 1,7,-1
 1117 1489 l 1,8,-1
 1117 372 l 1,9,-1
 2978 372 l 1,10,-1
 2978 0 l 1,11,-1
 372 0 l 1,0,-1
1303 3351 m 1,12,-1
 1303 3723 l 1,13,-1
 930 3723 l 1,14,-1
 930 4096 l 1,15,-1
 1675 4096 l 1,16,-1
 1675 3723 l 1,17,-1
 2048 3723 l 1,18,-1
 2048 3351 l 1,19,-1
 1303 3351 l 1,12,-1
EndSplineSet
EndChar

StartChar: Eacute
Encoding: 201 201 124
Width: 3165
GlyphClass: 2
Flags: W
LayerCount: 2
Fore
SplineSet
372 0 m 1,0,-1
 372 2978 l 1,1,-1
 2978 2978 l 1,2,-1
 2978 2606 l 1,3,-1
 1117 2606 l 1,4,-1
 1117 1861 l 1,5,-1
 2234 1861 l 1,6,-1
 2234 1489 l 1,7,-1
 1117 1489 l 1,8,-1
 1117 372 l 1,9,-1
 2978 372 l 1,10,-1
 2978 0 l 1,11,-1
 372 0 l 1,0,-1
1303 3351 m 1,12,-1
 1303 3723 l 1,13,-1
 1675 3723 l 1,14,-1
 1675 4096 l 1,15,-1
 2420 4096 l 1,16,-1
 2420 3723 l 1,17,-1
 2048 3723 l 1,18,-1
 2048 3351 l 1,19,-1
 1303 3351 l 1,12,-1
EndSplineSet
EndChar

StartChar: Ecircumflex
Encoding: 202 202 125
Width: 3165
GlyphClass: 2
Flags: W
LayerCount: 2
Fore
SplineSet
372 0 m 1,0,-1
 372 2978 l 1,1,-1
 2978 2978 l 1,2,-1
 2978 2606 l 1,3,-1
 1117 2606 l 1,4,-1
 1117 1861 l 1,5,-1
 2234 1861 l 1,6,-1
 2234 1489 l 1,7,-1
 1117 1489 l 1,8,-1
 1117 372 l 1,9,-1
 2978 372 l 1,10,-1
 2978 0 l 1,11,-1
 372 0 l 1,0,-1
744 3351 m 1,12,-1
 744 3723 l 1,13,-1
 1117 3723 l 1,14,-1
 1117 4096 l 1,15,-1
 2234 4096 l 1,16,-1
 2234 3723 l 1,17,-1
 2606 3723 l 1,18,-1
 2606 3351 l 1,19,-1
 1861 3351 l 1,20,-1
 1861 3723 l 1,21,-1
 1489 3723 l 1,22,-1
 1489 3351 l 1,23,-1
 744 3351 l 1,12,-1
EndSplineSet
EndChar

StartChar: Edieresis
Encoding: 203 203 126
Width: 3165
GlyphClass: 2
Flags: W
LayerCount: 2
Fore
SplineSet
372 0 m 1,0,-1
 372 2978 l 1,1,-1
 2978 2978 l 1,2,-1
 2978 2606 l 1,3,-1
 1117 2606 l 1,4,-1
 1117 1861 l 1,5,-1
 2234 1861 l 1,6,-1
 2234 1489 l 1,7,-1
 1117 1489 l 1,8,-1
 1117 372 l 1,9,-1
 2978 372 l 1,10,-1
 2978 0 l 1,11,-1
 372 0 l 1,0,-1
744 3351 m 1,12,-1
 744 4096 l 1,13,-1
 1489 4096 l 1,14,-1
 1489 3351 l 1,15,-1
 744 3351 l 1,12,-1
1861 3351 m 1,16,-1
 1861 4096 l 1,17,-1
 2606 4096 l 1,18,-1
 2606 3351 l 1,19,-1
 1861 3351 l 1,16,-1
EndSplineSet
EndChar

StartChar: Igrave
Encoding: 204 204 127
Width: 2792
GlyphClass: 2
Flags: W
LayerCount: 2
Fore
SplineSet
372 0 m 1,0,-1
 372 372 l 1,1,-1
 1117 372 l 1,2,-1
 1117 2606 l 1,3,-1
 372 2606 l 1,4,-1
 372 2978 l 1,5,-1
 2606 2978 l 1,6,-1
 2606 2606 l 1,7,-1
 1861 2606 l 1,8,-1
 1861 372 l 1,9,-1
 2606 372 l 1,10,-1
 2606 0 l 1,11,-1
 372 0 l 1,0,-1
1117 3351 m 1,12,-1
 1117 3723 l 1,13,-1
 744 3723 l 1,14,-1
 744 4096 l 1,15,-1
 1489 4096 l 1,16,-1
 1489 3723 l 1,17,-1
 1861 3723 l 1,18,-1
 1861 3351 l 1,19,-1
 1117 3351 l 1,12,-1
EndSplineSet
EndChar

StartChar: Iacute
Encoding: 205 205 128
Width: 2792
GlyphClass: 2
Flags: W
LayerCount: 2
Fore
SplineSet
372 0 m 1,0,-1
 372 372 l 1,1,-1
 1117 372 l 1,2,-1
 1117 2606 l 1,3,-1
 372 2606 l 1,4,-1
 372 2978 l 1,5,-1
 2606 2978 l 1,6,-1
 2606 2606 l 1,7,-1
 1861 2606 l 1,8,-1
 1861 372 l 1,9,-1
 2606 372 l 1,10,-1
 2606 0 l 1,11,-1
 372 0 l 1,0,-1
1117 3351 m 1,12,-1
 1117 3723 l 1,13,-1
 1489 3723 l 1,14,-1
 1489 4096 l 1,15,-1
 2234 4096 l 1,16,-1
 2234 3723 l 1,17,-1
 1861 3723 l 1,18,-1
 1861 3351 l 1,19,-1
 1117 3351 l 1,12,-1
EndSplineSet
EndChar

StartChar: Icircumflex
Encoding: 206 206 129
Width: 2792
GlyphClass: 2
Flags: W
LayerCount: 2
Fore
SplineSet
372 0 m 1,0,-1
 372 372 l 1,1,-1
 1117 372 l 1,2,-1
 1117 2606 l 1,3,-1
 372 2606 l 1,4,-1
 372 2978 l 1,5,-1
 2606 2978 l 1,6,-1
 2606 2606 l 1,7,-1
 1861 2606 l 1,8,-1
 1861 372 l 1,9,-1
 2606 372 l 1,10,-1
 2606 0 l 1,11,-1
 372 0 l 1,0,-1
558 3351 m 1,12,-1
 558 3723 l 1,13,-1
 930 3723 l 1,14,-1
 930 4096 l 1,15,-1
 2048 4096 l 1,16,-1
 2048 3723 l 1,17,-1
 2420 3723 l 1,18,-1
 2420 3351 l 1,19,-1
 1675 3351 l 1,20,-1
 1675 3723 l 1,21,-1
 1303 3723 l 1,22,-1
 1303 3351 l 1,23,-1
 558 3351 l 1,12,-1
EndSplineSet
EndChar

StartChar: Idieresis
Encoding: 207 207 130
Width: 2792
GlyphClass: 2
Flags: W
LayerCount: 2
Fore
SplineSet
372 0 m 1,0,-1
 372 372 l 1,1,-1
 1117 372 l 1,2,-1
 1117 2606 l 1,3,-1
 372 2606 l 1,4,-1
 372 2978 l 1,5,-1
 2606 2978 l 1,6,-1
 2606 2606 l 1,7,-1
 1861 2606 l 1,8,-1
 1861 372 l 1,9,-1
 2606 372 l 1,10,-1
 2606 0 l 1,11,-1
 372 0 l 1,0,-1
558 3351 m 1,12,-1
 558 4096 l 1,13,-1
 1303 4096 l 1,14,-1
 1303 3351 l 1,15,-1
 558 3351 l 1,12,-1
1675 3351 m 1,16,-1
 1675 4096 l 1,17,-1
 2420 4096 l 1,18,-1
 2420 3351 l 1,19,-1
 1675 3351 l 1,16,-1
EndSplineSet
EndChar

StartChar: Eth
Encoding: 208 208 131
Width: 3537
GlyphClass: 2
Flags: W
LayerCount: 2
Fore
SplineSet
2420 372 m 1,0,-1
 2420 744 l 1,1,-1
 2606 744 l 1,2,-1
 2606 2234 l 1,3,-1
 2234 2234 l 1,4,-1
 2234 2606 l 1,5,-1
 1489 2606 l 1,6,-1
 1489 1675 l 1,7,-1
 2234 1675 l 1,8,-1
 2234 1303 l 1,9,-1
 1489 1303 l 1,10,-1
 1489 372 l 1,11,-1
 2420 372 l 1,0,-1
744 0 m 1,12,-1
 744 1303 l 1,13,-1
 372 1303 l 1,14,-1
 372 1675 l 1,15,-1
 744 1675 l 1,16,-1
 744 2978 l 1,17,-1
 2606 2978 l 1,18,-1
 2606 2606 l 1,19,-1
 2978 2606 l 1,20,-1
 2978 2234 l 1,21,-1
 3351 2234 l 1,22,-1
 3351 744 l 1,23,-1
 2978 744 l 1,24,-1
 2978 372 l 1,25,-1
 2606 372 l 1,26,-1
 2606 0 l 1,27,-1
 744 0 l 1,12,-1
EndSplineSet
EndChar

StartChar: Ntilde
Encoding: 209 209 132
Width: 3165
GlyphClass: 2
Flags: W
LayerCount: 2
Fore
SplineSet
372 0 m 1,0,-1
 372 2978 l 1,1,-1
 744 2978 l 1,2,-1
 744 2606 l 1,3,-1
 1117 2606 l 1,4,-1
 1117 2234 l 1,5,-1
 1489 2234 l 1,6,-1
 1489 1861 l 1,7,-1
 1861 1861 l 1,8,-1
 1861 1489 l 1,9,-1
 2234 1489 l 1,10,-1
 2234 2978 l 1,11,-1
 2978 2978 l 1,12,-1
 2978 0 l 1,13,-1
 2606 0 l 1,14,-1
 2606 372 l 1,15,-1
 2234 372 l 1,16,-1
 2234 744 l 1,17,-1
 1861 744 l 1,18,-1
 1861 1117 l 1,19,-1
 1489 1117 l 1,20,-1
 1489 1489 l 1,21,-1
 1117 1489 l 1,22,-1
 1117 0 l 1,23,-1
 372 0 l 1,0,-1
930 3351 m 1,24,-1
 930 3723 l 1,25,-1
 1303 3723 l 1,26,-1
 1303 3351 l 1,27,-1
 930 3351 l 1,24,-1
1675 3351 m 1,28,-1
 1675 3723 l 1,29,-1
 2048 3723 l 1,30,-1
 2048 3351 l 1,31,-1
 1675 3351 l 1,28,-1
1303 3723 m 1,32,-1
 1303 4096 l 1,33,-1
 1675 4096 l 1,34,-1
 1675 3723 l 1,35,-1
 1303 3723 l 1,32,-1
2048 3723 m 1,36,-1
 2048 4096 l 1,37,-1
 2420 4096 l 1,38,-1
 2420 3723 l 1,39,-1
 2048 3723 l 1,36,-1
EndSplineSet
EndChar

StartChar: Ograve
Encoding: 210 210 133
Width: 3165
GlyphClass: 2
Flags: W
LayerCount: 2
Fore
SplineSet
2234 372 m 1,0,-1
 2234 2606 l 1,1,-1
 1117 2606 l 1,2,-1
 1117 372 l 1,3,-1
 2234 372 l 1,0,-1
744 0 m 1,4,-1
 744 372 l 1,5,-1
 372 372 l 1,6,-1
 372 2606 l 1,7,-1
 744 2606 l 1,8,-1
 744 2978 l 1,9,-1
 2606 2978 l 1,10,-1
 2606 2606 l 1,11,-1
 2978 2606 l 1,12,-1
 2978 372 l 1,13,-1
 2606 372 l 1,14,-1
 2606 0 l 1,15,-1
 744 0 l 1,4,-1
1303 3351 m 1,16,-1
 1303 3723 l 1,17,-1
 930 3723 l 1,18,-1
 930 4096 l 1,19,-1
 1675 4096 l 1,20,-1
 1675 3723 l 1,21,-1
 2048 3723 l 1,22,-1
 2048 3351 l 1,23,-1
 1303 3351 l 1,16,-1
EndSplineSet
EndChar

StartChar: Oacute
Encoding: 211 211 134
Width: 3165
GlyphClass: 2
Flags: W
LayerCount: 2
Fore
SplineSet
2234 372 m 1,0,-1
 2234 2606 l 1,1,-1
 1117 2606 l 1,2,-1
 1117 372 l 1,3,-1
 2234 372 l 1,0,-1
744 0 m 1,4,-1
 744 372 l 1,5,-1
 372 372 l 1,6,-1
 372 2606 l 1,7,-1
 744 2606 l 1,8,-1
 744 2978 l 1,9,-1
 2606 2978 l 1,10,-1
 2606 2606 l 1,11,-1
 2978 2606 l 1,12,-1
 2978 372 l 1,13,-1
 2606 372 l 1,14,-1
 2606 0 l 1,15,-1
 744 0 l 1,4,-1
1303 3351 m 1,16,-1
 1303 3723 l 1,17,-1
 1675 3723 l 1,18,-1
 1675 4096 l 1,19,-1
 2420 4096 l 1,20,-1
 2420 3723 l 1,21,-1
 2048 3723 l 1,22,-1
 2048 3351 l 1,23,-1
 1303 3351 l 1,16,-1
EndSplineSet
EndChar

StartChar: Ocircumflex
Encoding: 212 212 135
Width: 3165
GlyphClass: 2
Flags: W
LayerCount: 2
Fore
SplineSet
2234 372 m 1,0,-1
 2234 2606 l 1,1,-1
 1117 2606 l 1,2,-1
 1117 372 l 1,3,-1
 2234 372 l 1,0,-1
744 0 m 1,4,-1
 744 372 l 1,5,-1
 372 372 l 1,6,-1
 372 2606 l 1,7,-1
 744 2606 l 1,8,-1
 744 2978 l 1,9,-1
 2606 2978 l 1,10,-1
 2606 2606 l 1,11,-1
 2978 2606 l 1,12,-1
 2978 372 l 1,13,-1
 2606 372 l 1,14,-1
 2606 0 l 1,15,-1
 744 0 l 1,4,-1
744 3351 m 1,16,-1
 744 3723 l 1,17,-1
 1117 3723 l 1,18,-1
 1117 4096 l 1,19,-1
 2234 4096 l 1,20,-1
 2234 3723 l 1,21,-1
 2606 3723 l 1,22,-1
 2606 3351 l 1,23,-1
 1861 3351 l 1,24,-1
 1861 3723 l 1,25,-1
 1489 3723 l 1,26,-1
 1489 3351 l 1,27,-1
 744 3351 l 1,16,-1
EndSplineSet
EndChar

StartChar: Otilde
Encoding: 213 213 136
Width: 3165
GlyphClass: 2
Flags: W
LayerCount: 2
Fore
SplineSet
2234 372 m 1,0,-1
 2234 2606 l 1,1,-1
 1117 2606 l 1,2,-1
 1117 372 l 1,3,-1
 2234 372 l 1,0,-1
744 0 m 1,4,-1
 744 372 l 1,5,-1
 372 372 l 1,6,-1
 372 2606 l 1,7,-1
 744 2606 l 1,8,-1
 744 2978 l 1,9,-1
 2606 2978 l 1,10,-1
 2606 2606 l 1,11,-1
 2978 2606 l 1,12,-1
 2978 372 l 1,13,-1
 2606 372 l 1,14,-1
 2606 0 l 1,15,-1
 744 0 l 1,4,-1
930 3351 m 1,16,-1
 930 3723 l 1,17,-1
 1303 3723 l 1,18,-1
 1303 3351 l 1,19,-1
 930 3351 l 1,16,-1
1675 3351 m 1,20,-1
 1675 3723 l 1,21,-1
 2048 3723 l 1,22,-1
 2048 3351 l 1,23,-1
 1675 3351 l 1,20,-1
1303 3723 m 1,24,-1
 1303 4096 l 1,25,-1
 1675 4096 l 1,26,-1
 1675 3723 l 1,27,-1
 1303 3723 l 1,24,-1
2048 3723 m 1,28,-1
 2048 4096 l 1,29,-1
 2420 4096 l 1,30,-1
 2420 3723 l 1,31,-1
 2048 3723 l 1,28,-1
EndSplineSet
EndChar

StartChar: Odieresis
Encoding: 214 214 137
Width: 3165
GlyphClass: 2
Flags: W
LayerCount: 2
Fore
SplineSet
2234 372 m 1,0,-1
 2234 2606 l 1,1,-1
 1117 2606 l 1,2,-1
 1117 372 l 1,3,-1
 2234 372 l 1,0,-1
744 0 m 1,4,-1
 744 372 l 1,5,-1
 372 372 l 1,6,-1
 372 2606 l 1,7,-1
 744 2606 l 1,8,-1
 744 2978 l 1,9,-1
 2606 2978 l 1,10,-1
 2606 2606 l 1,11,-1
 2978 2606 l 1,12,-1
 2978 372 l 1,13,-1
 2606 372 l 1,14,-1
 2606 0 l 1,15,-1
 744 0 l 1,4,-1
744 3351 m 1,16,-1
 744 4096 l 1,17,-1
 1489 4096 l 1,18,-1
 1489 3351 l 1,19,-1
 744 3351 l 1,16,-1
1861 3351 m 1,20,-1
 1861 4096 l 1,21,-1
 2606 4096 l 1,22,-1
 2606 3351 l 1,23,-1
 1861 3351 l 1,20,-1
EndSplineSet
EndChar

StartChar: multiply
Encoding: 215 215 138
Width: 2420
GlyphClass: 2
Flags: W
LayerCount: 2
Fore
SplineSet
372 744 m 1,0,-1
 372 1117 l 1,1,-1
 744 1117 l 1,2,-1
 744 744 l 1,3,-1
 372 744 l 1,0,-1
1861 744 m 1,4,-1
 1861 1117 l 1,5,-1
 2234 1117 l 1,6,-1
 2234 744 l 1,7,-1
 1861 744 l 1,4,-1
744 1117 m 1,8,-1
 744 1489 l 1,9,-1
 1117 1489 l 1,10,-1
 1117 1117 l 1,11,-1
 744 1117 l 1,8,-1
1489 1117 m 1,12,-1
 1489 1489 l 1,13,-1
 1861 1489 l 1,14,-1
 1861 1117 l 1,15,-1
 1489 1117 l 1,12,-1
1117 1489 m 1,16,-1
 1117 1861 l 1,17,-1
 1489 1861 l 1,18,-1
 1489 1489 l 1,19,-1
 1117 1489 l 1,16,-1
744 1861 m 1,20,-1
 744 2234 l 1,21,-1
 1117 2234 l 1,22,-1
 1117 1861 l 1,23,-1
 744 1861 l 1,20,-1
1489 1861 m 1,24,-1
 1489 2234 l 1,25,-1
 1861 2234 l 1,26,-1
 1861 1861 l 1,27,-1
 1489 1861 l 1,24,-1
372 2234 m 1,28,-1
 372 2606 l 1,29,-1
 744 2606 l 1,30,-1
 744 2234 l 1,31,-1
 372 2234 l 1,28,-1
1861 2234 m 1,32,-1
 1861 2606 l 1,33,-1
 2234 2606 l 1,34,-1
 2234 2234 l 1,35,-1
 1861 2234 l 1,32,-1
EndSplineSet
EndChar

StartChar: Oslash
Encoding: 216 216 139
Width: 3165
GlyphClass: 2
Flags: W
LayerCount: 2
Fore
SplineSet
372 0 m 1,0,-1
 372 372 l 1,1,-1
 744 372 l 1,2,-1
 744 0 l 1,3,-1
 372 0 l 1,0,-1
1117 0 m 1,4,-1
 1117 372 l 1,5,-1
 2234 372 l 1,6,-1
 2234 0 l 1,7,-1
 1117 0 l 1,4,-1
1489 1117 m 1,8,-1
 1489 1861 l 1,9,-1
 1861 1861 l 1,10,-1
 1861 1117 l 1,11,-1
 1489 1117 l 1,8,-1
2234 372 m 1,12,-1
 2234 1861 l 1,13,-1
 1861 1861 l 1,14,-1
 1861 2234 l 1,15,-1
 2234 2234 l 1,16,-1
 2234 2606 l 1,17,-1
 2606 2606 l 1,18,-1
 2606 2420 l 1,19,-1
 2978 2420 l 1,20,-1
 2978 372 l 1,21,-1
 2234 372 l 1,12,-1
744 372 m 1,22,-1
 744 744 l 1,23,-1
 372 744 l 1,24,-1
 372 2606 l 1,25,-1
 744 2606 l 1,26,-1
 744 2978 l 1,27,-1
 2234 2978 l 1,28,-1
 2234 2606 l 1,29,-1
 1117 2606 l 1,30,-1
 1117 1117 l 1,31,-1
 1489 1117 l 1,32,-1
 1489 744 l 1,33,-1
 1117 744 l 1,34,-1
 1117 372 l 1,35,-1
 744 372 l 1,22,-1
2606 2606 m 1,36,-1
 2606 2978 l 1,37,-1
 2978 2978 l 1,38,-1
 2978 2606 l 1,39,-1
 2606 2606 l 1,36,-1
EndSplineSet
EndChar

StartChar: Ugrave
Encoding: 217 217 140
Width: 3165
GlyphClass: 2
Flags: W
LayerCount: 2
Fore
SplineSet
744 0 m 1,0,-1
 744 372 l 1,1,-1
 372 372 l 1,2,-1
 372 2978 l 1,3,-1
 1117 2978 l 1,4,-1
 1117 372 l 1,5,-1
 2234 372 l 1,6,-1
 2234 2978 l 1,7,-1
 2978 2978 l 1,8,-1
 2978 372 l 1,9,-1
 2606 372 l 1,10,-1
 2606 0 l 1,11,-1
 744 0 l 1,0,-1
1303 3351 m 1,12,-1
 1303 3723 l 1,13,-1
 930 3723 l 1,14,-1
 930 4096 l 1,15,-1
 1675 4096 l 1,16,-1
 1675 3723 l 1,17,-1
 2048 3723 l 1,18,-1
 2048 3351 l 1,19,-1
 1303 3351 l 1,12,-1
EndSplineSet
EndChar

StartChar: Uacute
Encoding: 218 218 141
Width: 3165
GlyphClass: 2
Flags: W
LayerCount: 2
Fore
SplineSet
744 0 m 1,0,-1
 744 372 l 1,1,-1
 372 372 l 1,2,-1
 372 2978 l 1,3,-1
 1117 2978 l 1,4,-1
 1117 372 l 1,5,-1
 2234 372 l 1,6,-1
 2234 2978 l 1,7,-1
 2978 2978 l 1,8,-1
 2978 372 l 1,9,-1
 2606 372 l 1,10,-1
 2606 0 l 1,11,-1
 744 0 l 1,0,-1
1303 3351 m 1,12,-1
 1303 3723 l 1,13,-1
 1675 3723 l 1,14,-1
 1675 4096 l 1,15,-1
 2420 4096 l 1,16,-1
 2420 3723 l 1,17,-1
 2048 3723 l 1,18,-1
 2048 3351 l 1,19,-1
 1303 3351 l 1,12,-1
EndSplineSet
EndChar

StartChar: Ucircumflex
Encoding: 219 219 142
Width: 3165
GlyphClass: 2
Flags: W
LayerCount: 2
Fore
SplineSet
744 0 m 1,0,-1
 744 372 l 1,1,-1
 372 372 l 1,2,-1
 372 2978 l 1,3,-1
 1117 2978 l 1,4,-1
 1117 372 l 1,5,-1
 2234 372 l 1,6,-1
 2234 2978 l 1,7,-1
 2978 2978 l 1,8,-1
 2978 372 l 1,9,-1
 2606 372 l 1,10,-1
 2606 0 l 1,11,-1
 744 0 l 1,0,-1
744 3351 m 1,12,-1
 744 3723 l 1,13,-1
 1117 3723 l 1,14,-1
 1117 4096 l 1,15,-1
 2234 4096 l 1,16,-1
 2234 3723 l 1,17,-1
 2606 3723 l 1,18,-1
 2606 3351 l 1,19,-1
 1861 3351 l 1,20,-1
 1861 3723 l 1,21,-1
 1489 3723 l 1,22,-1
 1489 3351 l 1,23,-1
 744 3351 l 1,12,-1
EndSplineSet
EndChar

StartChar: Udieresis
Encoding: 220 220 143
Width: 3165
GlyphClass: 2
Flags: W
LayerCount: 2
Fore
SplineSet
744 0 m 1,0,-1
 744 372 l 1,1,-1
 372 372 l 1,2,-1
 372 2978 l 1,3,-1
 1117 2978 l 1,4,-1
 1117 372 l 1,5,-1
 2234 372 l 1,6,-1
 2234 2978 l 1,7,-1
 2978 2978 l 1,8,-1
 2978 372 l 1,9,-1
 2606 372 l 1,10,-1
 2606 0 l 1,11,-1
 744 0 l 1,0,-1
744 3351 m 1,12,-1
 744 4096 l 1,13,-1
 1489 4096 l 1,14,-1
 1489 3351 l 1,15,-1
 744 3351 l 1,12,-1
1861 3351 m 1,16,-1
 1861 4096 l 1,17,-1
 2606 4096 l 1,18,-1
 2606 3351 l 1,19,-1
 1861 3351 l 1,16,-1
EndSplineSet
EndChar

StartChar: Yacute
Encoding: 221 221 144
Width: 3165
GlyphClass: 2
Flags: W
LayerCount: 2
Fore
SplineSet
1303 0 m 1,0,-1
 1303 1117 l 1,1,-1
 1117 1117 l 1,2,-1
 1117 1489 l 1,3,-1
 744 1489 l 1,4,-1
 744 1861 l 1,5,-1
 372 1861 l 1,6,-1
 372 2978 l 1,7,-1
 1117 2978 l 1,8,-1
 1117 1861 l 1,9,-1
 1489 1861 l 1,10,-1
 1489 1489 l 1,11,-1
 1861 1489 l 1,12,-1
 1861 1861 l 1,13,-1
 2234 1861 l 1,14,-1
 2234 2978 l 1,15,-1
 2978 2978 l 1,16,-1
 2978 1861 l 1,17,-1
 2606 1861 l 1,18,-1
 2606 1489 l 1,19,-1
 2234 1489 l 1,20,-1
 2234 1117 l 1,21,-1
 2048 1117 l 1,22,-1
 2048 0 l 1,23,-1
 1303 0 l 1,0,-1
1303 3351 m 1,24,-1
 1303 3723 l 1,25,-1
 1675 3723 l 1,26,-1
 1675 4096 l 1,27,-1
 2420 4096 l 1,28,-1
 2420 3723 l 1,29,-1
 2048 3723 l 1,30,-1
 2048 3351 l 1,31,-1
 1303 3351 l 1,24,-1
EndSplineSet
EndChar

StartChar: Thorn
Encoding: 222 222 145
Width: 3165
GlyphClass: 2
Flags: W
LayerCount: 2
Fore
SplineSet
2234 744 m 1,0,-1
 2234 2234 l 1,1,-1
 1117 2234 l 1,2,-1
 1117 744 l 1,3,-1
 2234 744 l 1,0,-1
372 0 m 1,4,-1
 372 2978 l 1,5,-1
 1117 2978 l 1,6,-1
 1117 2606 l 1,7,-1
 2606 2606 l 1,8,-1
 2606 2234 l 1,9,-1
 2978 2234 l 1,10,-1
 2978 744 l 1,11,-1
 2606 744 l 1,12,-1
 2606 372 l 1,13,-1
 1117 372 l 1,14,-1
 1117 0 l 1,15,-1
 372 0 l 1,4,-1
EndSplineSet
EndChar

StartChar: germandbls
Encoding: 223 223 146
Width: 3165
GlyphClass: 2
Flags: W
LayerCount: 2
Fore
SplineSet
372 0 m 1,0,-1
 372 2978 l 1,1,-1
 2234 2978 l 1,2,-1
 2234 2606 l 1,3,-1
 2606 2606 l 1,4,-1
 2606 1861 l 1,5,-1
 2234 1861 l 1,6,-1
 2234 1117 l 1,7,-1
 2606 1117 l 1,8,-1
 2606 744 l 1,9,-1
 2978 744 l 1,10,-1
 2978 372 l 1,11,-1
 2606 372 l 1,12,-1
 2606 0 l 1,13,-1
 1489 0 l 1,14,-1
 1489 372 l 1,15,-1
 1303 372 l 1,16,-1
 1303 744 l 1,17,-1
 1861 744 l 1,18,-1
 1861 372 l 1,19,-1
 2234 372 l 1,20,-1
 2234 744 l 1,21,-1
 1861 744 l 1,22,-1
 1861 1117 l 1,23,-1
 1489 1117 l 1,24,-1
 1489 1861 l 1,25,-1
 1861 1861 l 1,26,-1
 1861 2606 l 1,27,-1
 1117 2606 l 1,28,-1
 1117 0 l 1,29,-1
 372 0 l 1,0,-1
EndSplineSet
EndChar

StartChar: agrave
Encoding: 224 224 147
Width: 3165
GlyphClass: 2
Flags: W
LayerCount: 2
Fore
SplineSet
2234 372 m 1,0,-1
 2234 744 l 1,1,-1
 1117 744 l 1,2,-1
 1117 372 l 1,3,-1
 2234 372 l 1,0,-1
744 0 m 1,4,-1
 744 372 l 1,5,-1
 372 372 l 1,6,-1
 372 744 l 1,7,-1
 744 744 l 1,8,-1
 744 1117 l 1,9,-1
 2234 1117 l 1,10,-1
 2234 1489 l 1,11,-1
 744 1489 l 1,12,-1
 744 1861 l 1,13,-1
 2606 1861 l 1,14,-1
 2606 1489 l 1,15,-1
 2978 1489 l 1,16,-1
 2978 0 l 1,17,-1
 744 0 l 1,4,-1
1303 2234 m 1,18,-1
 1303 2606 l 1,19,-1
 930 2606 l 1,20,-1
 930 2978 l 1,21,-1
 1675 2978 l 1,22,-1
 1675 2606 l 1,23,-1
 2048 2606 l 1,24,-1
 2048 2234 l 1,25,-1
 1303 2234 l 1,18,-1
EndSplineSet
EndChar

StartChar: aacute
Encoding: 225 225 148
Width: 3165
GlyphClass: 2
Flags: W
LayerCount: 2
Fore
SplineSet
2234 372 m 1,0,-1
 2234 744 l 1,1,-1
 1117 744 l 1,2,-1
 1117 372 l 1,3,-1
 2234 372 l 1,0,-1
744 0 m 1,4,-1
 744 372 l 1,5,-1
 372 372 l 1,6,-1
 372 744 l 1,7,-1
 744 744 l 1,8,-1
 744 1117 l 1,9,-1
 2234 1117 l 1,10,-1
 2234 1489 l 1,11,-1
 744 1489 l 1,12,-1
 744 1861 l 1,13,-1
 2606 1861 l 1,14,-1
 2606 1489 l 1,15,-1
 2978 1489 l 1,16,-1
 2978 0 l 1,17,-1
 744 0 l 1,4,-1
1303 2234 m 1,18,-1
 1303 2606 l 1,19,-1
 1675 2606 l 1,20,-1
 1675 2978 l 1,21,-1
 2420 2978 l 1,22,-1
 2420 2606 l 1,23,-1
 2048 2606 l 1,24,-1
 2048 2234 l 1,25,-1
 1303 2234 l 1,18,-1
EndSplineSet
EndChar

StartChar: acircumflex
Encoding: 226 226 149
Width: 3165
GlyphClass: 2
Flags: W
LayerCount: 2
Fore
SplineSet
2234 372 m 1,0,-1
 2234 744 l 1,1,-1
 1117 744 l 1,2,-1
 1117 372 l 1,3,-1
 2234 372 l 1,0,-1
744 0 m 1,4,-1
 744 372 l 1,5,-1
 372 372 l 1,6,-1
 372 744 l 1,7,-1
 744 744 l 1,8,-1
 744 1117 l 1,9,-1
 2234 1117 l 1,10,-1
 2234 1489 l 1,11,-1
 744 1489 l 1,12,-1
 744 1861 l 1,13,-1
 2606 1861 l 1,14,-1
 2606 1489 l 1,15,-1
 2978 1489 l 1,16,-1
 2978 0 l 1,17,-1
 744 0 l 1,4,-1
744 2234 m 1,18,-1
 744 2606 l 1,19,-1
 1117 2606 l 1,20,-1
 1117 2978 l 1,21,-1
 2234 2978 l 1,22,-1
 2234 2606 l 1,23,-1
 2606 2606 l 1,24,-1
 2606 2234 l 1,25,-1
 1861 2234 l 1,26,-1
 1861 2606 l 1,27,-1
 1489 2606 l 1,28,-1
 1489 2234 l 1,29,-1
 744 2234 l 1,18,-1
EndSplineSet
EndChar

StartChar: atilde
Encoding: 227 227 150
Width: 3165
GlyphClass: 2
Flags: W
LayerCount: 2
Fore
SplineSet
2234 372 m 1,0,-1
 2234 744 l 1,1,-1
 1117 744 l 1,2,-1
 1117 372 l 1,3,-1
 2234 372 l 1,0,-1
744 0 m 1,4,-1
 744 372 l 1,5,-1
 372 372 l 1,6,-1
 372 744 l 1,7,-1
 744 744 l 1,8,-1
 744 1117 l 1,9,-1
 2234 1117 l 1,10,-1
 2234 1489 l 1,11,-1
 744 1489 l 1,12,-1
 744 1861 l 1,13,-1
 2606 1861 l 1,14,-1
 2606 1489 l 1,15,-1
 2978 1489 l 1,16,-1
 2978 0 l 1,17,-1
 744 0 l 1,4,-1
930 2234 m 1,18,-1
 930 2606 l 1,19,-1
 1303 2606 l 1,20,-1
 1303 2234 l 1,21,-1
 930 2234 l 1,18,-1
1675 2234 m 1,22,-1
 1675 2606 l 1,23,-1
 2048 2606 l 1,24,-1
 2048 2234 l 1,25,-1
 1675 2234 l 1,22,-1
1303 2606 m 1,26,-1
 1303 2978 l 1,27,-1
 1675 2978 l 1,28,-1
 1675 2606 l 1,29,-1
 1303 2606 l 1,26,-1
2048 2606 m 1,30,-1
 2048 2978 l 1,31,-1
 2420 2978 l 1,32,-1
 2420 2606 l 1,33,-1
 2048 2606 l 1,30,-1
EndSplineSet
EndChar

StartChar: adieresis
Encoding: 228 228 151
Width: 3165
GlyphClass: 2
Flags: W
LayerCount: 2
Fore
SplineSet
2234 372 m 1,0,-1
 2234 744 l 1,1,-1
 1117 744 l 1,2,-1
 1117 372 l 1,3,-1
 2234 372 l 1,0,-1
744 0 m 1,4,-1
 744 372 l 1,5,-1
 372 372 l 1,6,-1
 372 744 l 1,7,-1
 744 744 l 1,8,-1
 744 1117 l 1,9,-1
 2234 1117 l 1,10,-1
 2234 1489 l 1,11,-1
 744 1489 l 1,12,-1
 744 1861 l 1,13,-1
 2606 1861 l 1,14,-1
 2606 1489 l 1,15,-1
 2978 1489 l 1,16,-1
 2978 0 l 1,17,-1
 744 0 l 1,4,-1
744 2234 m 1,18,-1
 744 2978 l 1,19,-1
 1489 2978 l 1,20,-1
 1489 2234 l 1,21,-1
 744 2234 l 1,18,-1
1861 2234 m 1,22,-1
 1861 2978 l 1,23,-1
 2606 2978 l 1,24,-1
 2606 2234 l 1,25,-1
 1861 2234 l 1,22,-1
EndSplineSet
EndChar

StartChar: aring
Encoding: 229 229 152
Width: 3165
GlyphClass: 2
Flags: W
LayerCount: 2
Fore
SplineSet
2234 372 m 1,0,-1
 2234 744 l 1,1,-1
 1117 744 l 1,2,-1
 1117 372 l 1,3,-1
 2234 372 l 1,0,-1
744 0 m 1,4,-1
 744 372 l 1,5,-1
 372 372 l 1,6,-1
 372 744 l 1,7,-1
 744 744 l 1,8,-1
 744 1117 l 1,9,-1
 2234 1117 l 1,10,-1
 2234 1489 l 1,11,-1
 744 1489 l 1,12,-1
 744 1861 l 1,13,-1
 1489 1861 l 1,14,-1
 1489 2234 l 1,15,-1
 1861 2234 l 1,16,-1
 1861 1861 l 1,17,-1
 2606 1861 l 1,18,-1
 2606 1489 l 1,19,-1
 2978 1489 l 1,20,-1
 2978 0 l 1,21,-1
 744 0 l 1,4,-1
1117 2234 m 1,22,-1
 1117 2606 l 1,23,-1
 1489 2606 l 1,24,-1
 1489 2234 l 1,25,-1
 1117 2234 l 1,22,-1
1861 2234 m 1,26,-1
 1861 2606 l 1,27,-1
 2234 2606 l 1,28,-1
 2234 2234 l 1,29,-1
 1861 2234 l 1,26,-1
1489 2606 m 1,30,-1
 1489 2978 l 1,31,-1
 1861 2978 l 1,32,-1
 1861 2606 l 1,33,-1
 1489 2606 l 1,30,-1
EndSplineSet
EndChar

StartChar: ae
Encoding: 230 230 153
Width: 5399
GlyphClass: 2
Flags: W
LayerCount: 2
Fore
SplineSet
2234 372 m 1,0,-1
 2234 744 l 1,1,-1
 1117 744 l 1,2,-1
 1117 372 l 1,3,-1
 2234 372 l 1,0,-1
4468 1117 m 1,4,-1
 4468 1489 l 1,5,-1
 3351 1489 l 1,6,-1
 3351 1117 l 1,7,-1
 4468 1117 l 1,4,-1
744 0 m 1,8,-1
 744 372 l 1,9,-1
 372 372 l 1,10,-1
 372 744 l 1,11,-1
 744 744 l 1,12,-1
 744 1117 l 1,13,-1
 2234 1117 l 1,14,-1
 2234 1489 l 1,15,-1
 744 1489 l 1,16,-1
 744 1861 l 1,17,-1
 2606 1861 l 1,18,-1
 2606 1489 l 1,19,-1
 2978 1489 l 1,20,-1
 2978 1861 l 1,21,-1
 4840 1861 l 1,22,-1
 4840 1489 l 1,23,-1
 5213 1489 l 1,24,-1
 5213 744 l 1,25,-1
 3351 744 l 1,26,-1
 3351 372 l 1,27,-1
 4840 372 l 1,28,-1
 4840 0 l 1,29,-1
 2978 0 l 1,30,-1
 2978 372 l 1,31,-1
 2606 372 l 1,32,-1
 2606 0 l 1,33,-1
 744 0 l 1,8,-1
EndSplineSet
EndChar

StartChar: ccedilla
Encoding: 231 231 154
Width: 3165
GlyphClass: 2
Flags: W
LayerCount: 2
Fore
SplineSet
1117 -744 m 1,0,-1
 1117 -372 l 1,1,-1
 1861 -372 l 1,2,-1
 1861 0 l 1,3,-1
 744 0 l 1,4,-1
 744 372 l 1,5,-1
 372 372 l 1,6,-1
 372 1489 l 1,7,-1
 744 1489 l 1,8,-1
 744 1861 l 1,9,-1
 2606 1861 l 1,10,-1
 2606 1489 l 1,11,-1
 2978 1489 l 1,12,-1
 2978 1117 l 1,13,-1
 2234 1117 l 1,14,-1
 2234 1489 l 1,15,-1
 1117 1489 l 1,16,-1
 1117 372 l 1,17,-1
 2234 372 l 1,18,-1
 2234 744 l 1,19,-1
 2978 744 l 1,20,-1
 2978 372 l 1,21,-1
 2606 372 l 1,22,-1
 2606 -372 l 1,23,-1
 2234 -372 l 1,24,-1
 2234 -744 l 1,25,-1
 1117 -744 l 1,0,-1
EndSplineSet
EndChar

StartChar: egrave
Encoding: 232 232 155
Width: 3165
GlyphClass: 2
Flags: W
LayerCount: 2
Fore
SplineSet
2234 1117 m 1,0,-1
 2234 1489 l 1,1,-1
 1117 1489 l 1,2,-1
 1117 1117 l 1,3,-1
 2234 1117 l 1,0,-1
744 0 m 1,4,-1
 744 372 l 1,5,-1
 372 372 l 1,6,-1
 372 1489 l 1,7,-1
 744 1489 l 1,8,-1
 744 1861 l 1,9,-1
 2606 1861 l 1,10,-1
 2606 1489 l 1,11,-1
 2978 1489 l 1,12,-1
 2978 744 l 1,13,-1
 1117 744 l 1,14,-1
 1117 372 l 1,15,-1
 2606 372 l 1,16,-1
 2606 0 l 1,17,-1
 744 0 l 1,4,-1
1303 2234 m 1,18,-1
 1303 2606 l 1,19,-1
 930 2606 l 1,20,-1
 930 2978 l 1,21,-1
 1675 2978 l 1,22,-1
 1675 2606 l 1,23,-1
 2048 2606 l 1,24,-1
 2048 2234 l 1,25,-1
 1303 2234 l 1,18,-1
EndSplineSet
EndChar

StartChar: eacute
Encoding: 233 233 156
Width: 3165
GlyphClass: 2
Flags: W
LayerCount: 2
Fore
SplineSet
2234 1117 m 1,0,-1
 2234 1489 l 1,1,-1
 1117 1489 l 1,2,-1
 1117 1117 l 1,3,-1
 2234 1117 l 1,0,-1
744 0 m 1,4,-1
 744 372 l 1,5,-1
 372 372 l 1,6,-1
 372 1489 l 1,7,-1
 744 1489 l 1,8,-1
 744 1861 l 1,9,-1
 2606 1861 l 1,10,-1
 2606 1489 l 1,11,-1
 2978 1489 l 1,12,-1
 2978 744 l 1,13,-1
 1117 744 l 1,14,-1
 1117 372 l 1,15,-1
 2606 372 l 1,16,-1
 2606 0 l 1,17,-1
 744 0 l 1,4,-1
1303 2234 m 1,18,-1
 1303 2606 l 1,19,-1
 1675 2606 l 1,20,-1
 1675 2978 l 1,21,-1
 2420 2978 l 1,22,-1
 2420 2606 l 1,23,-1
 2048 2606 l 1,24,-1
 2048 2234 l 1,25,-1
 1303 2234 l 1,18,-1
EndSplineSet
EndChar

StartChar: ecircumflex
Encoding: 234 234 157
Width: 3165
GlyphClass: 2
Flags: W
LayerCount: 2
Fore
SplineSet
2234 1117 m 1,0,-1
 2234 1489 l 1,1,-1
 1117 1489 l 1,2,-1
 1117 1117 l 1,3,-1
 2234 1117 l 1,0,-1
744 0 m 1,4,-1
 744 372 l 1,5,-1
 372 372 l 1,6,-1
 372 1489 l 1,7,-1
 744 1489 l 1,8,-1
 744 1861 l 1,9,-1
 2606 1861 l 1,10,-1
 2606 1489 l 1,11,-1
 2978 1489 l 1,12,-1
 2978 744 l 1,13,-1
 1117 744 l 1,14,-1
 1117 372 l 1,15,-1
 2606 372 l 1,16,-1
 2606 0 l 1,17,-1
 744 0 l 1,4,-1
744 2234 m 1,18,-1
 744 2606 l 1,19,-1
 1117 2606 l 1,20,-1
 1117 2978 l 1,21,-1
 2234 2978 l 1,22,-1
 2234 2606 l 1,23,-1
 2606 2606 l 1,24,-1
 2606 2234 l 1,25,-1
 1861 2234 l 1,26,-1
 1861 2606 l 1,27,-1
 1489 2606 l 1,28,-1
 1489 2234 l 1,29,-1
 744 2234 l 1,18,-1
EndSplineSet
EndChar

StartChar: edieresis
Encoding: 235 235 158
Width: 3165
GlyphClass: 2
Flags: W
LayerCount: 2
Fore
SplineSet
2234 1117 m 1,0,-1
 2234 1489 l 1,1,-1
 1117 1489 l 1,2,-1
 1117 1117 l 1,3,-1
 2234 1117 l 1,0,-1
744 0 m 1,4,-1
 744 372 l 1,5,-1
 372 372 l 1,6,-1
 372 1489 l 1,7,-1
 744 1489 l 1,8,-1
 744 1861 l 1,9,-1
 2606 1861 l 1,10,-1
 2606 1489 l 1,11,-1
 2978 1489 l 1,12,-1
 2978 744 l 1,13,-1
 1117 744 l 1,14,-1
 1117 372 l 1,15,-1
 2606 372 l 1,16,-1
 2606 0 l 1,17,-1
 744 0 l 1,4,-1
744 2234 m 1,18,-1
 744 2978 l 1,19,-1
 1489 2978 l 1,20,-1
 1489 2234 l 1,21,-1
 744 2234 l 1,18,-1
1861 2234 m 1,22,-1
 1861 2978 l 1,23,-1
 2606 2978 l 1,24,-1
 2606 2234 l 1,25,-1
 1861 2234 l 1,22,-1
EndSplineSet
EndChar

StartChar: igrave
Encoding: 236 236 159
Width: 1303
GlyphClass: 2
Flags: W
LayerCount: 2
Fore
SplineSet
372 0 m 1,0,-1
 372 1861 l 1,1,-1
 1117 1861 l 1,2,-1
 1117 0 l 1,3,-1
 372 0 l 1,0,-1
372 2234 m 1,4,-1
 372 2606 l 1,5,-1
 0 2606 l 1,6,-1
 0 2978 l 1,7,-1
 744 2978 l 1,8,-1
 744 2606 l 1,9,-1
 1117 2606 l 1,10,-1
 1117 2234 l 1,11,-1
 372 2234 l 1,4,-1
EndSplineSet
EndChar

StartChar: iacute
Encoding: 237 237 160
Width: 1675
GlyphClass: 2
Flags: W
LayerCount: 2
Fore
SplineSet
372 0 m 1,0,-1
 372 1861 l 1,1,-1
 1117 1861 l 1,2,-1
 1117 0 l 1,3,-1
 372 0 l 1,0,-1
372 2234 m 1,4,-1
 372 2606 l 1,5,-1
 744 2606 l 1,6,-1
 744 2978 l 1,7,-1
 1489 2978 l 1,8,-1
 1489 2606 l 1,9,-1
 1117 2606 l 1,10,-1
 1117 2234 l 1,11,-1
 372 2234 l 1,4,-1
EndSplineSet
EndChar

StartChar: icircumflex
Encoding: 238 238 161
Width: 1861
GlyphClass: 2
Flags: W
LayerCount: 2
Fore
SplineSet
372 0 m 1,0,-1
 372 1861 l 1,1,-1
 1117 1861 l 1,2,-1
 1117 0 l 1,3,-1
 372 0 l 1,0,-1
-186 2234 m 1,4,-1
 -186 2606 l 1,5,-1
 186 2606 l 1,6,-1
 186 2978 l 1,7,-1
 1303 2978 l 1,8,-1
 1303 2606 l 1,9,-1
 1675 2606 l 1,10,-1
 1675 2234 l 1,11,-1
 930 2234 l 1,12,-1
 930 2606 l 1,13,-1
 558 2606 l 1,14,-1
 558 2234 l 1,15,-1
 -186 2234 l 1,4,-1
EndSplineSet
EndChar

StartChar: idieresis
Encoding: 239 239 162
Width: 1861
GlyphClass: 2
Flags: W
LayerCount: 2
Fore
SplineSet
372 0 m 1,0,-1
 372 1861 l 1,1,-1
 1117 1861 l 1,2,-1
 1117 0 l 1,3,-1
 372 0 l 1,0,-1
-186 2234 m 1,4,-1
 -186 2978 l 1,5,-1
 558 2978 l 1,6,-1
 558 2234 l 1,7,-1
 -186 2234 l 1,4,-1
930 2234 m 1,8,-1
 930 2978 l 1,9,-1
 1675 2978 l 1,10,-1
 1675 2234 l 1,11,-1
 930 2234 l 1,8,-1
EndSplineSet
EndChar

StartChar: eth
Encoding: 240 240 163
Width: 3537
GlyphClass: 2
Flags: W
LayerCount: 2
Fore
SplineSet
2234 372 m 1,0,-1
 2234 1489 l 1,1,-1
 1117 1489 l 1,2,-1
 1117 372 l 1,3,-1
 2234 372 l 1,0,-1
744 0 m 1,4,-1
 744 372 l 1,5,-1
 372 372 l 1,6,-1
 372 1489 l 1,7,-1
 744 1489 l 1,8,-1
 744 1861 l 1,9,-1
 2234 1861 l 1,10,-1
 2234 2234 l 1,11,-1
 1489 2234 l 1,12,-1
 1489 2606 l 1,13,-1
 2234 2606 l 1,14,-1
 2234 2978 l 1,15,-1
 2978 2978 l 1,16,-1
 2978 2606 l 1,17,-1
 3351 2606 l 1,18,-1
 3351 2234 l 1,19,-1
 2978 2234 l 1,20,-1
 2978 372 l 1,21,-1
 2606 372 l 1,22,-1
 2606 0 l 1,23,-1
 744 0 l 1,4,-1
EndSplineSet
EndChar

StartChar: ntilde
Encoding: 241 241 164
Width: 3165
GlyphClass: 2
Flags: W
LayerCount: 2
Fore
SplineSet
372 0 m 1,0,-1
 372 1861 l 1,1,-1
 2606 1861 l 1,2,-1
 2606 1489 l 1,3,-1
 2978 1489 l 1,4,-1
 2978 0 l 1,5,-1
 2234 0 l 1,6,-1
 2234 1489 l 1,7,-1
 1117 1489 l 1,8,-1
 1117 0 l 1,9,-1
 372 0 l 1,0,-1
930 2234 m 1,10,-1
 930 2606 l 1,11,-1
 1303 2606 l 1,12,-1
 1303 2234 l 1,13,-1
 930 2234 l 1,10,-1
1675 2234 m 1,14,-1
 1675 2606 l 1,15,-1
 2048 2606 l 1,16,-1
 2048 2234 l 1,17,-1
 1675 2234 l 1,14,-1
1303 2606 m 1,18,-1
 1303 2978 l 1,19,-1
 1675 2978 l 1,20,-1
 1675 2606 l 1,21,-1
 1303 2606 l 1,18,-1
2048 2606 m 1,22,-1
 2048 2978 l 1,23,-1
 2420 2978 l 1,24,-1
 2420 2606 l 1,25,-1
 2048 2606 l 1,22,-1
EndSplineSet
EndChar

StartChar: ograve
Encoding: 242 242 165
Width: 3165
GlyphClass: 2
Flags: W
LayerCount: 2
Fore
SplineSet
2234 372 m 1,0,-1
 2234 1489 l 1,1,-1
 1117 1489 l 1,2,-1
 1117 372 l 1,3,-1
 2234 372 l 1,0,-1
744 0 m 1,4,-1
 744 372 l 1,5,-1
 372 372 l 1,6,-1
 372 1489 l 1,7,-1
 744 1489 l 1,8,-1
 744 1861 l 1,9,-1
 2606 1861 l 1,10,-1
 2606 1489 l 1,11,-1
 2978 1489 l 1,12,-1
 2978 372 l 1,13,-1
 2606 372 l 1,14,-1
 2606 0 l 1,15,-1
 744 0 l 1,4,-1
1303 2234 m 1,16,-1
 1303 2606 l 1,17,-1
 930 2606 l 1,18,-1
 930 2978 l 1,19,-1
 1675 2978 l 1,20,-1
 1675 2606 l 1,21,-1
 2048 2606 l 1,22,-1
 2048 2234 l 1,23,-1
 1303 2234 l 1,16,-1
EndSplineSet
EndChar

StartChar: oacute
Encoding: 243 243 166
Width: 3165
GlyphClass: 2
Flags: W
LayerCount: 2
Fore
SplineSet
2234 372 m 1,0,-1
 2234 1489 l 1,1,-1
 1117 1489 l 1,2,-1
 1117 372 l 1,3,-1
 2234 372 l 1,0,-1
744 0 m 1,4,-1
 744 372 l 1,5,-1
 372 372 l 1,6,-1
 372 1489 l 1,7,-1
 744 1489 l 1,8,-1
 744 1861 l 1,9,-1
 2606 1861 l 1,10,-1
 2606 1489 l 1,11,-1
 2978 1489 l 1,12,-1
 2978 372 l 1,13,-1
 2606 372 l 1,14,-1
 2606 0 l 1,15,-1
 744 0 l 1,4,-1
1303 2234 m 1,16,-1
 1303 2606 l 1,17,-1
 1675 2606 l 1,18,-1
 1675 2978 l 1,19,-1
 2420 2978 l 1,20,-1
 2420 2606 l 1,21,-1
 2048 2606 l 1,22,-1
 2048 2234 l 1,23,-1
 1303 2234 l 1,16,-1
EndSplineSet
EndChar

StartChar: ocircumflex
Encoding: 244 244 167
Width: 3165
GlyphClass: 2
Flags: W
LayerCount: 2
Fore
SplineSet
2234 372 m 1,0,-1
 2234 1489 l 1,1,-1
 1117 1489 l 1,2,-1
 1117 372 l 1,3,-1
 2234 372 l 1,0,-1
744 0 m 1,4,-1
 744 372 l 1,5,-1
 372 372 l 1,6,-1
 372 1489 l 1,7,-1
 744 1489 l 1,8,-1
 744 1861 l 1,9,-1
 2606 1861 l 1,10,-1
 2606 1489 l 1,11,-1
 2978 1489 l 1,12,-1
 2978 372 l 1,13,-1
 2606 372 l 1,14,-1
 2606 0 l 1,15,-1
 744 0 l 1,4,-1
744 2234 m 1,16,-1
 744 2606 l 1,17,-1
 1117 2606 l 1,18,-1
 1117 2978 l 1,19,-1
 2234 2978 l 1,20,-1
 2234 2606 l 1,21,-1
 2606 2606 l 1,22,-1
 2606 2234 l 1,23,-1
 1861 2234 l 1,24,-1
 1861 2606 l 1,25,-1
 1489 2606 l 1,26,-1
 1489 2234 l 1,27,-1
 744 2234 l 1,16,-1
EndSplineSet
EndChar

StartChar: otilde
Encoding: 245 245 168
Width: 3165
GlyphClass: 2
Flags: W
LayerCount: 2
Fore
SplineSet
2234 372 m 1,0,-1
 2234 1489 l 1,1,-1
 1117 1489 l 1,2,-1
 1117 372 l 1,3,-1
 2234 372 l 1,0,-1
744 0 m 1,4,-1
 744 372 l 1,5,-1
 372 372 l 1,6,-1
 372 1489 l 1,7,-1
 744 1489 l 1,8,-1
 744 1861 l 1,9,-1
 2606 1861 l 1,10,-1
 2606 1489 l 1,11,-1
 2978 1489 l 1,12,-1
 2978 372 l 1,13,-1
 2606 372 l 1,14,-1
 2606 0 l 1,15,-1
 744 0 l 1,4,-1
930 2234 m 1,16,-1
 930 2606 l 1,17,-1
 1303 2606 l 1,18,-1
 1303 2234 l 1,19,-1
 930 2234 l 1,16,-1
1675 2234 m 1,20,-1
 1675 2606 l 1,21,-1
 2048 2606 l 1,22,-1
 2048 2234 l 1,23,-1
 1675 2234 l 1,20,-1
1303 2606 m 1,24,-1
 1303 2978 l 1,25,-1
 1675 2978 l 1,26,-1
 1675 2606 l 1,27,-1
 1303 2606 l 1,24,-1
2048 2606 m 1,28,-1
 2048 2978 l 1,29,-1
 2420 2978 l 1,30,-1
 2420 2606 l 1,31,-1
 2048 2606 l 1,28,-1
EndSplineSet
EndChar

StartChar: odieresis
Encoding: 246 246 169
Width: 3165
GlyphClass: 2
Flags: W
LayerCount: 2
Fore
SplineSet
2234 372 m 1,0,-1
 2234 1489 l 1,1,-1
 1117 1489 l 1,2,-1
 1117 372 l 1,3,-1
 2234 372 l 1,0,-1
744 0 m 1,4,-1
 744 372 l 1,5,-1
 372 372 l 1,6,-1
 372 1489 l 1,7,-1
 744 1489 l 1,8,-1
 744 1861 l 1,9,-1
 2606 1861 l 1,10,-1
 2606 1489 l 1,11,-1
 2978 1489 l 1,12,-1
 2978 372 l 1,13,-1
 2606 372 l 1,14,-1
 2606 0 l 1,15,-1
 744 0 l 1,4,-1
744 2234 m 1,16,-1
 744 2978 l 1,17,-1
 1489 2978 l 1,18,-1
 1489 2234 l 1,19,-1
 744 2234 l 1,16,-1
1861 2234 m 1,20,-1
 1861 2978 l 1,21,-1
 2606 2978 l 1,22,-1
 2606 2234 l 1,23,-1
 1861 2234 l 1,20,-1
EndSplineSet
EndChar

StartChar: divide
Encoding: 247 247 170
Width: 2792
GlyphClass: 2
Flags: W
LayerCount: 2
Fore
SplineSet
1117 372 m 1,0,-1
 1117 744 l 1,1,-1
 1861 744 l 1,2,-1
 1861 372 l 1,3,-1
 1117 372 l 1,0,-1
372 1117 m 1,4,-1
 372 1489 l 1,5,-1
 2606 1489 l 1,6,-1
 2606 1117 l 1,7,-1
 372 1117 l 1,4,-1
1117 1861 m 1,8,-1
 1117 2234 l 1,9,-1
 1861 2234 l 1,10,-1
 1861 1861 l 1,11,-1
 1117 1861 l 1,8,-1
EndSplineSet
EndChar

StartChar: oslash
Encoding: 248 248 171
Width: 3165
GlyphClass: 2
Flags: W
LayerCount: 2
Fore
SplineSet
2234 372 m 1,0,-1
 2234 1117 l 1,1,-1
 2048 1117 l 1,2,-1
 2048 930 l 1,3,-1
 1861 930 l 1,4,-1
 1861 744 l 1,5,-1
 1675 744 l 1,6,-1
 1675 558 l 1,7,-1
 1489 558 l 1,8,-1
 1489 372 l 1,9,-1
 2234 372 l 1,0,-1
1303 744 m 1,10,-1
 1303 930 l 1,11,-1
 1489 930 l 1,12,-1
 1489 1117 l 1,13,-1
 1675 1117 l 1,14,-1
 1675 1303 l 1,15,-1
 1861 1303 l 1,16,-1
 1861 1489 l 1,17,-1
 1117 1489 l 1,18,-1
 1117 744 l 1,19,-1
 1303 744 l 1,10,-1
372 0 m 1,20,-1
 372 372 l 1,21,-1
 558 372 l 1,22,-1
 558 558 l 1,23,-1
 744 558 l 1,24,-1
 744 744 l 1,25,-1
 372 744 l 1,26,-1
 372 1489 l 1,27,-1
 744 1489 l 1,28,-1
 744 1861 l 1,29,-1
 2234 1861 l 1,30,-1
 2234 1675 l 1,31,-1
 2420 1675 l 1,32,-1
 2420 1861 l 1,33,-1
 2978 1861 l 1,34,-1
 2978 1489 l 1,35,-1
 2792 1489 l 1,36,-1
 2792 1303 l 1,37,-1
 2606 1303 l 1,38,-1
 2606 1117 l 1,39,-1
 2978 1117 l 1,40,-1
 2978 372 l 1,41,-1
 2606 372 l 1,42,-1
 2606 0 l 1,43,-1
 1117 0 l 1,44,-1
 1117 186 l 1,45,-1
 744 186 l 1,46,-1
 744 0 l 1,47,-1
 372 0 l 1,20,-1
EndSplineSet
EndChar

StartChar: ugrave
Encoding: 249 249 172
Width: 3165
GlyphClass: 2
Flags: W
LayerCount: 2
Fore
SplineSet
744 0 m 1,0,-1
 744 372 l 1,1,-1
 372 372 l 1,2,-1
 372 1861 l 1,3,-1
 1117 1861 l 1,4,-1
 1117 372 l 1,5,-1
 2234 372 l 1,6,-1
 2234 1861 l 1,7,-1
 2978 1861 l 1,8,-1
 2978 0 l 1,9,-1
 744 0 l 1,0,-1
1303 2234 m 1,10,-1
 1303 2606 l 1,11,-1
 930 2606 l 1,12,-1
 930 2978 l 1,13,-1
 1675 2978 l 1,14,-1
 1675 2606 l 1,15,-1
 2048 2606 l 1,16,-1
 2048 2234 l 1,17,-1
 1303 2234 l 1,10,-1
EndSplineSet
EndChar

StartChar: uacute
Encoding: 250 250 173
Width: 3165
GlyphClass: 2
Flags: W
LayerCount: 2
Fore
SplineSet
744 0 m 1,0,-1
 744 372 l 1,1,-1
 372 372 l 1,2,-1
 372 1861 l 1,3,-1
 1117 1861 l 1,4,-1
 1117 372 l 1,5,-1
 2234 372 l 1,6,-1
 2234 1861 l 1,7,-1
 2978 1861 l 1,8,-1
 2978 0 l 1,9,-1
 744 0 l 1,0,-1
1303 2234 m 1,10,-1
 1303 2606 l 1,11,-1
 1675 2606 l 1,12,-1
 1675 2978 l 1,13,-1
 2420 2978 l 1,14,-1
 2420 2606 l 1,15,-1
 2048 2606 l 1,16,-1
 2048 2234 l 1,17,-1
 1303 2234 l 1,10,-1
EndSplineSet
EndChar

StartChar: ucircumflex
Encoding: 251 251 174
Width: 3165
GlyphClass: 2
Flags: W
LayerCount: 2
Fore
SplineSet
744 0 m 1,0,-1
 744 372 l 1,1,-1
 372 372 l 1,2,-1
 372 1861 l 1,3,-1
 1117 1861 l 1,4,-1
 1117 372 l 1,5,-1
 2234 372 l 1,6,-1
 2234 1861 l 1,7,-1
 2978 1861 l 1,8,-1
 2978 0 l 1,9,-1
 744 0 l 1,0,-1
744 2234 m 1,10,-1
 744 2606 l 1,11,-1
 1117 2606 l 1,12,-1
 1117 2978 l 1,13,-1
 2234 2978 l 1,14,-1
 2234 2606 l 1,15,-1
 2606 2606 l 1,16,-1
 2606 2234 l 1,17,-1
 1861 2234 l 1,18,-1
 1861 2606 l 1,19,-1
 1489 2606 l 1,20,-1
 1489 2234 l 1,21,-1
 744 2234 l 1,10,-1
EndSplineSet
EndChar

StartChar: udieresis
Encoding: 252 252 175
Width: 3165
GlyphClass: 2
Flags: W
LayerCount: 2
Fore
SplineSet
744 0 m 1,0,-1
 744 372 l 1,1,-1
 372 372 l 1,2,-1
 372 1861 l 1,3,-1
 1117 1861 l 1,4,-1
 1117 372 l 1,5,-1
 2234 372 l 1,6,-1
 2234 1861 l 1,7,-1
 2978 1861 l 1,8,-1
 2978 0 l 1,9,-1
 744 0 l 1,0,-1
744 2234 m 1,10,-1
 744 2978 l 1,11,-1
 1489 2978 l 1,12,-1
 1489 2234 l 1,13,-1
 744 2234 l 1,10,-1
1861 2234 m 1,14,-1
 1861 2978 l 1,15,-1
 2606 2978 l 1,16,-1
 2606 2234 l 1,17,-1
 1861 2234 l 1,14,-1
EndSplineSet
EndChar

StartChar: yacute
Encoding: 253 253 176
Width: 3165
GlyphClass: 2
Flags: W
LayerCount: 2
Fore
SplineSet
744 -1117 m 1,0,-1
 744 -744 l 1,1,-1
 2234 -744 l 1,2,-1
 2234 0 l 1,3,-1
 744 0 l 1,4,-1
 744 372 l 1,5,-1
 372 372 l 1,6,-1
 372 1861 l 1,7,-1
 1117 1861 l 1,8,-1
 1117 372 l 1,9,-1
 2234 372 l 1,10,-1
 2234 1861 l 1,11,-1
 2978 1861 l 1,12,-1
 2978 -744 l 1,13,-1
 2606 -744 l 1,14,-1
 2606 -1117 l 1,15,-1
 744 -1117 l 1,0,-1
1303 2234 m 1,16,-1
 1303 2606 l 1,17,-1
 1675 2606 l 1,18,-1
 1675 2978 l 1,19,-1
 2420 2978 l 1,20,-1
 2420 2606 l 1,21,-1
 2048 2606 l 1,22,-1
 2048 2234 l 1,23,-1
 1303 2234 l 1,16,-1
EndSplineSet
EndChar

StartChar: thorn
Encoding: 254 254 177
Width: 3165
GlyphClass: 2
Flags: W
LayerCount: 2
Fore
SplineSet
2234 372 m 1,0,-1
 2234 1489 l 1,1,-1
 1117 1489 l 1,2,-1
 1117 372 l 1,3,-1
 2234 372 l 1,0,-1
372 -1117 m 1,4,-1
 372 2978 l 1,5,-1
 1117 2978 l 1,6,-1
 1117 1861 l 1,7,-1
 2606 1861 l 1,8,-1
 2606 1489 l 1,9,-1
 2978 1489 l 1,10,-1
 2978 372 l 1,11,-1
 2606 372 l 1,12,-1
 2606 0 l 1,13,-1
 1117 0 l 1,14,-1
 1117 -1117 l 1,15,-1
 372 -1117 l 1,4,-1
EndSplineSet
EndChar

StartChar: ydieresis
Encoding: 255 255 178
Width: 3165
GlyphClass: 2
Flags: W
LayerCount: 2
Fore
SplineSet
744 -1117 m 1,0,-1
 744 -744 l 1,1,-1
 2234 -744 l 1,2,-1
 2234 0 l 1,3,-1
 744 0 l 1,4,-1
 744 372 l 1,5,-1
 372 372 l 1,6,-1
 372 1861 l 1,7,-1
 1117 1861 l 1,8,-1
 1117 372 l 1,9,-1
 2234 372 l 1,10,-1
 2234 1861 l 1,11,-1
 2978 1861 l 1,12,-1
 2978 -744 l 1,13,-1
 2606 -744 l 1,14,-1
 2606 -1117 l 1,15,-1
 744 -1117 l 1,0,-1
744 2234 m 1,16,-1
 744 2978 l 1,17,-1
 1489 2978 l 1,18,-1
 1489 2234 l 1,19,-1
 744 2234 l 1,16,-1
1861 2234 m 1,20,-1
 1861 2978 l 1,21,-1
 2606 2978 l 1,22,-1
 2606 2234 l 1,23,-1
 1861 2234 l 1,20,-1
EndSplineSet
EndChar

StartChar: Ydieresis
Encoding: 376 376 179
Width: 3165
GlyphClass: 2
Flags: W
LayerCount: 2
Fore
SplineSet
1303 0 m 1,0,-1
 1303 1117 l 1,1,-1
 1117 1117 l 1,2,-1
 1117 1489 l 1,3,-1
 744 1489 l 1,4,-1
 744 1861 l 1,5,-1
 372 1861 l 1,6,-1
 372 2978 l 1,7,-1
 1117 2978 l 1,8,-1
 1117 1861 l 1,9,-1
 1489 1861 l 1,10,-1
 1489 1489 l 1,11,-1
 1861 1489 l 1,12,-1
 1861 1861 l 1,13,-1
 2234 1861 l 1,14,-1
 2234 2978 l 1,15,-1
 2978 2978 l 1,16,-1
 2978 1861 l 1,17,-1
 2606 1861 l 1,18,-1
 2606 1489 l 1,19,-1
 2234 1489 l 1,20,-1
 2234 1117 l 1,21,-1
 2048 1117 l 1,22,-1
 2048 0 l 1,23,-1
 1303 0 l 1,0,-1
744 3351 m 1,24,-1
 744 4096 l 1,25,-1
 1489 4096 l 1,26,-1
 1489 3351 l 1,27,-1
 744 3351 l 1,24,-1
1861 3351 m 1,28,-1
 1861 4096 l 1,29,-1
 2606 4096 l 1,30,-1
 2606 3351 l 1,31,-1
 1861 3351 l 1,28,-1
EndSplineSet
EndChar

StartChar: Alpha
Encoding: 913 913 180
Width: 3165
GlyphClass: 2
Flags: W
LayerCount: 2
Fore
SplineSet
2234 1489 m 1,0,-1
 2234 2234 l 1,1,-1
 1861 2234 l 1,2,-1
 1861 2606 l 1,3,-1
 1489 2606 l 1,4,-1
 1489 2234 l 1,5,-1
 1117 2234 l 1,6,-1
 1117 1489 l 1,7,-1
 2234 1489 l 1,0,-1
372 0 m 1,8,-1
 372 2234 l 1,9,-1
 744 2234 l 1,10,-1
 744 2606 l 1,11,-1
 1117 2606 l 1,12,-1
 1117 2978 l 1,13,-1
 2234 2978 l 1,14,-1
 2234 2606 l 1,15,-1
 2606 2606 l 1,16,-1
 2606 2234 l 1,17,-1
 2978 2234 l 1,18,-1
 2978 0 l 1,19,-1
 2234 0 l 1,20,-1
 2234 1117 l 1,21,-1
 1117 1117 l 1,22,-1
 1117 0 l 1,23,-1
 372 0 l 1,8,-1
EndSplineSet
EndChar

StartChar: Beta
Encoding: 914 914 181
Width: 3165
GlyphClass: 2
Flags: W
LayerCount: 2
Fore
SplineSet
2234 372 m 1,0,-1
 2234 1489 l 1,1,-1
 1117 1489 l 1,2,-1
 1117 372 l 1,3,-1
 2234 372 l 1,0,-1
2234 1861 m 1,4,-1
 2234 2606 l 1,5,-1
 1117 2606 l 1,6,-1
 1117 1861 l 1,7,-1
 2234 1861 l 1,4,-1
372 0 m 1,8,-1
 372 2978 l 1,9,-1
 2606 2978 l 1,10,-1
 2606 2606 l 1,11,-1
 2978 2606 l 1,12,-1
 2978 1861 l 1,13,-1
 2606 1861 l 1,14,-1
 2606 1489 l 1,15,-1
 2978 1489 l 1,16,-1
 2978 372 l 1,17,-1
 2606 372 l 1,18,-1
 2606 0 l 1,19,-1
 372 0 l 1,8,-1
EndSplineSet
EndChar

StartChar: Gamma
Encoding: 915 915 182
Width: 2792
GlyphClass: 2
Flags: W
LayerCount: 2
Fore
SplineSet
372 0 m 1,0,-1
 372 2978 l 1,1,-1
 2606 2978 l 1,2,-1
 2606 2606 l 1,3,-1
 1117 2606 l 1,4,-1
 1117 0 l 1,5,-1
 372 0 l 1,0,-1
EndSplineSet
EndChar

StartChar: uni0394
Encoding: 916 916 183
Width: 4282
GlyphClass: 2
Flags: W
LayerCount: 2
Fore
SplineSet
2978 558 m 1,0,-1
 2978 1303 l 1,1,-1
 2606 1303 l 1,2,-1
 2606 2048 l 1,3,-1
 2420 2048 l 1,4,-1
 2420 2420 l 1,5,-1
 2048 2420 l 1,6,-1
 2048 2048 l 1,7,-1
 1861 2048 l 1,8,-1
 1861 1303 l 1,9,-1
 1489 1303 l 1,10,-1
 1489 558 l 1,11,-1
 2978 558 l 1,0,-1
372 0 m 1,12,-1
 372 558 l 1,13,-1
 744 558 l 1,14,-1
 744 1303 l 1,15,-1
 1117 1303 l 1,16,-1
 1117 2048 l 1,17,-1
 1489 2048 l 1,18,-1
 1489 2606 l 1,19,-1
 1861 2606 l 1,20,-1
 1861 2978 l 1,21,-1
 2606 2978 l 1,22,-1
 2606 2606 l 1,23,-1
 2978 2606 l 1,24,-1
 2978 2048 l 1,25,-1
 3351 2048 l 1,26,-1
 3351 1303 l 1,27,-1
 3723 1303 l 1,28,-1
 3723 558 l 1,29,-1
 4096 558 l 1,30,-1
 4096 0 l 1,31,-1
 372 0 l 1,12,-1
EndSplineSet
EndChar

StartChar: Epsilon
Encoding: 917 917 184
Width: 3165
GlyphClass: 2
Flags: W
LayerCount: 2
Fore
SplineSet
372 0 m 1,0,-1
 372 2978 l 1,1,-1
 2978 2978 l 1,2,-1
 2978 2606 l 1,3,-1
 1117 2606 l 1,4,-1
 1117 1861 l 1,5,-1
 2234 1861 l 1,6,-1
 2234 1489 l 1,7,-1
 1117 1489 l 1,8,-1
 1117 372 l 1,9,-1
 2978 372 l 1,10,-1
 2978 0 l 1,11,-1
 372 0 l 1,0,-1
EndSplineSet
EndChar

StartChar: Zeta
Encoding: 918 918 185
Width: 3165
GlyphClass: 2
Flags: W
LayerCount: 2
Fore
SplineSet
372 0 m 1,0,-1
 372 744 l 1,1,-1
 744 744 l 1,2,-1
 744 1117 l 1,3,-1
 1117 1117 l 1,4,-1
 1117 1489 l 1,5,-1
 1489 1489 l 1,6,-1
 1489 1861 l 1,7,-1
 1861 1861 l 1,8,-1
 1861 2234 l 1,9,-1
 2234 2234 l 1,10,-1
 2234 2606 l 1,11,-1
 372 2606 l 1,12,-1
 372 2978 l 1,13,-1
 2978 2978 l 1,14,-1
 2978 2234 l 1,15,-1
 2606 2234 l 1,16,-1
 2606 1861 l 1,17,-1
 2234 1861 l 1,18,-1
 2234 1489 l 1,19,-1
 1861 1489 l 1,20,-1
 1861 1117 l 1,21,-1
 1489 1117 l 1,22,-1
 1489 744 l 1,23,-1
 1117 744 l 1,24,-1
 1117 372 l 1,25,-1
 2978 372 l 1,26,-1
 2978 0 l 1,27,-1
 372 0 l 1,0,-1
EndSplineSet
EndChar

StartChar: Eta
Encoding: 919 919 186
Width: 3165
GlyphClass: 2
Flags: W
LayerCount: 2
Fore
SplineSet
372 0 m 1,0,-1
 372 2978 l 1,1,-1
 1117 2978 l 1,2,-1
 1117 1861 l 1,3,-1
 2234 1861 l 1,4,-1
 2234 2978 l 1,5,-1
 2978 2978 l 1,6,-1
 2978 0 l 1,7,-1
 2234 0 l 1,8,-1
 2234 1489 l 1,9,-1
 1117 1489 l 1,10,-1
 1117 0 l 1,11,-1
 372 0 l 1,0,-1
EndSplineSet
EndChar

StartChar: Theta
Encoding: 920 920 187
Width: 3165
GlyphClass: 2
Flags: W
LayerCount: 2
Fore
SplineSet
1303 1303 m 1,0,-1
 1303 1675 l 1,1,-1
 2048 1675 l 1,2,-1
 2048 1303 l 1,3,-1
 1303 1303 l 1,0,-1
2234 372 m 1,4,-1
 2234 2606 l 1,5,-1
 1117 2606 l 1,6,-1
 1117 372 l 1,7,-1
 2234 372 l 1,4,-1
744 0 m 1,8,-1
 744 372 l 1,9,-1
 372 372 l 1,10,-1
 372 2606 l 1,11,-1
 744 2606 l 1,12,-1
 744 2978 l 1,13,-1
 2606 2978 l 1,14,-1
 2606 2606 l 1,15,-1
 2978 2606 l 1,16,-1
 2978 372 l 1,17,-1
 2606 372 l 1,18,-1
 2606 0 l 1,19,-1
 744 0 l 1,8,-1
EndSplineSet
EndChar

StartChar: Iota
Encoding: 921 921 188
Width: 2792
GlyphClass: 2
Flags: W
LayerCount: 2
Fore
SplineSet
372 0 m 1,0,-1
 372 372 l 1,1,-1
 1117 372 l 1,2,-1
 1117 2606 l 1,3,-1
 372 2606 l 1,4,-1
 372 2978 l 1,5,-1
 2606 2978 l 1,6,-1
 2606 2606 l 1,7,-1
 1861 2606 l 1,8,-1
 1861 372 l 1,9,-1
 2606 372 l 1,10,-1
 2606 0 l 1,11,-1
 372 0 l 1,0,-1
EndSplineSet
EndChar

StartChar: Kappa
Encoding: 922 922 189
Width: 3165
GlyphClass: 2
Flags: W
LayerCount: 2
Fore
SplineSet
372 0 m 1,0,-1
 372 2978 l 1,1,-1
 1117 2978 l 1,2,-1
 1117 1861 l 1,3,-1
 1489 1861 l 1,4,-1
 1489 2234 l 1,5,-1
 1861 2234 l 1,6,-1
 1861 2606 l 1,7,-1
 2234 2606 l 1,8,-1
 2234 2978 l 1,9,-1
 2978 2978 l 1,10,-1
 2978 2606 l 1,11,-1
 2606 2606 l 1,12,-1
 2606 2234 l 1,13,-1
 2234 2234 l 1,14,-1
 2234 1861 l 1,15,-1
 1861 1861 l 1,16,-1
 1861 1489 l 1,17,-1
 2234 1489 l 1,18,-1
 2234 1117 l 1,19,-1
 2606 1117 l 1,20,-1
 2606 744 l 1,21,-1
 2978 744 l 1,22,-1
 2978 0 l 1,23,-1
 2234 0 l 1,24,-1
 2234 744 l 1,25,-1
 1861 744 l 1,26,-1
 1861 1117 l 1,27,-1
 1489 1117 l 1,28,-1
 1489 1489 l 1,29,-1
 1117 1489 l 1,30,-1
 1117 0 l 1,31,-1
 372 0 l 1,0,-1
EndSplineSet
EndChar

StartChar: Lambda
Encoding: 923 923 190
Width: 4282
GlyphClass: 2
Flags: W
LayerCount: 2
Fore
SplineSet
372 0 m 1,0,-1
 372 558 l 1,1,-1
 744 558 l 1,2,-1
 744 1303 l 1,3,-1
 1117 1303 l 1,4,-1
 1117 2048 l 1,5,-1
 1489 2048 l 1,6,-1
 1489 2606 l 1,7,-1
 1861 2606 l 1,8,-1
 1861 2978 l 1,9,-1
 2606 2978 l 1,10,-1
 2606 2606 l 1,11,-1
 2978 2606 l 1,12,-1
 2978 2048 l 1,13,-1
 3351 2048 l 1,14,-1
 3351 1303 l 1,15,-1
 3723 1303 l 1,16,-1
 3723 558 l 1,17,-1
 4096 558 l 1,18,-1
 4096 0 l 1,19,-1
 3351 0 l 1,20,-1
 3351 558 l 1,21,-1
 2978 558 l 1,22,-1
 2978 1303 l 1,23,-1
 2606 1303 l 1,24,-1
 2606 2048 l 1,25,-1
 2420 2048 l 1,26,-1
 2420 2420 l 1,27,-1
 2048 2420 l 1,28,-1
 2048 2048 l 1,29,-1
 1861 2048 l 1,30,-1
 1861 1303 l 1,31,-1
 1489 1303 l 1,32,-1
 1489 558 l 1,33,-1
 1117 558 l 1,34,-1
 1117 0 l 1,35,-1
 372 0 l 1,0,-1
EndSplineSet
EndChar

StartChar: Mu
Encoding: 924 924 191
Width: 3165
GlyphClass: 2
Flags: W
LayerCount: 2
Fore
SplineSet
372 0 m 1,0,-1
 372 2978 l 1,1,-1
 744 2978 l 1,2,-1
 744 2606 l 1,3,-1
 1117 2606 l 1,4,-1
 1117 2234 l 1,5,-1
 1489 2234 l 1,6,-1
 1489 1861 l 1,7,-1
 1861 1861 l 1,8,-1
 1861 2234 l 1,9,-1
 2234 2234 l 1,10,-1
 2234 2606 l 1,11,-1
 2606 2606 l 1,12,-1
 2606 2978 l 1,13,-1
 2978 2978 l 1,14,-1
 2978 0 l 1,15,-1
 2234 0 l 1,16,-1
 2234 1489 l 1,17,-1
 1861 1489 l 1,18,-1
 1861 1117 l 1,19,-1
 1489 1117 l 1,20,-1
 1489 1489 l 1,21,-1
 1117 1489 l 1,22,-1
 1117 0 l 1,23,-1
 372 0 l 1,0,-1
EndSplineSet
EndChar

StartChar: Nu
Encoding: 925 925 192
Width: 3165
GlyphClass: 2
Flags: W
LayerCount: 2
Fore
SplineSet
372 0 m 1,0,-1
 372 2978 l 1,1,-1
 744 2978 l 1,2,-1
 744 2606 l 1,3,-1
 1117 2606 l 1,4,-1
 1117 2234 l 1,5,-1
 1489 2234 l 1,6,-1
 1489 1861 l 1,7,-1
 1861 1861 l 1,8,-1
 1861 1489 l 1,9,-1
 2234 1489 l 1,10,-1
 2234 2978 l 1,11,-1
 2978 2978 l 1,12,-1
 2978 0 l 1,13,-1
 2606 0 l 1,14,-1
 2606 372 l 1,15,-1
 2234 372 l 1,16,-1
 2234 744 l 1,17,-1
 1861 744 l 1,18,-1
 1861 1117 l 1,19,-1
 1489 1117 l 1,20,-1
 1489 1489 l 1,21,-1
 1117 1489 l 1,22,-1
 1117 0 l 1,23,-1
 372 0 l 1,0,-1
EndSplineSet
EndChar

StartChar: Xi
Encoding: 926 926 193
Width: 3165
GlyphClass: 2
Flags: W
LayerCount: 2
Fore
SplineSet
372 0 m 1,0,-1
 372 372 l 1,1,-1
 2978 372 l 1,2,-1
 2978 0 l 1,3,-1
 372 0 l 1,0,-1
930 1303 m 1,4,-1
 930 1675 l 1,5,-1
 2420 1675 l 1,6,-1
 2420 1303 l 1,7,-1
 930 1303 l 1,4,-1
372 2606 m 1,8,-1
 372 2978 l 1,9,-1
 2978 2978 l 1,10,-1
 2978 2606 l 1,11,-1
 372 2606 l 1,8,-1
EndSplineSet
EndChar

StartChar: Omicron
Encoding: 927 927 194
Width: 3165
GlyphClass: 2
Flags: W
LayerCount: 2
Fore
SplineSet
2234 372 m 1,0,-1
 2234 2606 l 1,1,-1
 1117 2606 l 1,2,-1
 1117 372 l 1,3,-1
 2234 372 l 1,0,-1
744 0 m 1,4,-1
 744 372 l 1,5,-1
 372 372 l 1,6,-1
 372 2606 l 1,7,-1
 744 2606 l 1,8,-1
 744 2978 l 1,9,-1
 2606 2978 l 1,10,-1
 2606 2606 l 1,11,-1
 2978 2606 l 1,12,-1
 2978 372 l 1,13,-1
 2606 372 l 1,14,-1
 2606 0 l 1,15,-1
 744 0 l 1,4,-1
EndSplineSet
EndChar

StartChar: Pi
Encoding: 928 928 195
Width: 3909
GlyphClass: 2
Flags: W
LayerCount: 2
Fore
SplineSet
744 0 m 1,0,-1
 744 2606 l 1,1,-1
 372 2606 l 1,2,-1
 372 2978 l 1,3,-1
 3723 2978 l 1,4,-1
 3723 2606 l 1,5,-1
 3351 2606 l 1,6,-1
 3351 0 l 1,7,-1
 2606 0 l 1,8,-1
 2606 2606 l 1,9,-1
 1489 2606 l 1,10,-1
 1489 0 l 1,11,-1
 744 0 l 1,0,-1
EndSplineSet
EndChar

StartChar: Rho
Encoding: 929 929 196
Width: 3165
GlyphClass: 2
Flags: W
LayerCount: 2
Fore
SplineSet
2234 1861 m 1,0,-1
 2234 2606 l 1,1,-1
 1117 2606 l 1,2,-1
 1117 1861 l 1,3,-1
 2234 1861 l 1,0,-1
372 0 m 1,4,-1
 372 2978 l 1,5,-1
 2606 2978 l 1,6,-1
 2606 2606 l 1,7,-1
 2978 2606 l 1,8,-1
 2978 1861 l 1,9,-1
 2606 1861 l 1,10,-1
 2606 1489 l 1,11,-1
 1117 1489 l 1,12,-1
 1117 0 l 1,13,-1
 372 0 l 1,4,-1
EndSplineSet
EndChar

StartChar: Sigma
Encoding: 931 931 197
Width: 3165
GlyphClass: 2
Flags: W
LayerCount: 2
Fore
SplineSet
372 0 m 1,0,-1
 372 930 l 1,1,-1
 744 930 l 1,2,-1
 744 1303 l 1,3,-1
 1117 1303 l 1,4,-1
 1117 1675 l 1,5,-1
 744 1675 l 1,6,-1
 744 2048 l 1,7,-1
 372 2048 l 1,8,-1
 372 2978 l 1,9,-1
 2978 2978 l 1,10,-1
 2978 2606 l 1,11,-1
 1117 2606 l 1,12,-1
 1117 2048 l 1,13,-1
 1489 2048 l 1,14,-1
 1489 1675 l 1,15,-1
 1861 1675 l 1,16,-1
 1861 1303 l 1,17,-1
 1489 1303 l 1,18,-1
 1489 930 l 1,19,-1
 1117 930 l 1,20,-1
 1117 372 l 1,21,-1
 2978 372 l 1,22,-1
 2978 0 l 1,23,-1
 372 0 l 1,0,-1
EndSplineSet
EndChar

StartChar: Tau
Encoding: 932 932 198
Width: 3165
GlyphClass: 2
Flags: W
LayerCount: 2
Fore
SplineSet
1117 0 m 1,0,-1
 1117 2606 l 1,1,-1
 372 2606 l 1,2,-1
 372 2978 l 1,3,-1
 2978 2978 l 1,4,-1
 2978 2606 l 1,5,-1
 2048 2606 l 1,6,-1
 2048 0 l 1,7,-1
 1117 0 l 1,0,-1
EndSplineSet
EndChar

StartChar: Upsilon
Encoding: 933 933 199
Width: 3909
GlyphClass: 2
Flags: W
LayerCount: 2
Fore
SplineSet
1675 0 m 1,0,-1
 1675 1117 l 1,1,-1
 1489 1117 l 1,2,-1
 1489 1489 l 1,3,-1
 1117 1489 l 1,4,-1
 1117 1861 l 1,5,-1
 744 1861 l 1,6,-1
 744 2606 l 1,7,-1
 372 2606 l 1,8,-1
 372 2978 l 1,9,-1
 1117 2978 l 1,10,-1
 1117 2606 l 1,11,-1
 1489 2606 l 1,12,-1
 1489 1861 l 1,13,-1
 1861 1861 l 1,14,-1
 1861 1489 l 1,15,-1
 2234 1489 l 1,16,-1
 2234 1861 l 1,17,-1
 2606 1861 l 1,18,-1
 2606 2606 l 1,19,-1
 2978 2606 l 1,20,-1
 2978 2978 l 1,21,-1
 3723 2978 l 1,22,-1
 3723 2606 l 1,23,-1
 3351 2606 l 1,24,-1
 3351 1861 l 1,25,-1
 2978 1861 l 1,26,-1
 2978 1489 l 1,27,-1
 2606 1489 l 1,28,-1
 2606 1117 l 1,29,-1
 2420 1117 l 1,30,-1
 2420 0 l 1,31,-1
 1675 0 l 1,0,-1
EndSplineSet
EndChar

StartChar: Phi
Encoding: 934 934 200
Width: 3909
GlyphClass: 2
Flags: W
LayerCount: 2
Fore
SplineSet
1675 744 m 1,0,-1
 1675 2234 l 1,1,-1
 1117 2234 l 1,2,-1
 1117 744 l 1,3,-1
 1675 744 l 1,0,-1
2978 744 m 1,4,-1
 2978 2234 l 1,5,-1
 2420 2234 l 1,6,-1
 2420 744 l 1,7,-1
 2978 744 l 1,4,-1
1675 0 m 1,8,-1
 1675 372 l 1,9,-1
 744 372 l 1,10,-1
 744 744 l 1,11,-1
 372 744 l 1,12,-1
 372 2234 l 1,13,-1
 744 2234 l 1,14,-1
 744 2606 l 1,15,-1
 1675 2606 l 1,16,-1
 1675 2978 l 1,17,-1
 2420 2978 l 1,18,-1
 2420 2606 l 1,19,-1
 3351 2606 l 1,20,-1
 3351 2234 l 1,21,-1
 3723 2234 l 1,22,-1
 3723 744 l 1,23,-1
 3351 744 l 1,24,-1
 3351 372 l 1,25,-1
 2420 372 l 1,26,-1
 2420 0 l 1,27,-1
 1675 0 l 1,8,-1
EndSplineSet
EndChar

StartChar: Chi
Encoding: 935 935 201
Width: 3165
GlyphClass: 2
Flags: W
LayerCount: 2
Fore
SplineSet
372 0 m 1,0,-1
 372 1117 l 1,1,-1
 744 1117 l 1,2,-1
 744 1489 l 1,3,-1
 1117 1489 l 1,4,-1
 1117 1861 l 1,5,-1
 744 1861 l 1,6,-1
 744 2234 l 1,7,-1
 372 2234 l 1,8,-1
 372 2978 l 1,9,-1
 1117 2978 l 1,10,-1
 1117 2234 l 1,11,-1
 1489 2234 l 1,12,-1
 1489 1861 l 1,13,-1
 1861 1861 l 1,14,-1
 1861 2234 l 1,15,-1
 2234 2234 l 1,16,-1
 2234 2978 l 1,17,-1
 2978 2978 l 1,18,-1
 2978 2234 l 1,19,-1
 2606 2234 l 1,20,-1
 2606 1861 l 1,21,-1
 2234 1861 l 1,22,-1
 2234 1489 l 1,23,-1
 2606 1489 l 1,24,-1
 2606 1117 l 1,25,-1
 2978 1117 l 1,26,-1
 2978 0 l 1,27,-1
 2234 0 l 1,28,-1
 2234 1117 l 1,29,-1
 1861 1117 l 1,30,-1
 1861 1489 l 1,31,-1
 1489 1489 l 1,32,-1
 1489 1117 l 1,33,-1
 1117 1117 l 1,34,-1
 1117 0 l 1,35,-1
 372 0 l 1,0,-1
EndSplineSet
EndChar

StartChar: Psi
Encoding: 936 936 202
Width: 4654
GlyphClass: 2
Flags: W
LayerCount: 2
Fore
SplineSet
2048 0 m 1,0,-1
 2048 1117 l 1,1,-1
 1861 1117 l 1,2,-1
 1861 1489 l 1,3,-1
 1489 1489 l 1,4,-1
 1489 1861 l 1,5,-1
 1117 1861 l 1,6,-1
 1117 2234 l 1,7,-1
 744 2234 l 1,8,-1
 744 2606 l 1,9,-1
 372 2606 l 1,10,-1
 372 2978 l 1,11,-1
 1117 2978 l 1,12,-1
 1117 2606 l 1,13,-1
 1489 2606 l 1,14,-1
 1489 2234 l 1,15,-1
 1861 2234 l 1,16,-1
 1861 1861 l 1,17,-1
 2048 1861 l 1,18,-1
 2048 2978 l 1,19,-1
 2792 2978 l 1,20,-1
 2792 1861 l 1,21,-1
 2978 1861 l 1,22,-1
 2978 2234 l 1,23,-1
 3351 2234 l 1,24,-1
 3351 2606 l 1,25,-1
 3723 2606 l 1,26,-1
 3723 2978 l 1,27,-1
 4468 2978 l 1,28,-1
 4468 2606 l 1,29,-1
 4096 2606 l 1,30,-1
 4096 2234 l 1,31,-1
 3723 2234 l 1,32,-1
 3723 1861 l 1,33,-1
 3351 1861 l 1,34,-1
 3351 1489 l 1,35,-1
 2978 1489 l 1,36,-1
 2978 1117 l 1,37,-1
 2792 1117 l 1,38,-1
 2792 0 l 1,39,-1
 2048 0 l 1,0,-1
EndSplineSet
EndChar

StartChar: uni03A9
Encoding: 937 937 203
Width: 4654
GlyphClass: 2
Flags: W
LayerCount: 2
Fore
SplineSet
372 0 m 1,0,-1
 372 372 l 1,1,-1
 1489 372 l 1,2,-1
 1489 744 l 1,3,-1
 1117 744 l 1,4,-1
 1117 1117 l 1,5,-1
 744 1117 l 1,6,-1
 744 1489 l 1,7,-1
 372 1489 l 1,8,-1
 372 2234 l 1,9,-1
 744 2234 l 1,10,-1
 744 2606 l 1,11,-1
 1117 2606 l 1,12,-1
 1117 2978 l 1,13,-1
 3723 2978 l 1,14,-1
 3723 2606 l 1,15,-1
 4096 2606 l 1,16,-1
 4096 2234 l 1,17,-1
 4468 2234 l 1,18,-1
 4468 1489 l 1,19,-1
 4096 1489 l 1,20,-1
 4096 1117 l 1,21,-1
 3723 1117 l 1,22,-1
 3723 744 l 1,23,-1
 3351 744 l 1,24,-1
 3351 372 l 1,25,-1
 4468 372 l 1,26,-1
 4468 0 l 1,27,-1
 2606 0 l 1,28,-1
 2606 744 l 1,29,-1
 2978 744 l 1,30,-1
 2978 1117 l 1,31,-1
 3351 1117 l 1,32,-1
 3351 1489 l 1,33,-1
 3723 1489 l 1,34,-1
 3723 2234 l 1,35,-1
 3351 2234 l 1,36,-1
 3351 2606 l 1,37,-1
 1489 2606 l 1,38,-1
 1489 2234 l 1,39,-1
 1117 2234 l 1,40,-1
 1117 1489 l 1,41,-1
 1489 1489 l 1,42,-1
 1489 1117 l 1,43,-1
 1861 1117 l 1,44,-1
 1861 744 l 1,45,-1
 2234 744 l 1,46,-1
 2234 0 l 1,47,-1
 372 0 l 1,0,-1
EndSplineSet
EndChar

StartChar: alpha
Encoding: 945 945 204
Width: 3165
GlyphClass: 2
Flags: W
LayerCount: 2
Fore
SplineSet
1489 372 m 1,0,-1
 1489 744 l 1,1,-1
 1861 744 l 1,2,-1
 1861 1117 l 1,3,-1
 1489 1117 l 1,4,-1
 1489 1489 l 1,5,-1
 1117 1489 l 1,6,-1
 1117 372 l 1,7,-1
 1489 372 l 1,0,-1
744 0 m 1,8,-1
 744 372 l 1,9,-1
 372 372 l 1,10,-1
 372 1489 l 1,11,-1
 744 1489 l 1,12,-1
 744 1861 l 1,13,-1
 1861 1861 l 1,14,-1
 1861 1489 l 1,15,-1
 2234 1489 l 1,16,-1
 2234 1861 l 1,17,-1
 2978 1861 l 1,18,-1
 2978 1489 l 1,19,-1
 2606 1489 l 1,20,-1
 2606 372 l 1,21,-1
 2978 372 l 1,22,-1
 2978 0 l 1,23,-1
 2234 0 l 1,24,-1
 2234 372 l 1,25,-1
 1861 372 l 1,26,-1
 1861 0 l 1,27,-1
 744 0 l 1,8,-1
EndSplineSet
EndChar

StartChar: beta
Encoding: 946 946 205
Width: 3165
GlyphClass: 2
Flags: W
LayerCount: 2
Fore
SplineSet
372 -1117 m 1,0,-1
 372 2234 l 1,1,-1
 744 2234 l 1,2,-1
 744 2606 l 1,3,-1
 1117 2606 l 1,4,-1
 1117 2978 l 1,5,-1
 2606 2978 l 1,6,-1
 2606 2606 l 1,7,-1
 2978 2606 l 1,8,-1
 2978 1675 l 1,9,-1
 2606 1675 l 1,10,-1
 2606 1303 l 1,11,-1
 2978 1303 l 1,12,-1
 2978 744 l 1,13,-1
 2606 744 l 1,14,-1
 2606 372 l 1,15,-1
 2234 372 l 1,16,-1
 2234 0 l 1,17,-1
 1489 0 l 1,18,-1
 1489 372 l 1,19,-1
 1861 372 l 1,20,-1
 1861 744 l 1,21,-1
 2234 744 l 1,22,-1
 2234 1303 l 1,23,-1
 1489 1303 l 1,24,-1
 1489 1675 l 1,25,-1
 2234 1675 l 1,26,-1
 2234 2606 l 1,27,-1
 1489 2606 l 1,28,-1
 1489 2234 l 1,29,-1
 1117 2234 l 1,30,-1
 1117 744 l 1,31,-1
 1489 744 l 1,32,-1
 1489 372 l 1,33,-1
 1117 372 l 1,34,-1
 1117 -1117 l 1,35,-1
 372 -1117 l 1,0,-1
EndSplineSet
EndChar

StartChar: uni0401
Encoding: 1025 1025 206
Width: 3165
GlyphClass: 2
Flags: W
LayerCount: 2
Fore
SplineSet
372 0 m 1,0,-1
 372 2978 l 1,1,-1
 2978 2978 l 1,2,-1
 2978 2606 l 1,3,-1
 1117 2606 l 1,4,-1
 1117 1861 l 1,5,-1
 2234 1861 l 1,6,-1
 2234 1489 l 1,7,-1
 1117 1489 l 1,8,-1
 1117 372 l 1,9,-1
 2978 372 l 1,10,-1
 2978 0 l 1,11,-1
 372 0 l 1,0,-1
744 3351 m 1,12,-1
 744 4096 l 1,13,-1
 1489 4096 l 1,14,-1
 1489 3351 l 1,15,-1
 744 3351 l 1,12,-1
1861 3351 m 1,16,-1
 1861 4096 l 1,17,-1
 2606 4096 l 1,18,-1
 2606 3351 l 1,19,-1
 1861 3351 l 1,16,-1
EndSplineSet
EndChar

StartChar: uni0404
Encoding: 1028 1028 207
Width: 3165
GlyphClass: 2
Flags: W
LayerCount: 2
Fore
SplineSet
1117 0 m 1,0,-1
 1117 372 l 1,1,-1
 744 372 l 1,2,-1
 744 744 l 1,3,-1
 372 744 l 1,4,-1
 372 2234 l 1,5,-1
 744 2234 l 1,6,-1
 744 2606 l 1,7,-1
 1117 2606 l 1,8,-1
 1117 2978 l 1,9,-1
 2606 2978 l 1,10,-1
 2606 2606 l 1,11,-1
 2978 2606 l 1,12,-1
 2978 2234 l 1,13,-1
 2234 2234 l 1,14,-1
 2234 2606 l 1,15,-1
 1489 2606 l 1,16,-1
 1489 2234 l 1,17,-1
 1117 2234 l 1,18,-1
 1117 1675 l 1,19,-1
 2234 1675 l 1,20,-1
 2234 1303 l 1,21,-1
 1117 1303 l 1,22,-1
 1117 744 l 1,23,-1
 1489 744 l 1,24,-1
 1489 372 l 1,25,-1
 2234 372 l 1,26,-1
 2234 744 l 1,27,-1
 2978 744 l 1,28,-1
 2978 372 l 1,29,-1
 2606 372 l 1,30,-1
 2606 0 l 1,31,-1
 1117 0 l 1,0,-1
EndSplineSet
EndChar

StartChar: uni0406
Encoding: 1030 1030 208
Width: 2792
GlyphClass: 2
Flags: W
LayerCount: 2
Fore
SplineSet
372 0 m 1,0,-1
 372 372 l 1,1,-1
 1117 372 l 1,2,-1
 1117 2606 l 1,3,-1
 372 2606 l 1,4,-1
 372 2978 l 1,5,-1
 2606 2978 l 1,6,-1
 2606 2606 l 1,7,-1
 1861 2606 l 1,8,-1
 1861 372 l 1,9,-1
 2606 372 l 1,10,-1
 2606 0 l 1,11,-1
 372 0 l 1,0,-1
EndSplineSet
EndChar

StartChar: uni0407
Encoding: 1031 1031 209
Width: 2978
GlyphClass: 2
Flags: W
LayerCount: 2
Fore
SplineSet
372 0 m 1,0,-1
 372 372 l 1,1,-1
 1117 372 l 1,2,-1
 1117 2606 l 1,3,-1
 372 2606 l 1,4,-1
 372 2978 l 1,5,-1
 2606 2978 l 1,6,-1
 2606 2606 l 1,7,-1
 2048 2606 l 1,8,-1
 2048 372 l 1,9,-1
 2792 372 l 1,10,-1
 2792 0 l 1,11,-1
 372 0 l 1,0,-1
558 3351 m 1,12,-1
 558 4096 l 1,13,-1
 1303 4096 l 1,14,-1
 1303 3351 l 1,15,-1
 558 3351 l 1,12,-1
1675 3351 m 1,16,-1
 1675 4096 l 1,17,-1
 2420 4096 l 1,18,-1
 2420 3351 l 1,19,-1
 1675 3351 l 1,16,-1
EndSplineSet
EndChar

StartChar: uni0409
Encoding: 1033 1033 210
Width: 4840
GlyphClass: 2
Flags: W
LayerCount: 2
Fore
SplineSet
3909 372 m 1,0,-1
 3909 1489 l 1,1,-1
 2978 1489 l 1,2,-1
 2978 372 l 1,3,-1
 3909 372 l 1,0,-1
372 0 m 1,4,-1
 372 372 l 1,5,-1
 744 372 l 1,6,-1
 744 2606 l 1,7,-1
 1117 2606 l 1,8,-1
 1117 2978 l 1,9,-1
 2978 2978 l 1,10,-1
 2978 1861 l 1,11,-1
 4282 1861 l 1,12,-1
 4282 1489 l 1,13,-1
 4654 1489 l 1,14,-1
 4654 372 l 1,15,-1
 4282 372 l 1,16,-1
 4282 0 l 1,17,-1
 2234 0 l 1,18,-1
 2234 2606 l 1,19,-1
 1489 2606 l 1,20,-1
 1489 372 l 1,21,-1
 1117 372 l 1,22,-1
 1117 0 l 1,23,-1
 372 0 l 1,4,-1
EndSplineSet
EndChar

StartChar: uni040A
Encoding: 1034 1034 211
Width: 4654
GlyphClass: 2
Flags: W
LayerCount: 2
Fore
SplineSet
3723 372 m 1,0,-1
 3723 1489 l 1,1,-1
 2978 1489 l 1,2,-1
 2978 372 l 1,3,-1
 3723 372 l 1,0,-1
372 0 m 1,4,-1
 372 2978 l 1,5,-1
 1117 2978 l 1,6,-1
 1117 1861 l 1,7,-1
 2234 1861 l 1,8,-1
 2234 2978 l 1,9,-1
 2978 2978 l 1,10,-1
 2978 1861 l 1,11,-1
 4096 1861 l 1,12,-1
 4096 1489 l 1,13,-1
 4468 1489 l 1,14,-1
 4468 372 l 1,15,-1
 4096 372 l 1,16,-1
 4096 0 l 1,17,-1
 2234 0 l 1,18,-1
 2234 1489 l 1,19,-1
 1117 1489 l 1,20,-1
 1117 0 l 1,21,-1
 372 0 l 1,4,-1
EndSplineSet
EndChar

StartChar: uni0410
Encoding: 1040 1040 212
Width: 3165
GlyphClass: 2
Flags: W
LayerCount: 2
Fore
SplineSet
2234 1675 m 1,0,-1
 2234 2234 l 1,1,-1
 1861 2234 l 1,2,-1
 1861 2606 l 1,3,-1
 1489 2606 l 1,4,-1
 1489 2234 l 1,5,-1
 1117 2234 l 1,6,-1
 1117 1675 l 1,7,-1
 2234 1675 l 1,0,-1
372 0 m 1,8,-1
 372 2234 l 1,9,-1
 744 2234 l 1,10,-1
 744 2606 l 1,11,-1
 1117 2606 l 1,12,-1
 1117 2978 l 1,13,-1
 2234 2978 l 1,14,-1
 2234 2606 l 1,15,-1
 2606 2606 l 1,16,-1
 2606 2234 l 1,17,-1
 2978 2234 l 1,18,-1
 2978 0 l 1,19,-1
 2234 0 l 1,20,-1
 2234 1303 l 1,21,-1
 1117 1303 l 1,22,-1
 1117 0 l 1,23,-1
 372 0 l 1,8,-1
EndSplineSet
EndChar

StartChar: uni0411
Encoding: 1041 1041 213
Width: 3165
GlyphClass: 2
Flags: W
LayerCount: 2
Fore
SplineSet
2234 372 m 1,0,-1
 2234 1489 l 1,1,-1
 1117 1489 l 1,2,-1
 1117 372 l 1,3,-1
 2234 372 l 1,0,-1
372 0 m 1,4,-1
 372 2978 l 1,5,-1
 2606 2978 l 1,6,-1
 2606 2606 l 1,7,-1
 1117 2606 l 1,8,-1
 1117 1861 l 1,9,-1
 2606 1861 l 1,10,-1
 2606 1489 l 1,11,-1
 2978 1489 l 1,12,-1
 2978 372 l 1,13,-1
 2606 372 l 1,14,-1
 2606 0 l 1,15,-1
 372 0 l 1,4,-1
EndSplineSet
EndChar

StartChar: uni0412
Encoding: 1042 1042 214
Width: 3165
GlyphClass: 2
Flags: W
LayerCount: 2
Fore
SplineSet
2234 372 m 1,0,-1
 2234 1489 l 1,1,-1
 1117 1489 l 1,2,-1
 1117 372 l 1,3,-1
 2234 372 l 1,0,-1
2234 1861 m 1,4,-1
 2234 2606 l 1,5,-1
 1117 2606 l 1,6,-1
 1117 1861 l 1,7,-1
 2234 1861 l 1,4,-1
372 0 m 1,8,-1
 372 2978 l 1,9,-1
 2606 2978 l 1,10,-1
 2606 2606 l 1,11,-1
 2978 2606 l 1,12,-1
 2978 1861 l 1,13,-1
 2606 1861 l 1,14,-1
 2606 1489 l 1,15,-1
 2978 1489 l 1,16,-1
 2978 372 l 1,17,-1
 2606 372 l 1,18,-1
 2606 0 l 1,19,-1
 372 0 l 1,8,-1
EndSplineSet
EndChar

StartChar: uni0413
Encoding: 1043 1043 215
Width: 2792
GlyphClass: 2
Flags: W
LayerCount: 2
Fore
SplineSet
372 0 m 1,0,-1
 372 2978 l 1,1,-1
 2606 2978 l 1,2,-1
 2606 2606 l 1,3,-1
 1117 2606 l 1,4,-1
 1117 0 l 1,5,-1
 372 0 l 1,0,-1
EndSplineSet
EndChar

StartChar: uni0414
Encoding: 1044 1044 216
Width: 3537
GlyphClass: 2
Flags: W
LayerCount: 2
Fore
SplineSet
2234 372 m 1,0,-1
 2234 2606 l 1,1,-1
 1489 2606 l 1,2,-1
 1489 372 l 1,3,-1
 2234 372 l 1,0,-1
372 -558 m 1,4,-1
 372 372 l 1,5,-1
 744 372 l 1,6,-1
 744 2606 l 1,7,-1
 1117 2606 l 1,8,-1
 1117 2978 l 1,9,-1
 2978 2978 l 1,10,-1
 2978 372 l 1,11,-1
 3351 372 l 1,12,-1
 3351 -558 l 1,13,-1
 2606 -558 l 1,14,-1
 2606 0 l 1,15,-1
 1117 0 l 1,16,-1
 1117 -558 l 1,17,-1
 372 -558 l 1,4,-1
EndSplineSet
EndChar

StartChar: uni0415
Encoding: 1045 1045 217
Width: 3165
GlyphClass: 2
Flags: W
LayerCount: 2
Fore
SplineSet
372 0 m 1,0,-1
 372 2978 l 1,1,-1
 2978 2978 l 1,2,-1
 2978 2606 l 1,3,-1
 1117 2606 l 1,4,-1
 1117 1861 l 1,5,-1
 2234 1861 l 1,6,-1
 2234 1489 l 1,7,-1
 1117 1489 l 1,8,-1
 1117 372 l 1,9,-1
 2978 372 l 1,10,-1
 2978 0 l 1,11,-1
 372 0 l 1,0,-1
EndSplineSet
EndChar

StartChar: uni0416
Encoding: 1046 1046 218
Width: 3537
GlyphClass: 2
Flags: W
LayerCount: 2
Fore
SplineSet
372 0 m 1,0,-1
 372 1489 l 1,1,-1
 744 1489 l 1,2,-1
 744 1861 l 1,3,-1
 372 1861 l 1,4,-1
 372 2978 l 1,5,-1
 1117 2978 l 1,6,-1
 1117 1861 l 1,7,-1
 1489 1861 l 1,8,-1
 1489 2978 l 1,9,-1
 2234 2978 l 1,10,-1
 2234 1861 l 1,11,-1
 2606 1861 l 1,12,-1
 2606 2978 l 1,13,-1
 3351 2978 l 1,14,-1
 3351 1861 l 1,15,-1
 2978 1861 l 1,16,-1
 2978 1489 l 1,17,-1
 3351 1489 l 1,18,-1
 3351 0 l 1,19,-1
 2606 0 l 1,20,-1
 2606 1489 l 1,21,-1
 2234 1489 l 1,22,-1
 2234 0 l 1,23,-1
 1489 0 l 1,24,-1
 1489 1489 l 1,25,-1
 1117 1489 l 1,26,-1
 1117 0 l 1,27,-1
 372 0 l 1,0,-1
EndSplineSet
EndChar

StartChar: uni0417
Encoding: 1047 1047 219
Width: 3165
GlyphClass: 2
Flags: W
LayerCount: 2
Fore
SplineSet
744 0 m 1,0,-1
 744 372 l 1,1,-1
 372 372 l 1,2,-1
 372 744 l 1,3,-1
 1117 744 l 1,4,-1
 1117 372 l 1,5,-1
 2234 372 l 1,6,-1
 2234 1303 l 1,7,-1
 1303 1303 l 1,8,-1
 1303 1675 l 1,9,-1
 2234 1675 l 1,10,-1
 2234 2606 l 1,11,-1
 1117 2606 l 1,12,-1
 1117 2234 l 1,13,-1
 372 2234 l 1,14,-1
 372 2606 l 1,15,-1
 744 2606 l 1,16,-1
 744 2978 l 1,17,-1
 2606 2978 l 1,18,-1
 2606 2606 l 1,19,-1
 2978 2606 l 1,20,-1
 2978 1675 l 1,21,-1
 2606 1675 l 1,22,-1
 2606 1303 l 1,23,-1
 2978 1303 l 1,24,-1
 2978 372 l 1,25,-1
 2606 372 l 1,26,-1
 2606 0 l 1,27,-1
 744 0 l 1,0,-1
EndSplineSet
EndChar

StartChar: uni0418
Encoding: 1048 1048 220
Width: 3165
GlyphClass: 2
Flags: W
LayerCount: 2
Fore
SplineSet
372 0 m 1,0,-1
 372 2978 l 1,1,-1
 1117 2978 l 1,2,-1
 1117 1489 l 1,3,-1
 1489 1489 l 1,4,-1
 1489 1861 l 1,5,-1
 1861 1861 l 1,6,-1
 1861 2234 l 1,7,-1
 2234 2234 l 1,8,-1
 2234 2606 l 1,9,-1
 2606 2606 l 1,10,-1
 2606 2978 l 1,11,-1
 2978 2978 l 1,12,-1
 2978 0 l 1,13,-1
 2234 0 l 1,14,-1
 2234 1489 l 1,15,-1
 1861 1489 l 1,16,-1
 1861 1117 l 1,17,-1
 1489 1117 l 1,18,-1
 1489 744 l 1,19,-1
 1117 744 l 1,20,-1
 1117 372 l 1,21,-1
 744 372 l 1,22,-1
 744 0 l 1,23,-1
 372 0 l 1,0,-1
EndSplineSet
EndChar

StartChar: uni0419
Encoding: 1049 1049 221
Width: 3165
GlyphClass: 2
Flags: W
LayerCount: 2
Fore
SplineSet
372 0 m 1,0,-1
 372 2978 l 1,1,-1
 1117 2978 l 1,2,-1
 1117 1489 l 1,3,-1
 1489 1489 l 1,4,-1
 1489 1861 l 1,5,-1
 1861 1861 l 1,6,-1
 1861 2234 l 1,7,-1
 2234 2234 l 1,8,-1
 2234 2606 l 1,9,-1
 2606 2606 l 1,10,-1
 2606 2978 l 1,11,-1
 2978 2978 l 1,12,-1
 2978 0 l 1,13,-1
 2234 0 l 1,14,-1
 2234 1489 l 1,15,-1
 1861 1489 l 1,16,-1
 1861 1117 l 1,17,-1
 1489 1117 l 1,18,-1
 1489 744 l 1,19,-1
 1117 744 l 1,20,-1
 1117 372 l 1,21,-1
 744 372 l 1,22,-1
 744 0 l 1,23,-1
 372 0 l 1,0,-1
930 3351 m 1,24,-1
 930 3723 l 1,25,-1
 558 3723 l 1,26,-1
 558 4096 l 1,27,-1
 1303 4096 l 1,28,-1
 1303 3723 l 1,29,-1
 2048 3723 l 1,30,-1
 2048 4096 l 1,31,-1
 2792 4096 l 1,32,-1
 2792 3723 l 1,33,-1
 2420 3723 l 1,34,-1
 2420 3351 l 1,35,-1
 930 3351 l 1,24,-1
EndSplineSet
EndChar

StartChar: uni041A
Encoding: 1050 1050 222
Width: 3165
GlyphClass: 2
Flags: W
LayerCount: 2
Fore
SplineSet
372 0 m 1,0,-1
 372 2978 l 1,1,-1
 1117 2978 l 1,2,-1
 1117 1861 l 1,3,-1
 1489 1861 l 1,4,-1
 1489 2234 l 1,5,-1
 1861 2234 l 1,6,-1
 1861 2606 l 1,7,-1
 2234 2606 l 1,8,-1
 2234 2978 l 1,9,-1
 2978 2978 l 1,10,-1
 2978 2606 l 1,11,-1
 2606 2606 l 1,12,-1
 2606 2234 l 1,13,-1
 2234 2234 l 1,14,-1
 2234 1861 l 1,15,-1
 1861 1861 l 1,16,-1
 1861 1489 l 1,17,-1
 2234 1489 l 1,18,-1
 2234 1117 l 1,19,-1
 2606 1117 l 1,20,-1
 2606 744 l 1,21,-1
 2978 744 l 1,22,-1
 2978 0 l 1,23,-1
 2234 0 l 1,24,-1
 2234 744 l 1,25,-1
 1861 744 l 1,26,-1
 1861 1117 l 1,27,-1
 1489 1117 l 1,28,-1
 1489 1489 l 1,29,-1
 1117 1489 l 1,30,-1
 1117 0 l 1,31,-1
 372 0 l 1,0,-1
EndSplineSet
EndChar

StartChar: uni041B
Encoding: 1051 1051 223
Width: 3165
GlyphClass: 2
Flags: W
LayerCount: 2
Fore
SplineSet
372 0 m 1,0,-1
 372 372 l 1,1,-1
 744 372 l 1,2,-1
 744 2606 l 1,3,-1
 1117 2606 l 1,4,-1
 1117 2978 l 1,5,-1
 2978 2978 l 1,6,-1
 2978 0 l 1,7,-1
 2234 0 l 1,8,-1
 2234 2606 l 1,9,-1
 1489 2606 l 1,10,-1
 1489 372 l 1,11,-1
 1117 372 l 1,12,-1
 1117 0 l 1,13,-1
 372 0 l 1,0,-1
EndSplineSet
EndChar

StartChar: uni041C
Encoding: 1052 1052 224
Width: 3165
GlyphClass: 2
Flags: W
LayerCount: 2
Fore
SplineSet
372 0 m 1,0,-1
 372 2978 l 1,1,-1
 744 2978 l 1,2,-1
 744 2606 l 1,3,-1
 1117 2606 l 1,4,-1
 1117 2234 l 1,5,-1
 1489 2234 l 1,6,-1
 1489 1861 l 1,7,-1
 1861 1861 l 1,8,-1
 1861 2234 l 1,9,-1
 2234 2234 l 1,10,-1
 2234 2606 l 1,11,-1
 2606 2606 l 1,12,-1
 2606 2978 l 1,13,-1
 2978 2978 l 1,14,-1
 2978 0 l 1,15,-1
 2234 0 l 1,16,-1
 2234 1489 l 1,17,-1
 1861 1489 l 1,18,-1
 1861 1117 l 1,19,-1
 1489 1117 l 1,20,-1
 1489 1489 l 1,21,-1
 1117 1489 l 1,22,-1
 1117 0 l 1,23,-1
 372 0 l 1,0,-1
EndSplineSet
EndChar

StartChar: uni041D
Encoding: 1053 1053 225
Width: 3165
GlyphClass: 2
Flags: W
LayerCount: 2
Fore
SplineSet
372 0 m 1,0,-1
 372 2978 l 1,1,-1
 1117 2978 l 1,2,-1
 1117 1861 l 1,3,-1
 2234 1861 l 1,4,-1
 2234 2978 l 1,5,-1
 2978 2978 l 1,6,-1
 2978 0 l 1,7,-1
 2234 0 l 1,8,-1
 2234 1489 l 1,9,-1
 1117 1489 l 1,10,-1
 1117 0 l 1,11,-1
 372 0 l 1,0,-1
EndSplineSet
EndChar

StartChar: uni041E
Encoding: 1054 1054 226
Width: 3165
GlyphClass: 2
Flags: W
LayerCount: 2
Fore
SplineSet
2234 372 m 1,0,-1
 2234 2606 l 1,1,-1
 1117 2606 l 1,2,-1
 1117 372 l 1,3,-1
 2234 372 l 1,0,-1
744 0 m 1,4,-1
 744 372 l 1,5,-1
 372 372 l 1,6,-1
 372 2606 l 1,7,-1
 744 2606 l 1,8,-1
 744 2978 l 1,9,-1
 2606 2978 l 1,10,-1
 2606 2606 l 1,11,-1
 2978 2606 l 1,12,-1
 2978 372 l 1,13,-1
 2606 372 l 1,14,-1
 2606 0 l 1,15,-1
 744 0 l 1,4,-1
EndSplineSet
EndChar

StartChar: uni041F
Encoding: 1055 1055 227
Width: 3165
GlyphClass: 2
Flags: W
LayerCount: 2
Fore
SplineSet
372 0 m 1,0,-1
 372 2978 l 1,1,-1
 2978 2978 l 1,2,-1
 2978 0 l 1,3,-1
 2234 0 l 1,4,-1
 2234 2606 l 1,5,-1
 1117 2606 l 1,6,-1
 1117 0 l 1,7,-1
 372 0 l 1,0,-1
EndSplineSet
EndChar

StartChar: uni0420
Encoding: 1056 1056 228
Width: 3165
GlyphClass: 2
Flags: W
LayerCount: 2
Fore
SplineSet
2234 1861 m 1,0,-1
 2234 2606 l 1,1,-1
 1117 2606 l 1,2,-1
 1117 1861 l 1,3,-1
 2234 1861 l 1,0,-1
372 0 m 1,4,-1
 372 2978 l 1,5,-1
 2606 2978 l 1,6,-1
 2606 2606 l 1,7,-1
 2978 2606 l 1,8,-1
 2978 1861 l 1,9,-1
 2606 1861 l 1,10,-1
 2606 1489 l 1,11,-1
 1117 1489 l 1,12,-1
 1117 0 l 1,13,-1
 372 0 l 1,4,-1
EndSplineSet
EndChar

StartChar: uni0421
Encoding: 1057 1057 229
Width: 3165
GlyphClass: 2
Flags: W
LayerCount: 2
Fore
SplineSet
1117 0 m 1,0,-1
 1117 372 l 1,1,-1
 744 372 l 1,2,-1
 744 744 l 1,3,-1
 372 744 l 1,4,-1
 372 2234 l 1,5,-1
 744 2234 l 1,6,-1
 744 2606 l 1,7,-1
 1117 2606 l 1,8,-1
 1117 2978 l 1,9,-1
 2606 2978 l 1,10,-1
 2606 2606 l 1,11,-1
 2978 2606 l 1,12,-1
 2978 2234 l 1,13,-1
 2234 2234 l 1,14,-1
 2234 2606 l 1,15,-1
 1489 2606 l 1,16,-1
 1489 2234 l 1,17,-1
 1117 2234 l 1,18,-1
 1117 744 l 1,19,-1
 1489 744 l 1,20,-1
 1489 372 l 1,21,-1
 2234 372 l 1,22,-1
 2234 744 l 1,23,-1
 2978 744 l 1,24,-1
 2978 372 l 1,25,-1
 2606 372 l 1,26,-1
 2606 0 l 1,27,-1
 1117 0 l 1,0,-1
EndSplineSet
EndChar

StartChar: uni0422
Encoding: 1058 1058 230
Width: 3165
GlyphClass: 2
Flags: W
LayerCount: 2
Fore
SplineSet
1303 0 m 1,0,-1
 1303 2606 l 1,1,-1
 372 2606 l 1,2,-1
 372 2978 l 1,3,-1
 2978 2978 l 1,4,-1
 2978 2606 l 1,5,-1
 2048 2606 l 1,6,-1
 2048 0 l 1,7,-1
 1303 0 l 1,0,-1
EndSplineSet
EndChar

StartChar: uni0423
Encoding: 1059 1059 231
Width: 3165
GlyphClass: 2
Flags: W
LayerCount: 2
Fore
SplineSet
744 0 m 1,0,-1
 744 372 l 1,1,-1
 372 372 l 1,2,-1
 372 744 l 1,3,-1
 1117 744 l 1,4,-1
 1117 372 l 1,5,-1
 2234 372 l 1,6,-1
 2234 1303 l 1,7,-1
 744 1303 l 1,8,-1
 744 1675 l 1,9,-1
 372 1675 l 1,10,-1
 372 2978 l 1,11,-1
 1117 2978 l 1,12,-1
 1117 1675 l 1,13,-1
 2234 1675 l 1,14,-1
 2234 2978 l 1,15,-1
 2978 2978 l 1,16,-1
 2978 372 l 1,17,-1
 2606 372 l 1,18,-1
 2606 0 l 1,19,-1
 744 0 l 1,0,-1
EndSplineSet
EndChar

StartChar: uni0424
Encoding: 1060 1060 232
Width: 4282
GlyphClass: 2
Flags: W
LayerCount: 2
Fore
SplineSet
1861 744 m 1,0,-1
 1861 2234 l 1,1,-1
 1117 2234 l 1,2,-1
 1117 744 l 1,3,-1
 1861 744 l 1,0,-1
3351 744 m 1,4,-1
 3351 2234 l 1,5,-1
 2606 2234 l 1,6,-1
 2606 744 l 1,7,-1
 3351 744 l 1,4,-1
1861 0 m 1,8,-1
 1861 372 l 1,9,-1
 744 372 l 1,10,-1
 744 744 l 1,11,-1
 372 744 l 1,12,-1
 372 2234 l 1,13,-1
 744 2234 l 1,14,-1
 744 2606 l 1,15,-1
 1861 2606 l 1,16,-1
 1861 2978 l 1,17,-1
 2606 2978 l 1,18,-1
 2606 2606 l 1,19,-1
 3723 2606 l 1,20,-1
 3723 2234 l 1,21,-1
 4096 2234 l 1,22,-1
 4096 744 l 1,23,-1
 3723 744 l 1,24,-1
 3723 372 l 1,25,-1
 2606 372 l 1,26,-1
 2606 0 l 1,27,-1
 1861 0 l 1,8,-1
EndSplineSet
EndChar

StartChar: uni0425
Encoding: 1061 1061 233
Width: 3165
GlyphClass: 2
Flags: W
LayerCount: 2
Fore
SplineSet
372 0 m 1,0,-1
 372 1117 l 1,1,-1
 744 1117 l 1,2,-1
 744 1489 l 1,3,-1
 1117 1489 l 1,4,-1
 1117 1861 l 1,5,-1
 744 1861 l 1,6,-1
 744 2234 l 1,7,-1
 372 2234 l 1,8,-1
 372 2978 l 1,9,-1
 1117 2978 l 1,10,-1
 1117 2234 l 1,11,-1
 1489 2234 l 1,12,-1
 1489 1861 l 1,13,-1
 1861 1861 l 1,14,-1
 1861 2234 l 1,15,-1
 2234 2234 l 1,16,-1
 2234 2978 l 1,17,-1
 2978 2978 l 1,18,-1
 2978 2234 l 1,19,-1
 2606 2234 l 1,20,-1
 2606 1861 l 1,21,-1
 2234 1861 l 1,22,-1
 2234 1489 l 1,23,-1
 2606 1489 l 1,24,-1
 2606 1117 l 1,25,-1
 2978 1117 l 1,26,-1
 2978 0 l 1,27,-1
 2234 0 l 1,28,-1
 2234 1117 l 1,29,-1
 1861 1117 l 1,30,-1
 1861 1489 l 1,31,-1
 1489 1489 l 1,32,-1
 1489 1117 l 1,33,-1
 1117 1117 l 1,34,-1
 1117 0 l 1,35,-1
 372 0 l 1,0,-1
EndSplineSet
EndChar

StartChar: uni0426
Encoding: 1062 1062 234
Width: 3537
GlyphClass: 2
Flags: W
LayerCount: 2
Fore
SplineSet
2606 -558 m 1,0,-1
 2606 0 l 1,1,-1
 372 0 l 1,2,-1
 372 2978 l 1,3,-1
 1117 2978 l 1,4,-1
 1117 372 l 1,5,-1
 2234 372 l 1,6,-1
 2234 2978 l 1,7,-1
 2978 2978 l 1,8,-1
 2978 372 l 1,9,-1
 3351 372 l 1,10,-1
 3351 -558 l 1,11,-1
 2606 -558 l 1,0,-1
EndSplineSet
EndChar

StartChar: uni0427
Encoding: 1063 1063 235
Width: 3165
GlyphClass: 2
Flags: W
LayerCount: 2
Fore
SplineSet
2234 0 m 1,0,-1
 2234 1303 l 1,1,-1
 744 1303 l 1,2,-1
 744 1675 l 1,3,-1
 372 1675 l 1,4,-1
 372 2978 l 1,5,-1
 1117 2978 l 1,6,-1
 1117 1675 l 1,7,-1
 2234 1675 l 1,8,-1
 2234 2978 l 1,9,-1
 2978 2978 l 1,10,-1
 2978 0 l 1,11,-1
 2234 0 l 1,0,-1
EndSplineSet
EndChar

StartChar: uni0428
Encoding: 1064 1064 236
Width: 3909
GlyphClass: 2
Flags: W
LayerCount: 2
Fore
SplineSet
372 0 m 1,0,-1
 372 2978 l 1,1,-1
 1117 2978 l 1,2,-1
 1117 372 l 1,3,-1
 1675 372 l 1,4,-1
 1675 2978 l 1,5,-1
 2420 2978 l 1,6,-1
 2420 372 l 1,7,-1
 2978 372 l 1,8,-1
 2978 2978 l 1,9,-1
 3723 2978 l 1,10,-1
 3723 0 l 1,11,-1
 372 0 l 1,0,-1
EndSplineSet
EndChar

StartChar: uni0429
Encoding: 1065 1065 237
Width: 4282
GlyphClass: 2
Flags: W
LayerCount: 2
Fore
SplineSet
3351 -558 m 1,0,-1
 3351 0 l 1,1,-1
 372 0 l 1,2,-1
 372 2978 l 1,3,-1
 1117 2978 l 1,4,-1
 1117 372 l 1,5,-1
 1675 372 l 1,6,-1
 1675 2978 l 1,7,-1
 2420 2978 l 1,8,-1
 2420 372 l 1,9,-1
 2978 372 l 1,10,-1
 2978 2978 l 1,11,-1
 3723 2978 l 1,12,-1
 3723 372 l 1,13,-1
 4096 372 l 1,14,-1
 4096 -558 l 1,15,-1
 3351 -558 l 1,0,-1
EndSplineSet
EndChar

StartChar: uni042A
Encoding: 1066 1066 238
Width: 3723
GlyphClass: 2
Flags: W
LayerCount: 2
Fore
SplineSet
2792 372 m 1,0,-1
 2792 1489 l 1,1,-1
 1675 1489 l 1,2,-1
 1675 372 l 1,3,-1
 2792 372 l 1,0,-1
930 0 m 1,4,-1
 930 2606 l 1,5,-1
 372 2606 l 1,6,-1
 372 2978 l 1,7,-1
 1675 2978 l 1,8,-1
 1675 1861 l 1,9,-1
 3165 1861 l 1,10,-1
 3165 1489 l 1,11,-1
 3537 1489 l 1,12,-1
 3537 372 l 1,13,-1
 3165 372 l 1,14,-1
 3165 0 l 1,15,-1
 930 0 l 1,4,-1
EndSplineSet
EndChar

StartChar: uni042B
Encoding: 1067 1067 239
Width: 4282
GlyphClass: 2
Flags: W
LayerCount: 2
Fore
SplineSet
2234 372 m 1,0,-1
 2234 1489 l 1,1,-1
 1117 1489 l 1,2,-1
 1117 372 l 1,3,-1
 2234 372 l 1,0,-1
372 0 m 1,4,-1
 372 2978 l 1,5,-1
 1117 2978 l 1,6,-1
 1117 1861 l 1,7,-1
 2606 1861 l 1,8,-1
 2606 1489 l 1,9,-1
 2978 1489 l 1,10,-1
 2978 372 l 1,11,-1
 2606 372 l 1,12,-1
 2606 0 l 1,13,-1
 372 0 l 1,4,-1
3351 0 m 1,14,-1
 3351 2978 l 1,15,-1
 4096 2978 l 1,16,-1
 4096 0 l 1,17,-1
 3351 0 l 1,14,-1
EndSplineSet
EndChar

StartChar: uni042C
Encoding: 1068 1068 240
Width: 3165
GlyphClass: 2
Flags: W
LayerCount: 2
Fore
SplineSet
2234 372 m 1,0,-1
 2234 1489 l 1,1,-1
 1117 1489 l 1,2,-1
 1117 372 l 1,3,-1
 2234 372 l 1,0,-1
372 0 m 1,4,-1
 372 2978 l 1,5,-1
 1117 2978 l 1,6,-1
 1117 1861 l 1,7,-1
 2606 1861 l 1,8,-1
 2606 1489 l 1,9,-1
 2978 1489 l 1,10,-1
 2978 372 l 1,11,-1
 2606 372 l 1,12,-1
 2606 0 l 1,13,-1
 372 0 l 1,4,-1
EndSplineSet
EndChar

StartChar: uni042D
Encoding: 1069 1069 241
Width: 3165
GlyphClass: 2
Flags: W
LayerCount: 2
Fore
SplineSet
744 0 m 1,0,-1
 744 372 l 1,1,-1
 372 372 l 1,2,-1
 372 744 l 1,3,-1
 1117 744 l 1,4,-1
 1117 372 l 1,5,-1
 1861 372 l 1,6,-1
 1861 744 l 1,7,-1
 2234 744 l 1,8,-1
 2234 1303 l 1,9,-1
 1117 1303 l 1,10,-1
 1117 1675 l 1,11,-1
 2234 1675 l 1,12,-1
 2234 2234 l 1,13,-1
 1861 2234 l 1,14,-1
 1861 2606 l 1,15,-1
 1117 2606 l 1,16,-1
 1117 2234 l 1,17,-1
 372 2234 l 1,18,-1
 372 2606 l 1,19,-1
 744 2606 l 1,20,-1
 744 2978 l 1,21,-1
 2234 2978 l 1,22,-1
 2234 2606 l 1,23,-1
 2606 2606 l 1,24,-1
 2606 2234 l 1,25,-1
 2978 2234 l 1,26,-1
 2978 744 l 1,27,-1
 2606 744 l 1,28,-1
 2606 372 l 1,29,-1
 2234 372 l 1,30,-1
 2234 0 l 1,31,-1
 744 0 l 1,0,-1
EndSplineSet
EndChar

StartChar: uni042E
Encoding: 1070 1070 242
Width: 4468
GlyphClass: 2
Flags: W
LayerCount: 2
Fore
SplineSet
3537 372 m 1,0,-1
 3537 2606 l 1,1,-1
 2420 2606 l 1,2,-1
 2420 372 l 1,3,-1
 3537 372 l 1,0,-1
372 0 m 1,4,-1
 372 2978 l 1,5,-1
 1303 2978 l 1,6,-1
 1303 1675 l 1,7,-1
 1675 1675 l 1,8,-1
 1675 2606 l 1,9,-1
 2048 2606 l 1,10,-1
 2048 2978 l 1,11,-1
 3909 2978 l 1,12,-1
 3909 2606 l 1,13,-1
 4282 2606 l 1,14,-1
 4282 372 l 1,15,-1
 3909 372 l 1,16,-1
 3909 0 l 1,17,-1
 2048 0 l 1,18,-1
 2048 372 l 1,19,-1
 1675 372 l 1,20,-1
 1675 1303 l 1,21,-1
 1303 1303 l 1,22,-1
 1303 0 l 1,23,-1
 372 0 l 1,4,-1
EndSplineSet
EndChar

StartChar: uni042F
Encoding: 1071 1071 243
Width: 3165
GlyphClass: 2
Flags: W
LayerCount: 2
Fore
SplineSet
2234 1861 m 1,0,-1
 2234 2606 l 1,1,-1
 1117 2606 l 1,2,-1
 1117 1861 l 1,3,-1
 2234 1861 l 1,0,-1
372 0 m 1,4,-1
 372 1489 l 1,5,-1
 744 1489 l 1,6,-1
 744 1861 l 1,7,-1
 372 1861 l 1,8,-1
 372 2606 l 1,9,-1
 744 2606 l 1,10,-1
 744 2978 l 1,11,-1
 2978 2978 l 1,12,-1
 2978 0 l 1,13,-1
 2234 0 l 1,14,-1
 2234 1489 l 1,15,-1
 1117 1489 l 1,16,-1
 1117 0 l 1,17,-1
 372 0 l 1,4,-1
EndSplineSet
EndChar

StartChar: uni0430
Encoding: 1072 1072 244
Width: 3165
GlyphClass: 2
Flags: W
LayerCount: 2
Fore
SplineSet
2234 372 m 1,0,-1
 2234 744 l 1,1,-1
 1117 744 l 1,2,-1
 1117 372 l 1,3,-1
 2234 372 l 1,0,-1
744 0 m 1,4,-1
 744 372 l 1,5,-1
 372 372 l 1,6,-1
 372 744 l 1,7,-1
 744 744 l 1,8,-1
 744 1117 l 1,9,-1
 2234 1117 l 1,10,-1
 2234 1489 l 1,11,-1
 744 1489 l 1,12,-1
 744 1861 l 1,13,-1
 2606 1861 l 1,14,-1
 2606 1489 l 1,15,-1
 2978 1489 l 1,16,-1
 2978 0 l 1,17,-1
 744 0 l 1,4,-1
EndSplineSet
EndChar

StartChar: uni0431
Encoding: 1073 1073 245
Width: 3165
GlyphClass: 2
Flags: W
LayerCount: 2
Fore
SplineSet
2234 372 m 1,0,-1
 2234 1489 l 1,1,-1
 1861 1489 l 1,2,-1
 1861 1117 l 1,3,-1
 1117 1117 l 1,4,-1
 1117 372 l 1,5,-1
 2234 372 l 1,0,-1
744 0 m 1,6,-1
 744 372 l 1,7,-1
 372 372 l 1,8,-1
 372 2606 l 1,9,-1
 744 2606 l 1,10,-1
 744 2978 l 1,11,-1
 2606 2978 l 1,12,-1
 2606 2606 l 1,13,-1
 1117 2606 l 1,14,-1
 1117 1489 l 1,15,-1
 1489 1489 l 1,16,-1
 1489 1861 l 1,17,-1
 2606 1861 l 1,18,-1
 2606 1489 l 1,19,-1
 2978 1489 l 1,20,-1
 2978 372 l 1,21,-1
 2606 372 l 1,22,-1
 2606 0 l 1,23,-1
 744 0 l 1,6,-1
EndSplineSet
EndChar

StartChar: uni0432
Encoding: 1074 1074 246
Width: 3165
GlyphClass: 2
Flags: W
LayerCount: 2
Fore
SplineSet
2234 372 m 1,0,-1
 2234 744 l 1,1,-1
 1117 744 l 1,2,-1
 1117 372 l 1,3,-1
 2234 372 l 1,0,-1
2234 1117 m 1,4,-1
 2234 1489 l 1,5,-1
 1117 1489 l 1,6,-1
 1117 1117 l 1,7,-1
 2234 1117 l 1,4,-1
372 0 m 1,8,-1
 372 1861 l 1,9,-1
 2606 1861 l 1,10,-1
 2606 1489 l 1,11,-1
 2978 1489 l 1,12,-1
 2978 1117 l 1,13,-1
 2606 1117 l 1,14,-1
 2606 744 l 1,15,-1
 2978 744 l 1,16,-1
 2978 372 l 1,17,-1
 2606 372 l 1,18,-1
 2606 0 l 1,19,-1
 372 0 l 1,8,-1
EndSplineSet
EndChar

StartChar: uni0433
Encoding: 1075 1075 247
Width: 2420
GlyphClass: 2
Flags: W
LayerCount: 2
Fore
SplineSet
372 0 m 1,0,-1
 372 1861 l 1,1,-1
 2234 1861 l 1,2,-1
 2234 1489 l 1,3,-1
 1117 1489 l 1,4,-1
 1117 0 l 1,5,-1
 372 0 l 1,0,-1
EndSplineSet
EndChar

StartChar: uni0434
Encoding: 1076 1076 248
Width: 3537
GlyphClass: 2
Flags: W
LayerCount: 2
Fore
SplineSet
2234 372 m 1,0,-1
 2234 1489 l 1,1,-1
 1489 1489 l 1,2,-1
 1489 372 l 1,3,-1
 2234 372 l 1,0,-1
372 -558 m 1,4,-1
 372 372 l 1,5,-1
 744 372 l 1,6,-1
 744 1489 l 1,7,-1
 1117 1489 l 1,8,-1
 1117 1861 l 1,9,-1
 2978 1861 l 1,10,-1
 2978 372 l 1,11,-1
 3351 372 l 1,12,-1
 3351 -558 l 1,13,-1
 2606 -558 l 1,14,-1
 2606 0 l 1,15,-1
 1117 0 l 1,16,-1
 1117 -558 l 1,17,-1
 372 -558 l 1,4,-1
EndSplineSet
EndChar

StartChar: uni0435
Encoding: 1077 1077 249
Width: 3165
GlyphClass: 2
Flags: W
LayerCount: 2
Fore
SplineSet
2234 1117 m 1,0,-1
 2234 1489 l 1,1,-1
 1117 1489 l 1,2,-1
 1117 1117 l 1,3,-1
 2234 1117 l 1,0,-1
744 0 m 1,4,-1
 744 372 l 1,5,-1
 372 372 l 1,6,-1
 372 1489 l 1,7,-1
 744 1489 l 1,8,-1
 744 1861 l 1,9,-1
 2606 1861 l 1,10,-1
 2606 1489 l 1,11,-1
 2978 1489 l 1,12,-1
 2978 744 l 1,13,-1
 1117 744 l 1,14,-1
 1117 372 l 1,15,-1
 2606 372 l 1,16,-1
 2606 0 l 1,17,-1
 744 0 l 1,4,-1
EndSplineSet
EndChar

StartChar: uni0436
Encoding: 1078 1078 250
Width: 3537
GlyphClass: 2
Flags: W
LayerCount: 2
Fore
SplineSet
372 0 m 1,0,-1
 372 744 l 1,1,-1
 744 744 l 1,2,-1
 744 1117 l 1,3,-1
 372 1117 l 1,4,-1
 372 1861 l 1,5,-1
 1117 1861 l 1,6,-1
 1117 1117 l 1,7,-1
 1489 1117 l 1,8,-1
 1489 1861 l 1,9,-1
 2234 1861 l 1,10,-1
 2234 1117 l 1,11,-1
 2606 1117 l 1,12,-1
 2606 1861 l 1,13,-1
 3351 1861 l 1,14,-1
 3351 1117 l 1,15,-1
 2978 1117 l 1,16,-1
 2978 744 l 1,17,-1
 3351 744 l 1,18,-1
 3351 0 l 1,19,-1
 2606 0 l 1,20,-1
 2606 744 l 1,21,-1
 2234 744 l 1,22,-1
 2234 0 l 1,23,-1
 1489 0 l 1,24,-1
 1489 744 l 1,25,-1
 1117 744 l 1,26,-1
 1117 0 l 1,27,-1
 372 0 l 1,0,-1
EndSplineSet
EndChar

StartChar: uni0437
Encoding: 1079 1079 251
Width: 3165
GlyphClass: 2
Flags: W
LayerCount: 2
Fore
SplineSet
744 0 m 1,0,-1
 744 372 l 1,1,-1
 372 372 l 1,2,-1
 372 744 l 1,3,-1
 1117 744 l 1,4,-1
 1117 372 l 1,5,-1
 2234 372 l 1,6,-1
 2234 744 l 1,7,-1
 1489 744 l 1,8,-1
 1489 1117 l 1,9,-1
 2234 1117 l 1,10,-1
 2234 1489 l 1,11,-1
 1117 1489 l 1,12,-1
 1117 1117 l 1,13,-1
 372 1117 l 1,14,-1
 372 1489 l 1,15,-1
 744 1489 l 1,16,-1
 744 1861 l 1,17,-1
 2606 1861 l 1,18,-1
 2606 1489 l 1,19,-1
 2978 1489 l 1,20,-1
 2978 1117 l 1,21,-1
 2606 1117 l 1,22,-1
 2606 744 l 1,23,-1
 2978 744 l 1,24,-1
 2978 372 l 1,25,-1
 2606 372 l 1,26,-1
 2606 0 l 1,27,-1
 744 0 l 1,0,-1
EndSplineSet
EndChar

StartChar: uni0438
Encoding: 1080 1080 252
Width: 3165
GlyphClass: 2
Flags: W
LayerCount: 2
Fore
SplineSet
372 0 m 1,0,-1
 372 1861 l 1,1,-1
 1117 1861 l 1,2,-1
 1117 930 l 1,3,-1
 1489 930 l 1,4,-1
 1489 1303 l 1,5,-1
 1861 1303 l 1,6,-1
 1861 1675 l 1,7,-1
 2234 1675 l 1,8,-1
 2234 1861 l 1,9,-1
 2978 1861 l 1,10,-1
 2978 0 l 1,11,-1
 2234 0 l 1,12,-1
 2234 930 l 1,13,-1
 1861 930 l 1,14,-1
 1861 558 l 1,15,-1
 1489 558 l 1,16,-1
 1489 186 l 1,17,-1
 1117 186 l 1,18,-1
 1117 0 l 1,19,-1
 372 0 l 1,0,-1
EndSplineSet
EndChar

StartChar: uni0439
Encoding: 1081 1081 253
Width: 3165
GlyphClass: 2
Flags: W
LayerCount: 2
Fore
SplineSet
372 0 m 1,0,-1
 372 1861 l 1,1,-1
 1117 1861 l 1,2,-1
 1117 930 l 1,3,-1
 1489 930 l 1,4,-1
 1489 1303 l 1,5,-1
 1861 1303 l 1,6,-1
 1861 1675 l 1,7,-1
 2234 1675 l 1,8,-1
 2234 1861 l 1,9,-1
 2978 1861 l 1,10,-1
 2978 0 l 1,11,-1
 2234 0 l 1,12,-1
 2234 930 l 1,13,-1
 1861 930 l 1,14,-1
 1861 558 l 1,15,-1
 1489 558 l 1,16,-1
 1489 186 l 1,17,-1
 1117 186 l 1,18,-1
 1117 0 l 1,19,-1
 372 0 l 1,0,-1
930 2234 m 1,20,-1
 930 2606 l 1,21,-1
 558 2606 l 1,22,-1
 558 2978 l 1,23,-1
 1303 2978 l 1,24,-1
 1303 2606 l 1,25,-1
 2048 2606 l 1,26,-1
 2048 2978 l 1,27,-1
 2792 2978 l 1,28,-1
 2792 2606 l 1,29,-1
 2420 2606 l 1,30,-1
 2420 2234 l 1,31,-1
 930 2234 l 1,20,-1
EndSplineSet
EndChar

StartChar: uni043A
Encoding: 1082 1082 254
Width: 2792
GlyphClass: 2
Flags: W
LayerCount: 2
Fore
SplineSet
372 0 m 1,0,-1
 372 1861 l 1,1,-1
 1117 1861 l 1,2,-1
 1117 1117 l 1,3,-1
 1489 1117 l 1,4,-1
 1489 1489 l 1,5,-1
 1861 1489 l 1,6,-1
 1861 1861 l 1,7,-1
 2606 1861 l 1,8,-1
 2606 1489 l 1,9,-1
 2234 1489 l 1,10,-1
 2234 1117 l 1,11,-1
 1861 1117 l 1,12,-1
 1861 744 l 1,13,-1
 2234 744 l 1,14,-1
 2234 372 l 1,15,-1
 2606 372 l 1,16,-1
 2606 0 l 1,17,-1
 1861 0 l 1,18,-1
 1861 372 l 1,19,-1
 1489 372 l 1,20,-1
 1489 744 l 1,21,-1
 1117 744 l 1,22,-1
 1117 0 l 1,23,-1
 372 0 l 1,0,-1
EndSplineSet
EndChar

StartChar: uni043B
Encoding: 1083 1083 255
Width: 3165
GlyphClass: 2
Flags: W
LayerCount: 2
Fore
SplineSet
372 0 m 1,0,-1
 372 372 l 1,1,-1
 744 372 l 1,2,-1
 744 1489 l 1,3,-1
 1117 1489 l 1,4,-1
 1117 1861 l 1,5,-1
 2978 1861 l 1,6,-1
 2978 0 l 1,7,-1
 2234 0 l 1,8,-1
 2234 1489 l 1,9,-1
 1489 1489 l 1,10,-1
 1489 372 l 1,11,-1
 1117 372 l 1,12,-1
 1117 0 l 1,13,-1
 372 0 l 1,0,-1
EndSplineSet
EndChar

StartChar: uni043C
Encoding: 1084 1084 256
Width: 3165
GlyphClass: 2
Flags: W
LayerCount: 2
Fore
SplineSet
372 0 m 1,0,-1
 372 1861 l 1,1,-1
 1117 1861 l 1,2,-1
 1117 1489 l 1,3,-1
 1489 1489 l 1,4,-1
 1489 1117 l 1,5,-1
 1861 1117 l 1,6,-1
 1861 1489 l 1,7,-1
 2234 1489 l 1,8,-1
 2234 1861 l 1,9,-1
 2978 1861 l 1,10,-1
 2978 0 l 1,11,-1
 2234 0 l 1,12,-1
 2234 744 l 1,13,-1
 1861 744 l 1,14,-1
 1861 372 l 1,15,-1
 1489 372 l 1,16,-1
 1489 744 l 1,17,-1
 1117 744 l 1,18,-1
 1117 0 l 1,19,-1
 372 0 l 1,0,-1
EndSplineSet
EndChar

StartChar: uni043D
Encoding: 1085 1085 257
Width: 3165
GlyphClass: 2
Flags: W
LayerCount: 2
Fore
SplineSet
372 0 m 1,0,-1
 372 1861 l 1,1,-1
 1117 1861 l 1,2,-1
 1117 1117 l 1,3,-1
 2234 1117 l 1,4,-1
 2234 1861 l 1,5,-1
 2978 1861 l 1,6,-1
 2978 0 l 1,7,-1
 2234 0 l 1,8,-1
 2234 744 l 1,9,-1
 1117 744 l 1,10,-1
 1117 0 l 1,11,-1
 372 0 l 1,0,-1
EndSplineSet
EndChar

StartChar: uni043E
Encoding: 1086 1086 258
Width: 3165
GlyphClass: 2
Flags: W
LayerCount: 2
Fore
SplineSet
2234 372 m 1,0,-1
 2234 1489 l 1,1,-1
 1117 1489 l 1,2,-1
 1117 372 l 1,3,-1
 2234 372 l 1,0,-1
744 0 m 1,4,-1
 744 372 l 1,5,-1
 372 372 l 1,6,-1
 372 1489 l 1,7,-1
 744 1489 l 1,8,-1
 744 1861 l 1,9,-1
 2606 1861 l 1,10,-1
 2606 1489 l 1,11,-1
 2978 1489 l 1,12,-1
 2978 372 l 1,13,-1
 2606 372 l 1,14,-1
 2606 0 l 1,15,-1
 744 0 l 1,4,-1
EndSplineSet
EndChar

StartChar: uni043F
Encoding: 1087 1087 259
Width: 3165
GlyphClass: 2
Flags: W
LayerCount: 2
Fore
SplineSet
372 0 m 1,0,-1
 372 1861 l 1,1,-1
 2978 1861 l 1,2,-1
 2978 0 l 1,3,-1
 2234 0 l 1,4,-1
 2234 1489 l 1,5,-1
 1117 1489 l 1,6,-1
 1117 0 l 1,7,-1
 372 0 l 1,0,-1
EndSplineSet
EndChar

StartChar: uni0440
Encoding: 1088 1088 260
Width: 3165
GlyphClass: 2
Flags: W
LayerCount: 2
Fore
SplineSet
2234 372 m 1,0,-1
 2234 1489 l 1,1,-1
 1117 1489 l 1,2,-1
 1117 372 l 1,3,-1
 2234 372 l 1,0,-1
372 -1117 m 1,4,-1
 372 1861 l 1,5,-1
 2606 1861 l 1,6,-1
 2606 1489 l 1,7,-1
 2978 1489 l 1,8,-1
 2978 372 l 1,9,-1
 2606 372 l 1,10,-1
 2606 0 l 1,11,-1
 1117 0 l 1,12,-1
 1117 -1117 l 1,13,-1
 372 -1117 l 1,4,-1
EndSplineSet
EndChar

StartChar: uni0441
Encoding: 1089 1089 261
Width: 3165
GlyphClass: 2
Flags: W
LayerCount: 2
Fore
SplineSet
744 0 m 1,0,-1
 744 372 l 1,1,-1
 372 372 l 1,2,-1
 372 1489 l 1,3,-1
 744 1489 l 1,4,-1
 744 1861 l 1,5,-1
 2606 1861 l 1,6,-1
 2606 1489 l 1,7,-1
 2978 1489 l 1,8,-1
 2978 1117 l 1,9,-1
 2234 1117 l 1,10,-1
 2234 1489 l 1,11,-1
 1117 1489 l 1,12,-1
 1117 372 l 1,13,-1
 2234 372 l 1,14,-1
 2234 744 l 1,15,-1
 2978 744 l 1,16,-1
 2978 372 l 1,17,-1
 2606 372 l 1,18,-1
 2606 0 l 1,19,-1
 744 0 l 1,0,-1
EndSplineSet
EndChar

StartChar: uni0442
Encoding: 1090 1090 262
Width: 2792
GlyphClass: 2
Flags: W
LayerCount: 2
Fore
SplineSet
1117 0 m 1,0,-1
 1117 1489 l 1,1,-1
 372 1489 l 1,2,-1
 372 1861 l 1,3,-1
 2606 1861 l 1,4,-1
 2606 1489 l 1,5,-1
 1861 1489 l 1,6,-1
 1861 0 l 1,7,-1
 1117 0 l 1,0,-1
EndSplineSet
EndChar

StartChar: uni0443
Encoding: 1091 1091 263
Width: 3165
GlyphClass: 2
Flags: W
LayerCount: 2
Fore
SplineSet
744 -1117 m 1,0,-1
 744 -744 l 1,1,-1
 2234 -744 l 1,2,-1
 2234 0 l 1,3,-1
 744 0 l 1,4,-1
 744 372 l 1,5,-1
 372 372 l 1,6,-1
 372 1861 l 1,7,-1
 1117 1861 l 1,8,-1
 1117 372 l 1,9,-1
 2234 372 l 1,10,-1
 2234 1861 l 1,11,-1
 2978 1861 l 1,12,-1
 2978 -744 l 1,13,-1
 2606 -744 l 1,14,-1
 2606 -1117 l 1,15,-1
 744 -1117 l 1,0,-1
EndSplineSet
EndChar

StartChar: uni0444
Encoding: 1092 1092 264
Width: 3909
GlyphClass: 2
Flags: W
LayerCount: 2
Fore
SplineSet
1675 372 m 1,0,-1
 1675 1489 l 1,1,-1
 1117 1489 l 1,2,-1
 1117 372 l 1,3,-1
 1675 372 l 1,0,-1
2978 372 m 1,4,-1
 2978 1489 l 1,5,-1
 2420 1489 l 1,6,-1
 2420 372 l 1,7,-1
 2978 372 l 1,4,-1
1675 -1117 m 1,8,-1
 1675 0 l 1,9,-1
 744 0 l 1,10,-1
 744 372 l 1,11,-1
 372 372 l 1,12,-1
 372 1489 l 1,13,-1
 744 1489 l 1,14,-1
 744 1861 l 1,15,-1
 1675 1861 l 1,16,-1
 1675 2978 l 1,17,-1
 2420 2978 l 1,18,-1
 2420 1861 l 1,19,-1
 3351 1861 l 1,20,-1
 3351 1489 l 1,21,-1
 3723 1489 l 1,22,-1
 3723 372 l 1,23,-1
 3351 372 l 1,24,-1
 3351 0 l 1,25,-1
 2420 0 l 1,26,-1
 2420 -1117 l 1,27,-1
 1675 -1117 l 1,8,-1
EndSplineSet
EndChar

StartChar: uni0445
Encoding: 1093 1093 265
Width: 3165
GlyphClass: 2
Flags: W
LayerCount: 2
Fore
SplineSet
372 0 m 1,0,-1
 372 372 l 1,1,-1
 744 372 l 1,2,-1
 744 744 l 1,3,-1
 1117 744 l 1,4,-1
 1117 1117 l 1,5,-1
 744 1117 l 1,6,-1
 744 1489 l 1,7,-1
 372 1489 l 1,8,-1
 372 1861 l 1,9,-1
 1117 1861 l 1,10,-1
 1117 1489 l 1,11,-1
 1489 1489 l 1,12,-1
 1489 1303 l 1,13,-1
 1861 1303 l 1,14,-1
 1861 1489 l 1,15,-1
 2234 1489 l 1,16,-1
 2234 1861 l 1,17,-1
 2978 1861 l 1,18,-1
 2978 1489 l 1,19,-1
 2606 1489 l 1,20,-1
 2606 1117 l 1,21,-1
 2234 1117 l 1,22,-1
 2234 744 l 1,23,-1
 2606 744 l 1,24,-1
 2606 372 l 1,25,-1
 2978 372 l 1,26,-1
 2978 0 l 1,27,-1
 2234 0 l 1,28,-1
 2234 372 l 1,29,-1
 1861 372 l 1,30,-1
 1861 558 l 1,31,-1
 1489 558 l 1,32,-1
 1489 372 l 1,33,-1
 1117 372 l 1,34,-1
 1117 0 l 1,35,-1
 372 0 l 1,0,-1
EndSplineSet
EndChar

StartChar: uni0446
Encoding: 1094 1094 266
Width: 3537
GlyphClass: 2
Flags: W
LayerCount: 2
Fore
SplineSet
2606 -558 m 1,0,-1
 2606 0 l 1,1,-1
 372 0 l 1,2,-1
 372 1861 l 1,3,-1
 1117 1861 l 1,4,-1
 1117 372 l 1,5,-1
 2234 372 l 1,6,-1
 2234 1861 l 1,7,-1
 2978 1861 l 1,8,-1
 2978 372 l 1,9,-1
 3351 372 l 1,10,-1
 3351 -558 l 1,11,-1
 2606 -558 l 1,0,-1
EndSplineSet
EndChar

StartChar: uni0447
Encoding: 1095 1095 267
Width: 3165
GlyphClass: 2
Flags: W
LayerCount: 2
Fore
SplineSet
2234 0 m 1,0,-1
 2234 558 l 1,1,-1
 744 558 l 1,2,-1
 744 930 l 1,3,-1
 372 930 l 1,4,-1
 372 1861 l 1,5,-1
 1117 1861 l 1,6,-1
 1117 930 l 1,7,-1
 2234 930 l 1,8,-1
 2234 1861 l 1,9,-1
 2978 1861 l 1,10,-1
 2978 0 l 1,11,-1
 2234 0 l 1,0,-1
EndSplineSet
EndChar

StartChar: uni0448
Encoding: 1096 1096 268
Width: 3537
GlyphClass: 2
Flags: W
LayerCount: 2
Fore
SplineSet
372 0 m 1,0,-1
 372 1861 l 1,1,-1
 1117 1861 l 1,2,-1
 1117 372 l 1,3,-1
 1489 372 l 1,4,-1
 1489 1861 l 1,5,-1
 2234 1861 l 1,6,-1
 2234 372 l 1,7,-1
 2606 372 l 1,8,-1
 2606 1861 l 1,9,-1
 3351 1861 l 1,10,-1
 3351 0 l 1,11,-1
 372 0 l 1,0,-1
EndSplineSet
EndChar

StartChar: uni0449
Encoding: 1097 1097 269
Width: 3909
GlyphClass: 2
Flags: W
LayerCount: 2
Fore
SplineSet
2978 -558 m 1,0,-1
 2978 0 l 1,1,-1
 372 0 l 1,2,-1
 372 1861 l 1,3,-1
 1117 1861 l 1,4,-1
 1117 372 l 1,5,-1
 1489 372 l 1,6,-1
 1489 1861 l 1,7,-1
 2234 1861 l 1,8,-1
 2234 372 l 1,9,-1
 2606 372 l 1,10,-1
 2606 1861 l 1,11,-1
 3351 1861 l 1,12,-1
 3351 372 l 1,13,-1
 3723 372 l 1,14,-1
 3723 -558 l 1,15,-1
 2978 -558 l 1,0,-1
EndSplineSet
EndChar

StartChar: uni044A
Encoding: 1098 1098 270
Width: 3723
GlyphClass: 2
Flags: W
LayerCount: 2
Fore
SplineSet
2792 372 m 1,0,-1
 2792 744 l 1,1,-1
 1675 744 l 1,2,-1
 1675 372 l 1,3,-1
 2792 372 l 1,0,-1
930 0 m 1,4,-1
 930 1489 l 1,5,-1
 372 1489 l 1,6,-1
 372 1861 l 1,7,-1
 1675 1861 l 1,8,-1
 1675 1117 l 1,9,-1
 3165 1117 l 1,10,-1
 3165 744 l 1,11,-1
 3537 744 l 1,12,-1
 3537 372 l 1,13,-1
 3165 372 l 1,14,-1
 3165 0 l 1,15,-1
 930 0 l 1,4,-1
EndSplineSet
EndChar

StartChar: uni044B
Encoding: 1099 1099 271
Width: 3909
GlyphClass: 2
Flags: W
LayerCount: 2
Fore
SplineSet
1861 372 m 1,0,-1
 1861 744 l 1,1,-1
 1117 744 l 1,2,-1
 1117 372 l 1,3,-1
 1861 372 l 1,0,-1
372 0 m 1,4,-1
 372 1861 l 1,5,-1
 1117 1861 l 1,6,-1
 1117 1117 l 1,7,-1
 2234 1117 l 1,8,-1
 2234 744 l 1,9,-1
 2606 744 l 1,10,-1
 2606 372 l 1,11,-1
 2234 372 l 1,12,-1
 2234 0 l 1,13,-1
 372 0 l 1,4,-1
2978 0 m 1,14,-1
 2978 1861 l 1,15,-1
 3723 1861 l 1,16,-1
 3723 0 l 1,17,-1
 2978 0 l 1,14,-1
EndSplineSet
EndChar

StartChar: uni044C
Encoding: 1100 1100 272
Width: 3165
GlyphClass: 2
Flags: W
LayerCount: 2
Fore
SplineSet
2234 372 m 1,0,-1
 2234 744 l 1,1,-1
 1117 744 l 1,2,-1
 1117 372 l 1,3,-1
 2234 372 l 1,0,-1
372 0 m 1,4,-1
 372 1861 l 1,5,-1
 1117 1861 l 1,6,-1
 1117 1117 l 1,7,-1
 2606 1117 l 1,8,-1
 2606 744 l 1,9,-1
 2978 744 l 1,10,-1
 2978 372 l 1,11,-1
 2606 372 l 1,12,-1
 2606 0 l 1,13,-1
 372 0 l 1,4,-1
EndSplineSet
EndChar

StartChar: uni044D
Encoding: 1101 1101 273
Width: 3165
GlyphClass: 2
Flags: W
LayerCount: 2
Fore
SplineSet
744 0 m 1,0,-1
 744 372 l 1,1,-1
 372 372 l 1,2,-1
 372 744 l 1,3,-1
 1117 744 l 1,4,-1
 1117 372 l 1,5,-1
 2234 372 l 1,6,-1
 2234 744 l 1,7,-1
 1489 744 l 1,8,-1
 1489 1117 l 1,9,-1
 2234 1117 l 1,10,-1
 2234 1489 l 1,11,-1
 1117 1489 l 1,12,-1
 1117 1117 l 1,13,-1
 372 1117 l 1,14,-1
 372 1489 l 1,15,-1
 744 1489 l 1,16,-1
 744 1861 l 1,17,-1
 2606 1861 l 1,18,-1
 2606 1489 l 1,19,-1
 2978 1489 l 1,20,-1
 2978 372 l 1,21,-1
 2606 372 l 1,22,-1
 2606 0 l 1,23,-1
 744 0 l 1,0,-1
EndSplineSet
EndChar

StartChar: uni044E
Encoding: 1102 1102 274
Width: 4282
GlyphClass: 2
Flags: W
LayerCount: 2
Fore
SplineSet
3351 372 m 1,0,-1
 3351 1489 l 1,1,-1
 2234 1489 l 1,2,-1
 2234 372 l 1,3,-1
 3351 372 l 1,0,-1
372 0 m 1,4,-1
 372 1861 l 1,5,-1
 1117 1861 l 1,6,-1
 1117 1117 l 1,7,-1
 1489 1117 l 1,8,-1
 1489 1489 l 1,9,-1
 1861 1489 l 1,10,-1
 1861 1861 l 1,11,-1
 3723 1861 l 1,12,-1
 3723 1489 l 1,13,-1
 4096 1489 l 1,14,-1
 4096 372 l 1,15,-1
 3723 372 l 1,16,-1
 3723 0 l 1,17,-1
 1861 0 l 1,18,-1
 1861 372 l 1,19,-1
 1489 372 l 1,20,-1
 1489 744 l 1,21,-1
 1117 744 l 1,22,-1
 1117 0 l 1,23,-1
 372 0 l 1,4,-1
EndSplineSet
EndChar

StartChar: uni044F
Encoding: 1103 1103 275
Width: 3165
GlyphClass: 2
Flags: W
LayerCount: 2
Fore
SplineSet
2234 1117 m 1,0,-1
 2234 1489 l 1,1,-1
 1117 1489 l 1,2,-1
 1117 1117 l 1,3,-1
 2234 1117 l 1,0,-1
372 0 m 1,4,-1
 372 744 l 1,5,-1
 744 744 l 1,6,-1
 744 1117 l 1,7,-1
 372 1117 l 1,8,-1
 372 1489 l 1,9,-1
 744 1489 l 1,10,-1
 744 1861 l 1,11,-1
 2978 1861 l 1,12,-1
 2978 0 l 1,13,-1
 2234 0 l 1,14,-1
 2234 744 l 1,15,-1
 1117 744 l 1,16,-1
 1117 0 l 1,17,-1
 372 0 l 1,4,-1
EndSplineSet
EndChar

StartChar: uni0450
Encoding: 1104 1104 276
Width: 3165
GlyphClass: 2
Flags: W
LayerCount: 2
Fore
SplineSet
2234 1117 m 1,0,-1
 2234 1489 l 1,1,-1
 1117 1489 l 1,2,-1
 1117 1117 l 1,3,-1
 2234 1117 l 1,0,-1
744 0 m 1,4,-1
 744 372 l 1,5,-1
 372 372 l 1,6,-1
 372 1489 l 1,7,-1
 744 1489 l 1,8,-1
 744 1861 l 1,9,-1
 2606 1861 l 1,10,-1
 2606 1489 l 1,11,-1
 2978 1489 l 1,12,-1
 2978 744 l 1,13,-1
 1117 744 l 1,14,-1
 1117 372 l 1,15,-1
 2606 372 l 1,16,-1
 2606 0 l 1,17,-1
 744 0 l 1,4,-1
1303 2234 m 1,18,-1
 1303 2606 l 1,19,-1
 930 2606 l 1,20,-1
 930 2978 l 1,21,-1
 1675 2978 l 1,22,-1
 1675 2606 l 1,23,-1
 2048 2606 l 1,24,-1
 2048 2234 l 1,25,-1
 1303 2234 l 1,18,-1
EndSplineSet
EndChar

StartChar: uni0451
Encoding: 1105 1105 277
Width: 3165
GlyphClass: 2
Flags: W
LayerCount: 2
Fore
SplineSet
2234 1117 m 1,0,-1
 2234 1489 l 1,1,-1
 1117 1489 l 1,2,-1
 1117 1117 l 1,3,-1
 2234 1117 l 1,0,-1
744 0 m 1,4,-1
 744 372 l 1,5,-1
 372 372 l 1,6,-1
 372 1489 l 1,7,-1
 744 1489 l 1,8,-1
 744 1861 l 1,9,-1
 2606 1861 l 1,10,-1
 2606 1489 l 1,11,-1
 2978 1489 l 1,12,-1
 2978 744 l 1,13,-1
 1117 744 l 1,14,-1
 1117 372 l 1,15,-1
 2606 372 l 1,16,-1
 2606 0 l 1,17,-1
 744 0 l 1,4,-1
744 2234 m 1,18,-1
 744 2978 l 1,19,-1
 1489 2978 l 1,20,-1
 1489 2234 l 1,21,-1
 744 2234 l 1,18,-1
1861 2234 m 1,22,-1
 1861 2978 l 1,23,-1
 2606 2978 l 1,24,-1
 2606 2234 l 1,25,-1
 1861 2234 l 1,22,-1
EndSplineSet
EndChar

StartChar: uni0453
Encoding: 1107 1107 278
Width: 2420
GlyphClass: 2
Flags: W
LayerCount: 2
Fore
SplineSet
372 0 m 1,0,-1
 372 1861 l 1,1,-1
 2234 1861 l 1,2,-1
 2234 1489 l 1,3,-1
 1117 1489 l 1,4,-1
 1117 0 l 1,5,-1
 372 0 l 1,0,-1
930 2234 m 1,6,-1
 930 2606 l 1,7,-1
 1303 2606 l 1,8,-1
 1303 2978 l 1,9,-1
 2048 2978 l 1,10,-1
 2048 2606 l 1,11,-1
 1675 2606 l 1,12,-1
 1675 2234 l 1,13,-1
 930 2234 l 1,6,-1
EndSplineSet
EndChar

StartChar: uni0454
Encoding: 1108 1108 279
Width: 3165
GlyphClass: 2
Flags: W
LayerCount: 2
Fore
SplineSet
744 0 m 1,0,-1
 744 372 l 1,1,-1
 372 372 l 1,2,-1
 372 1489 l 1,3,-1
 744 1489 l 1,4,-1
 744 1861 l 1,5,-1
 2606 1861 l 1,6,-1
 2606 1489 l 1,7,-1
 2978 1489 l 1,8,-1
 2978 1117 l 1,9,-1
 2234 1117 l 1,10,-1
 2234 1489 l 1,11,-1
 1117 1489 l 1,12,-1
 1117 1117 l 1,13,-1
 1861 1117 l 1,14,-1
 1861 744 l 1,15,-1
 1117 744 l 1,16,-1
 1117 372 l 1,17,-1
 2234 372 l 1,18,-1
 2234 744 l 1,19,-1
 2978 744 l 1,20,-1
 2978 372 l 1,21,-1
 2606 372 l 1,22,-1
 2606 0 l 1,23,-1
 744 0 l 1,0,-1
EndSplineSet
EndChar

StartChar: uni0456
Encoding: 1110 1110 280
Width: 1303
GlyphClass: 2
Flags: W
LayerCount: 2
Fore
SplineSet
372 0 m 1,0,-1
 372 1861 l 1,1,-1
 1117 1861 l 1,2,-1
 1117 0 l 1,3,-1
 372 0 l 1,0,-1
372 2234 m 1,4,-1
 372 2978 l 1,5,-1
 1117 2978 l 1,6,-1
 1117 2234 l 1,7,-1
 372 2234 l 1,4,-1
EndSplineSet
EndChar

StartChar: uni0457
Encoding: 1111 1111 281
Width: 1861
GlyphClass: 2
Flags: W
LayerCount: 2
Fore
SplineSet
372 0 m 1,0,-1
 372 1861 l 1,1,-1
 1117 1861 l 1,2,-1
 1117 0 l 1,3,-1
 372 0 l 1,0,-1
-186 2234 m 1,4,-1
 -186 2978 l 1,5,-1
 558 2978 l 1,6,-1
 558 2234 l 1,7,-1
 -186 2234 l 1,4,-1
930 2234 m 1,8,-1
 930 2978 l 1,9,-1
 1675 2978 l 1,10,-1
 1675 2234 l 1,11,-1
 930 2234 l 1,8,-1
EndSplineSet
EndChar

StartChar: uni0459
Encoding: 1113 1113 282
Width: 4654
GlyphClass: 2
Flags: W
LayerCount: 2
Fore
SplineSet
3723 372 m 1,0,-1
 3723 744 l 1,1,-1
 2978 744 l 1,2,-1
 2978 372 l 1,3,-1
 3723 372 l 1,0,-1
372 0 m 1,4,-1
 372 372 l 1,5,-1
 744 372 l 1,6,-1
 744 1861 l 1,7,-1
 2978 1861 l 1,8,-1
 2978 1117 l 1,9,-1
 4096 1117 l 1,10,-1
 4096 744 l 1,11,-1
 4468 744 l 1,12,-1
 4468 372 l 1,13,-1
 4096 372 l 1,14,-1
 4096 0 l 1,15,-1
 2234 0 l 1,16,-1
 2234 1489 l 1,17,-1
 1489 1489 l 1,18,-1
 1489 372 l 1,19,-1
 1117 372 l 1,20,-1
 1117 0 l 1,21,-1
 372 0 l 1,4,-1
EndSplineSet
EndChar

StartChar: uni045A
Encoding: 1114 1114 283
Width: 4654
GlyphClass: 2
Flags: W
LayerCount: 2
Fore
SplineSet
3723 372 m 1,0,-1
 3723 744 l 1,1,-1
 2978 744 l 1,2,-1
 2978 372 l 1,3,-1
 3723 372 l 1,0,-1
372 0 m 1,4,-1
 372 1861 l 1,5,-1
 1117 1861 l 1,6,-1
 1117 1117 l 1,7,-1
 2234 1117 l 1,8,-1
 2234 1861 l 1,9,-1
 2978 1861 l 1,10,-1
 2978 1117 l 1,11,-1
 4096 1117 l 1,12,-1
 4096 744 l 1,13,-1
 4468 744 l 1,14,-1
 4468 372 l 1,15,-1
 4096 372 l 1,16,-1
 4096 0 l 1,17,-1
 2234 0 l 1,18,-1
 2234 744 l 1,19,-1
 1117 744 l 1,20,-1
 1117 0 l 1,21,-1
 372 0 l 1,4,-1
EndSplineSet
EndChar

StartChar: uni045B
Encoding: 1115 1115 284
Width: 3165
GlyphClass: 2
Flags: W
LayerCount: 2
Fore
SplineSet
372 0 m 1,0,-1
 372 2234 l 1,1,-1
 0 2234 l 1,2,-1
 0 2606 l 1,3,-1
 372 2606 l 1,4,-1
 372 2978 l 1,5,-1
 1117 2978 l 1,6,-1
 1117 2606 l 1,7,-1
 1861 2606 l 1,8,-1
 1861 2234 l 1,9,-1
 1117 2234 l 1,10,-1
 1117 1489 l 1,11,-1
 1489 1489 l 1,12,-1
 1489 1861 l 1,13,-1
 2606 1861 l 1,14,-1
 2606 1489 l 1,15,-1
 2978 1489 l 1,16,-1
 2978 0 l 1,17,-1
 2234 0 l 1,18,-1
 2234 1489 l 1,19,-1
 1861 1489 l 1,20,-1
 1861 1117 l 1,21,-1
 1117 1117 l 1,22,-1
 1117 0 l 1,23,-1
 372 0 l 1,0,-1
EndSplineSet
EndChar

StartChar: uni045C
Encoding: 1116 1116 285
Width: 2792
GlyphClass: 2
Flags: W
LayerCount: 2
Fore
SplineSet
372 0 m 1,0,-1
 372 1861 l 1,1,-1
 1117 1861 l 1,2,-1
 1117 1117 l 1,3,-1
 1489 1117 l 1,4,-1
 1489 1489 l 1,5,-1
 1861 1489 l 1,6,-1
 1861 1861 l 1,7,-1
 2606 1861 l 1,8,-1
 2606 1489 l 1,9,-1
 2234 1489 l 1,10,-1
 2234 1117 l 1,11,-1
 1861 1117 l 1,12,-1
 1861 744 l 1,13,-1
 2234 744 l 1,14,-1
 2234 372 l 1,15,-1
 2606 372 l 1,16,-1
 2606 0 l 1,17,-1
 1861 0 l 1,18,-1
 1861 372 l 1,19,-1
 1489 372 l 1,20,-1
 1489 744 l 1,21,-1
 1117 744 l 1,22,-1
 1117 0 l 1,23,-1
 372 0 l 1,0,-1
1117 2234 m 1,24,-1
 1117 2606 l 1,25,-1
 1489 2606 l 1,26,-1
 1489 2978 l 1,27,-1
 2234 2978 l 1,28,-1
 2234 2606 l 1,29,-1
 1861 2606 l 1,30,-1
 1861 2234 l 1,31,-1
 1117 2234 l 1,24,-1
EndSplineSet
EndChar

StartChar: uni045D
Encoding: 1117 1117 286
Width: 3165
GlyphClass: 2
Flags: W
LayerCount: 2
Fore
SplineSet
372 0 m 1,0,-1
 372 1861 l 1,1,-1
 1117 1861 l 1,2,-1
 1117 930 l 1,3,-1
 1489 930 l 1,4,-1
 1489 1303 l 1,5,-1
 1861 1303 l 1,6,-1
 1861 1675 l 1,7,-1
 2234 1675 l 1,8,-1
 2234 1861 l 1,9,-1
 2978 1861 l 1,10,-1
 2978 0 l 1,11,-1
 2234 0 l 1,12,-1
 2234 930 l 1,13,-1
 1861 930 l 1,14,-1
 1861 558 l 1,15,-1
 1489 558 l 1,16,-1
 1489 186 l 1,17,-1
 1117 186 l 1,18,-1
 1117 0 l 1,19,-1
 372 0 l 1,0,-1
1303 2234 m 1,20,-1
 1303 2606 l 1,21,-1
 930 2606 l 1,22,-1
 930 2978 l 1,23,-1
 1675 2978 l 1,24,-1
 1675 2606 l 1,25,-1
 2048 2606 l 1,26,-1
 2048 2234 l 1,27,-1
 1303 2234 l 1,20,-1
EndSplineSet
EndChar

StartChar: uni045E
Encoding: 1118 1118 287
Width: 3165
GlyphClass: 2
Flags: W
LayerCount: 2
Fore
SplineSet
744 -1117 m 1,0,-1
 744 -744 l 1,1,-1
 2234 -744 l 1,2,-1
 2234 0 l 1,3,-1
 744 0 l 1,4,-1
 744 372 l 1,5,-1
 372 372 l 1,6,-1
 372 1861 l 1,7,-1
 1117 1861 l 1,8,-1
 1117 372 l 1,9,-1
 2234 372 l 1,10,-1
 2234 1861 l 1,11,-1
 2978 1861 l 1,12,-1
 2978 -744 l 1,13,-1
 2606 -744 l 1,14,-1
 2606 -1117 l 1,15,-1
 744 -1117 l 1,0,-1
930 2234 m 1,16,-1
 930 2606 l 1,17,-1
 558 2606 l 1,18,-1
 558 2978 l 1,19,-1
 1303 2978 l 1,20,-1
 1303 2606 l 1,21,-1
 2048 2606 l 1,22,-1
 2048 2978 l 1,23,-1
 2792 2978 l 1,24,-1
 2792 2606 l 1,25,-1
 2420 2606 l 1,26,-1
 2420 2234 l 1,27,-1
 930 2234 l 1,16,-1
EndSplineSet
EndChar

StartChar: uni0490
Encoding: 1168 1168 288
Width: 2792
GlyphClass: 2
Flags: W
LayerCount: 2
Fore
SplineSet
372 0 m 1,0,-1
 372 2978 l 1,1,-1
 1861 2978 l 1,2,-1
 1861 3537 l 1,3,-1
 2606 3537 l 1,4,-1
 2606 2606 l 1,5,-1
 1117 2606 l 1,6,-1
 1117 0 l 1,7,-1
 372 0 l 1,0,-1
EndSplineSet
EndChar

StartChar: uni0491
Encoding: 1169 1169 289
Width: 2420
GlyphClass: 2
Flags: W
LayerCount: 2
Fore
SplineSet
372 0 m 1,0,-1
 372 1861 l 1,1,-1
 1489 1861 l 1,2,-1
 1489 2420 l 1,3,-1
 2234 2420 l 1,4,-1
 2234 1489 l 1,5,-1
 1117 1489 l 1,6,-1
 1117 0 l 1,7,-1
 372 0 l 1,0,-1
EndSplineSet
EndChar

StartChar: uni0492
Encoding: 1170 1170 290
Width: 2792
GlyphClass: 2
Flags: W
LayerCount: 2
Fore
SplineSet
372 0 m 1,0,-1
 372 1489 l 1,1,-1
 0 1489 l 1,2,-1
 0 1861 l 1,3,-1
 372 1861 l 1,4,-1
 372 2978 l 1,5,-1
 2606 2978 l 1,6,-1
 2606 2606 l 1,7,-1
 1117 2606 l 1,8,-1
 1117 1861 l 1,9,-1
 1861 1861 l 1,10,-1
 1861 1489 l 1,11,-1
 1117 1489 l 1,12,-1
 1117 0 l 1,13,-1
 372 0 l 1,0,-1
EndSplineSet
EndChar

StartChar: uni0493
Encoding: 1171 1171 291
Width: 2420
GlyphClass: 2
Flags: W
LayerCount: 2
Fore
SplineSet
372 0 m 1,0,-1
 372 744 l 1,1,-1
 0 744 l 1,2,-1
 0 1117 l 1,3,-1
 372 1117 l 1,4,-1
 372 1861 l 1,5,-1
 2234 1861 l 1,6,-1
 2234 1489 l 1,7,-1
 1117 1489 l 1,8,-1
 1117 1117 l 1,9,-1
 1861 1117 l 1,10,-1
 1861 744 l 1,11,-1
 1117 744 l 1,12,-1
 1117 0 l 1,13,-1
 372 0 l 1,0,-1
EndSplineSet
EndChar

StartChar: uni0496
Encoding: 1174 1174 292
Width: 3909
GlyphClass: 2
Flags: W
LayerCount: 2
Fore
SplineSet
2978 -558 m 1,0,-1
 2978 0 l 1,1,-1
 2606 0 l 1,2,-1
 2606 1303 l 1,3,-1
 2234 1303 l 1,4,-1
 2234 0 l 1,5,-1
 1489 0 l 1,6,-1
 1489 1303 l 1,7,-1
 1117 1303 l 1,8,-1
 1117 0 l 1,9,-1
 372 0 l 1,10,-1
 372 1303 l 1,11,-1
 744 1303 l 1,12,-1
 744 1675 l 1,13,-1
 372 1675 l 1,14,-1
 372 2978 l 1,15,-1
 1117 2978 l 1,16,-1
 1117 1675 l 1,17,-1
 1489 1675 l 1,18,-1
 1489 2978 l 1,19,-1
 2234 2978 l 1,20,-1
 2234 1675 l 1,21,-1
 2606 1675 l 1,22,-1
 2606 2978 l 1,23,-1
 3351 2978 l 1,24,-1
 3351 1675 l 1,25,-1
 2978 1675 l 1,26,-1
 2978 1303 l 1,27,-1
 3351 1303 l 1,28,-1
 3351 372 l 1,29,-1
 3723 372 l 1,30,-1
 3723 -558 l 1,31,-1
 2978 -558 l 1,0,-1
EndSplineSet
EndChar

StartChar: uni0497
Encoding: 1175 1175 293
Width: 3909
GlyphClass: 2
Flags: W
LayerCount: 2
Fore
SplineSet
2978 -558 m 1,0,-1
 2978 0 l 1,1,-1
 2606 0 l 1,2,-1
 2606 744 l 1,3,-1
 2234 744 l 1,4,-1
 2234 0 l 1,5,-1
 1489 0 l 1,6,-1
 1489 744 l 1,7,-1
 1117 744 l 1,8,-1
 1117 0 l 1,9,-1
 372 0 l 1,10,-1
 372 744 l 1,11,-1
 744 744 l 1,12,-1
 744 1117 l 1,13,-1
 372 1117 l 1,14,-1
 372 1861 l 1,15,-1
 1117 1861 l 1,16,-1
 1117 1117 l 1,17,-1
 1489 1117 l 1,18,-1
 1489 1861 l 1,19,-1
 2234 1861 l 1,20,-1
 2234 1117 l 1,21,-1
 2606 1117 l 1,22,-1
 2606 1861 l 1,23,-1
 3351 1861 l 1,24,-1
 3351 1117 l 1,25,-1
 2978 1117 l 1,26,-1
 2978 744 l 1,27,-1
 3351 744 l 1,28,-1
 3351 372 l 1,29,-1
 3723 372 l 1,30,-1
 3723 -558 l 1,31,-1
 2978 -558 l 1,0,-1
EndSplineSet
EndChar

StartChar: uni049A
Encoding: 1178 1178 294
Width: 3537
GlyphClass: 2
Flags: W
LayerCount: 2
Fore
SplineSet
2606 -558 m 1,0,-1
 2606 0 l 1,1,-1
 2234 0 l 1,2,-1
 2234 744 l 1,3,-1
 1861 744 l 1,4,-1
 1861 1117 l 1,5,-1
 1489 1117 l 1,6,-1
 1489 1489 l 1,7,-1
 1117 1489 l 1,8,-1
 1117 0 l 1,9,-1
 372 0 l 1,10,-1
 372 2978 l 1,11,-1
 1117 2978 l 1,12,-1
 1117 1861 l 1,13,-1
 1489 1861 l 1,14,-1
 1489 2234 l 1,15,-1
 1861 2234 l 1,16,-1
 1861 2606 l 1,17,-1
 2234 2606 l 1,18,-1
 2234 2978 l 1,19,-1
 2978 2978 l 1,20,-1
 2978 2606 l 1,21,-1
 2606 2606 l 1,22,-1
 2606 2234 l 1,23,-1
 2234 2234 l 1,24,-1
 2234 1861 l 1,25,-1
 1861 1861 l 1,26,-1
 1861 1489 l 1,27,-1
 2234 1489 l 1,28,-1
 2234 1117 l 1,29,-1
 2606 1117 l 1,30,-1
 2606 744 l 1,31,-1
 2978 744 l 1,32,-1
 2978 372 l 1,33,-1
 3351 372 l 1,34,-1
 3351 -558 l 1,35,-1
 2606 -558 l 1,0,-1
EndSplineSet
EndChar

StartChar: uni049B
Encoding: 1179 1179 295
Width: 3351
GlyphClass: 2
Flags: W
LayerCount: 2
Fore
SplineSet
2420 -558 m 1,0,-1
 2420 0 l 1,1,-1
 1861 0 l 1,2,-1
 1861 372 l 1,3,-1
 1489 372 l 1,4,-1
 1489 744 l 1,5,-1
 1117 744 l 1,6,-1
 1117 0 l 1,7,-1
 372 0 l 1,8,-1
 372 1861 l 1,9,-1
 1117 1861 l 1,10,-1
 1117 1117 l 1,11,-1
 1489 1117 l 1,12,-1
 1489 1489 l 1,13,-1
 2048 1489 l 1,14,-1
 2048 1861 l 1,15,-1
 2792 1861 l 1,16,-1
 2792 1489 l 1,17,-1
 2234 1489 l 1,18,-1
 2234 1117 l 1,19,-1
 1861 1117 l 1,20,-1
 1861 744 l 1,21,-1
 2234 744 l 1,22,-1
 2234 372 l 1,23,-1
 3165 372 l 1,24,-1
 3165 -558 l 1,25,-1
 2420 -558 l 1,0,-1
EndSplineSet
EndChar

StartChar: uni049C
Encoding: 1180 1180 296
Width: 3537
GlyphClass: 2
Flags: W
LayerCount: 2
Fore
SplineSet
372 0 m 1,0,-1
 372 2978 l 1,1,-1
 1117 2978 l 1,2,-1
 1117 1861 l 1,3,-1
 1303 1861 l 1,4,-1
 1303 2606 l 1,5,-1
 1675 2606 l 1,6,-1
 1675 1861 l 1,7,-1
 1861 1861 l 1,8,-1
 1861 2234 l 1,9,-1
 2234 2234 l 1,10,-1
 2234 2606 l 1,11,-1
 2606 2606 l 1,12,-1
 2606 2978 l 1,13,-1
 3351 2978 l 1,14,-1
 3351 2606 l 1,15,-1
 2978 2606 l 1,16,-1
 2978 2234 l 1,17,-1
 2606 2234 l 1,18,-1
 2606 1861 l 1,19,-1
 2234 1861 l 1,20,-1
 2234 1489 l 1,21,-1
 2606 1489 l 1,22,-1
 2606 1117 l 1,23,-1
 2978 1117 l 1,24,-1
 2978 744 l 1,25,-1
 3351 744 l 1,26,-1
 3351 0 l 1,27,-1
 2606 0 l 1,28,-1
 2606 744 l 1,29,-1
 2234 744 l 1,30,-1
 2234 1117 l 1,31,-1
 1861 1117 l 1,32,-1
 1861 1489 l 1,33,-1
 1675 1489 l 1,34,-1
 1675 744 l 1,35,-1
 1303 744 l 1,36,-1
 1303 1489 l 1,37,-1
 1117 1489 l 1,38,-1
 1117 0 l 1,39,-1
 372 0 l 1,0,-1
EndSplineSet
EndChar

StartChar: uni049D
Encoding: 1181 1181 297
Width: 3165
GlyphClass: 2
Flags: W
LayerCount: 2
Fore
SplineSet
372 0 m 1,0,-1
 372 1861 l 1,1,-1
 1117 1861 l 1,2,-1
 1117 1117 l 1,3,-1
 1303 1117 l 1,4,-1
 1303 1489 l 1,5,-1
 1675 1489 l 1,6,-1
 1675 1117 l 1,7,-1
 1861 1117 l 1,8,-1
 1861 1489 l 1,9,-1
 2234 1489 l 1,10,-1
 2234 1861 l 1,11,-1
 2978 1861 l 1,12,-1
 2978 1489 l 1,13,-1
 2606 1489 l 1,14,-1
 2606 1117 l 1,15,-1
 2234 1117 l 1,16,-1
 2234 744 l 1,17,-1
 2606 744 l 1,18,-1
 2606 372 l 1,19,-1
 2978 372 l 1,20,-1
 2978 0 l 1,21,-1
 2234 0 l 1,22,-1
 2234 372 l 1,23,-1
 1861 372 l 1,24,-1
 1861 744 l 1,25,-1
 1675 744 l 1,26,-1
 1675 372 l 1,27,-1
 1303 372 l 1,28,-1
 1303 744 l 1,29,-1
 1117 744 l 1,30,-1
 1117 0 l 1,31,-1
 372 0 l 1,0,-1
EndSplineSet
EndChar

StartChar: uni049E
Encoding: 1182 1182 298
Width: 3165
GlyphClass: 2
Flags: W
LayerCount: 2
Fore
SplineSet
372 0 m 1,0,-1
 372 2234 l 1,1,-1
 0 2234 l 1,2,-1
 0 2606 l 1,3,-1
 372 2606 l 1,4,-1
 372 2978 l 1,5,-1
 1117 2978 l 1,6,-1
 1117 2606 l 1,7,-1
 1489 2606 l 1,8,-1
 1489 2234 l 1,9,-1
 1117 2234 l 1,10,-1
 1117 1861 l 1,11,-1
 1489 1861 l 1,12,-1
 1489 2234 l 1,13,-1
 1861 2234 l 1,14,-1
 1861 2606 l 1,15,-1
 2234 2606 l 1,16,-1
 2234 2978 l 1,17,-1
 2978 2978 l 1,18,-1
 2978 2606 l 1,19,-1
 2606 2606 l 1,20,-1
 2606 2234 l 1,21,-1
 2234 2234 l 1,22,-1
 2234 1861 l 1,23,-1
 1861 1861 l 1,24,-1
 1861 1489 l 1,25,-1
 2234 1489 l 1,26,-1
 2234 1117 l 1,27,-1
 2606 1117 l 1,28,-1
 2606 744 l 1,29,-1
 2978 744 l 1,30,-1
 2978 0 l 1,31,-1
 2234 0 l 1,32,-1
 2234 744 l 1,33,-1
 1861 744 l 1,34,-1
 1861 1117 l 1,35,-1
 1489 1117 l 1,36,-1
 1489 1489 l 1,37,-1
 1117 1489 l 1,38,-1
 1117 0 l 1,39,-1
 372 0 l 1,0,-1
EndSplineSet
EndChar

StartChar: uni049F
Encoding: 1183 1183 299
Width: 2978
GlyphClass: 2
Flags: W
LayerCount: 2
Fore
SplineSet
372 0 m 1,0,-1
 372 2048 l 1,1,-1
 0 2048 l 1,2,-1
 0 2420 l 1,3,-1
 372 2420 l 1,4,-1
 372 2978 l 1,5,-1
 1117 2978 l 1,6,-1
 1117 2420 l 1,7,-1
 1489 2420 l 1,8,-1
 1489 2048 l 1,9,-1
 1117 2048 l 1,10,-1
 1117 1117 l 1,11,-1
 1489 1117 l 1,12,-1
 1489 1489 l 1,13,-1
 2048 1489 l 1,14,-1
 2048 1861 l 1,15,-1
 2792 1861 l 1,16,-1
 2792 1489 l 1,17,-1
 2234 1489 l 1,18,-1
 2234 1117 l 1,19,-1
 1861 1117 l 1,20,-1
 1861 744 l 1,21,-1
 2234 744 l 1,22,-1
 2234 372 l 1,23,-1
 2606 372 l 1,24,-1
 2606 0 l 1,25,-1
 1861 0 l 1,26,-1
 1861 372 l 1,27,-1
 1489 372 l 1,28,-1
 1489 744 l 1,29,-1
 1117 744 l 1,30,-1
 1117 0 l 1,31,-1
 372 0 l 1,0,-1
EndSplineSet
EndChar

StartChar: uni04A0
Encoding: 1184 1184 300
Width: 3723
GlyphClass: 2
Flags: W
LayerCount: 2
Fore
SplineSet
930 0 m 1,0,-1
 930 2606 l 1,1,-1
 372 2606 l 1,2,-1
 372 2978 l 1,3,-1
 1675 2978 l 1,4,-1
 1675 1861 l 1,5,-1
 2048 1861 l 1,6,-1
 2048 2234 l 1,7,-1
 2420 2234 l 1,8,-1
 2420 2606 l 1,9,-1
 2792 2606 l 1,10,-1
 2792 2978 l 1,11,-1
 3537 2978 l 1,12,-1
 3537 2606 l 1,13,-1
 3165 2606 l 1,14,-1
 3165 2234 l 1,15,-1
 2792 2234 l 1,16,-1
 2792 1861 l 1,17,-1
 2420 1861 l 1,18,-1
 2420 1489 l 1,19,-1
 2792 1489 l 1,20,-1
 2792 1117 l 1,21,-1
 3165 1117 l 1,22,-1
 3165 744 l 1,23,-1
 3537 744 l 1,24,-1
 3537 0 l 1,25,-1
 2792 0 l 1,26,-1
 2792 744 l 1,27,-1
 2420 744 l 1,28,-1
 2420 1117 l 1,29,-1
 2048 1117 l 1,30,-1
 2048 1489 l 1,31,-1
 1675 1489 l 1,32,-1
 1675 0 l 1,33,-1
 930 0 l 1,0,-1
EndSplineSet
EndChar

StartChar: uni04A1
Encoding: 1185 1185 301
Width: 3537
GlyphClass: 2
Flags: W
LayerCount: 2
Fore
SplineSet
930 0 m 1,0,-1
 930 1489 l 1,1,-1
 372 1489 l 1,2,-1
 372 1861 l 1,3,-1
 1675 1861 l 1,4,-1
 1675 1117 l 1,5,-1
 2048 1117 l 1,6,-1
 2048 1489 l 1,7,-1
 2420 1489 l 1,8,-1
 2420 1861 l 1,9,-1
 3351 1861 l 1,10,-1
 3351 1489 l 1,11,-1
 2792 1489 l 1,12,-1
 2792 1117 l 1,13,-1
 2420 1117 l 1,14,-1
 2420 744 l 1,15,-1
 2792 744 l 1,16,-1
 2792 372 l 1,17,-1
 3351 372 l 1,18,-1
 3351 0 l 1,19,-1
 2420 0 l 1,20,-1
 2420 372 l 1,21,-1
 2048 372 l 1,22,-1
 2048 744 l 1,23,-1
 1675 744 l 1,24,-1
 1675 0 l 1,25,-1
 930 0 l 1,0,-1
EndSplineSet
EndChar

StartChar: uni04A2
Encoding: 1186 1186 302
Width: 3537
GlyphClass: 2
Flags: W
LayerCount: 2
Fore
SplineSet
2606 -558 m 1,0,-1
 2606 0 l 1,1,-1
 2234 0 l 1,2,-1
 2234 1489 l 1,3,-1
 1117 1489 l 1,4,-1
 1117 0 l 1,5,-1
 372 0 l 1,6,-1
 372 2978 l 1,7,-1
 1117 2978 l 1,8,-1
 1117 1861 l 1,9,-1
 2234 1861 l 1,10,-1
 2234 2978 l 1,11,-1
 2978 2978 l 1,12,-1
 2978 372 l 1,13,-1
 3351 372 l 1,14,-1
 3351 -558 l 1,15,-1
 2606 -558 l 1,0,-1
EndSplineSet
EndChar

StartChar: uni04A3
Encoding: 1187 1187 303
Width: 3537
GlyphClass: 2
Flags: W
LayerCount: 2
Fore
SplineSet
2606 -558 m 1,0,-1
 2606 0 l 1,1,-1
 2234 0 l 1,2,-1
 2234 744 l 1,3,-1
 1117 744 l 1,4,-1
 1117 0 l 1,5,-1
 372 0 l 1,6,-1
 372 1861 l 1,7,-1
 1117 1861 l 1,8,-1
 1117 1117 l 1,9,-1
 2234 1117 l 1,10,-1
 2234 1861 l 1,11,-1
 2978 1861 l 1,12,-1
 2978 372 l 1,13,-1
 3351 372 l 1,14,-1
 3351 -558 l 1,15,-1
 2606 -558 l 1,0,-1
EndSplineSet
EndChar

StartChar: uni04A4
Encoding: 1188 1188 304
Width: 3723
GlyphClass: 2
Flags: W
LayerCount: 2
Fore
SplineSet
372 0 m 1,0,-1
 372 2978 l 1,1,-1
 1117 2978 l 1,2,-1
 1117 1861 l 1,3,-1
 2234 1861 l 1,4,-1
 2234 2978 l 1,5,-1
 3537 2978 l 1,6,-1
 3537 2606 l 1,7,-1
 2978 2606 l 1,8,-1
 2978 0 l 1,9,-1
 2234 0 l 1,10,-1
 2234 1489 l 1,11,-1
 1117 1489 l 1,12,-1
 1117 0 l 1,13,-1
 372 0 l 1,0,-1
EndSplineSet
EndChar

StartChar: uni04A5
Encoding: 1189 1189 305
Width: 3909
GlyphClass: 2
Flags: W
LayerCount: 2
Fore
SplineSet
372 0 m 1,0,-1
 372 1861 l 1,1,-1
 1117 1861 l 1,2,-1
 1117 1117 l 1,3,-1
 2234 1117 l 1,4,-1
 2234 1861 l 1,5,-1
 3723 1861 l 1,6,-1
 3723 1489 l 1,7,-1
 2978 1489 l 1,8,-1
 2978 0 l 1,9,-1
 2234 0 l 1,10,-1
 2234 744 l 1,11,-1
 1117 744 l 1,12,-1
 1117 0 l 1,13,-1
 372 0 l 1,0,-1
EndSplineSet
EndChar

StartChar: uni04AC
Encoding: 1196 1196 306
Width: 3165
GlyphClass: 2
Flags: W
LayerCount: 2
Fore
SplineSet
1861 -558 m 1,0,-1
 1861 0 l 1,1,-1
 1303 0 l 1,2,-1
 1303 2606 l 1,3,-1
 372 2606 l 1,4,-1
 372 2978 l 1,5,-1
 2978 2978 l 1,6,-1
 2978 2606 l 1,7,-1
 2048 2606 l 1,8,-1
 2048 372 l 1,9,-1
 2606 372 l 1,10,-1
 2606 -558 l 1,11,-1
 1861 -558 l 1,0,-1
EndSplineSet
EndChar

StartChar: uni04AD
Encoding: 1197 1197 307
Width: 2792
GlyphClass: 2
Flags: W
LayerCount: 2
Fore
SplineSet
1675 -558 m 1,0,-1
 1675 0 l 1,1,-1
 1117 0 l 1,2,-1
 1117 1489 l 1,3,-1
 372 1489 l 1,4,-1
 372 1861 l 1,5,-1
 2606 1861 l 1,6,-1
 2606 1489 l 1,7,-1
 1861 1489 l 1,8,-1
 1861 372 l 1,9,-1
 2420 372 l 1,10,-1
 2420 -558 l 1,11,-1
 1675 -558 l 1,0,-1
EndSplineSet
EndChar

StartChar: quoteleft
Encoding: 8216 8216 308
Width: 1675
GlyphClass: 2
Flags: W
LayerCount: 2
Fore
SplineSet
372 1861 m 1,0,-1
 372 2606 l 1,1,-1
 744 2606 l 1,2,-1
 744 2978 l 1,3,-1
 1489 2978 l 1,4,-1
 1489 2606 l 1,5,-1
 1117 2606 l 1,6,-1
 1117 1861 l 1,7,-1
 372 1861 l 1,0,-1
EndSplineSet
EndChar

StartChar: quoteright
Encoding: 8217 8217 309
Width: 1303
GlyphClass: 2
Flags: W
LayerCount: 2
Fore
SplineSet
0 1861 m 1,0,-1
 0 2234 l 1,1,-1
 372 2234 l 1,2,-1
 372 2978 l 1,3,-1
 1117 2978 l 1,4,-1
 1117 2234 l 1,5,-1
 744 2234 l 1,6,-1
 744 1861 l 1,7,-1
 0 1861 l 1,0,-1
EndSplineSet
EndChar

StartChar: quotedblleft
Encoding: 8220 8220 310
Width: 2792
GlyphClass: 2
Flags: W
LayerCount: 2
Fore
SplineSet
372 1861 m 1,0,-1
 372 2606 l 1,1,-1
 744 2606 l 1,2,-1
 744 2978 l 1,3,-1
 1489 2978 l 1,4,-1
 1489 2606 l 1,5,-1
 1117 2606 l 1,6,-1
 1117 1861 l 1,7,-1
 372 1861 l 1,0,-1
1489 1861 m 1,8,-1
 1489 2606 l 1,9,-1
 1861 2606 l 1,10,-1
 1861 2978 l 1,11,-1
 2606 2978 l 1,12,-1
 2606 2606 l 1,13,-1
 2234 2606 l 1,14,-1
 2234 1861 l 1,15,-1
 1489 1861 l 1,8,-1
EndSplineSet
EndChar

StartChar: quotedblright
Encoding: 8221 8221 311
Width: 2420
GlyphClass: 2
Flags: W
LayerCount: 2
Fore
SplineSet
0 1861 m 1,0,-1
 0 2234 l 1,1,-1
 372 2234 l 1,2,-1
 372 2978 l 1,3,-1
 1117 2978 l 1,4,-1
 1117 2234 l 1,5,-1
 744 2234 l 1,6,-1
 744 1861 l 1,7,-1
 0 1861 l 1,0,-1
1117 1861 m 1,8,-1
 1117 2234 l 1,9,-1
 1489 2234 l 1,10,-1
 1489 2978 l 1,11,-1
 2234 2978 l 1,12,-1
 2234 2234 l 1,13,-1
 1861 2234 l 1,14,-1
 1861 1861 l 1,15,-1
 1117 1861 l 1,8,-1
EndSplineSet
EndChar

StartChar: Euro
Encoding: 8364 8364 312
Width: 3537
GlyphClass: 2
Flags: W
LayerCount: 2
Fore
SplineSet
1303 0 m 1,0,-1
 1303 372 l 1,1,-1
 930 372 l 1,2,-1
 930 744 l 1,3,-1
 744 744 l 1,4,-1
 744 930 l 1,5,-1
 186 930 l 1,6,-1
 186 1117 l 1,7,-1
 372 1117 l 1,8,-1
 372 1303 l 1,9,-1
 744 1303 l 1,10,-1
 744 1489 l 1,11,-1
 186 1489 l 1,12,-1
 186 1675 l 1,13,-1
 372 1675 l 1,14,-1
 372 1861 l 1,15,-1
 744 1861 l 1,16,-1
 744 2234 l 1,17,-1
 1117 2234 l 1,18,-1
 1117 2606 l 1,19,-1
 1489 2606 l 1,20,-1
 1489 2978 l 1,21,-1
 2978 2978 l 1,22,-1
 2978 2606 l 1,23,-1
 3351 2606 l 1,24,-1
 3351 2234 l 1,25,-1
 2606 2234 l 1,26,-1
 2606 2606 l 1,27,-1
 1861 2606 l 1,28,-1
 1861 2234 l 1,29,-1
 1489 2234 l 1,30,-1
 1489 1861 l 1,31,-1
 2420 1861 l 1,32,-1
 2420 1675 l 1,33,-1
 2234 1675 l 1,34,-1
 2234 1489 l 1,35,-1
 1489 1489 l 1,36,-1
 1489 1303 l 1,37,-1
 2420 1303 l 1,38,-1
 2420 1117 l 1,39,-1
 2234 1117 l 1,40,-1
 2234 930 l 1,41,-1
 1489 930 l 1,42,-1
 1489 744 l 1,43,-1
 1861 744 l 1,44,-1
 1861 372 l 1,45,-1
 2606 372 l 1,46,-1
 2606 744 l 1,47,-1
 3351 744 l 1,48,-1
 3351 372 l 1,49,-1
 2978 372 l 1,50,-1
 2978 0 l 1,51,-1
 1303 0 l 1,0,-1
EndSplineSet
EndChar

StartChar: trademark
Encoding: 8482 8482 313
Width: 3909
GlyphClass: 3
Flags: W
LayerCount: 2
Fore
SplineSet
2606 1861 m 1,0,-1
 2606 2234 l 1,1,-1
 2978 2234 l 1,2,-1
 2978 1861 l 1,3,-1
 2606 1861 l 1,0,-1
930 1489 m 1,4,-1
 930 2606 l 1,5,-1
 372 2606 l 1,6,-1
 372 2978 l 1,7,-1
 2234 2978 l 1,8,-1
 2234 2606 l 1,9,-1
 2606 2606 l 1,10,-1
 2606 2234 l 1,11,-1
 2234 2234 l 1,12,-1
 2234 1489 l 1,13,-1
 1861 1489 l 1,14,-1
 1861 2606 l 1,15,-1
 1303 2606 l 1,16,-1
 1303 1489 l 1,17,-1
 930 1489 l 1,4,-1
3351 1489 m 1,18,-1
 3351 2234 l 1,19,-1
 2978 2234 l 1,20,-1
 2978 2606 l 1,21,-1
 3351 2606 l 1,22,-1
 3351 2978 l 1,23,-1
 3723 2978 l 1,24,-1
 3723 1489 l 1,25,-1
 3351 1489 l 1,18,-1
EndSplineSet
Ligature2: "'liga' Standard Ligatures in Latin lookup 0 subtable" hyphen t m hyphen
EndChar

StartChar: uniFB00
Encoding: 64256 64256 314
Width: 3909
GlyphClass: 2
Flags: W
LayerCount: 2
Fore
SplineSet
744 0 m 1,0,-1
 744 1489 l 1,1,-1
 372 1489 l 1,2,-1
 372 1861 l 1,3,-1
 744 1861 l 1,4,-1
 744 2606 l 1,5,-1
 1117 2606 l 1,6,-1
 1117 2978 l 1,7,-1
 2234 2978 l 1,8,-1
 2234 2606 l 1,9,-1
 1489 2606 l 1,10,-1
 1489 1861 l 1,11,-1
 2234 1861 l 1,12,-1
 2234 2606 l 1,13,-1
 2606 2606 l 1,14,-1
 2606 2978 l 1,15,-1
 3723 2978 l 1,16,-1
 3723 2606 l 1,17,-1
 2978 2606 l 1,18,-1
 2978 1861 l 1,19,-1
 3723 1861 l 1,20,-1
 3723 1489 l 1,21,-1
 2978 1489 l 1,22,-1
 2978 0 l 1,23,-1
 2234 0 l 1,24,-1
 2234 1489 l 1,25,-1
 1489 1489 l 1,26,-1
 1489 0 l 1,27,-1
 744 0 l 1,0,-1
EndSplineSet
EndChar

StartChar: uniFB01
Encoding: 64257 64257 315
Width: 3165
GlyphClass: 2
Flags: W
LayerCount: 2
Fore
SplineSet
744 0 m 1,0,-1
 744 1489 l 1,1,-1
 372 1489 l 1,2,-1
 372 1861 l 1,3,-1
 744 1861 l 1,4,-1
 744 2606 l 1,5,-1
 1117 2606 l 1,6,-1
 1117 2978 l 1,7,-1
 2234 2978 l 1,8,-1
 2234 2606 l 1,9,-1
 1489 2606 l 1,10,-1
 1489 1861 l 1,11,-1
 2978 1861 l 1,12,-1
 2978 0 l 1,13,-1
 2234 0 l 1,14,-1
 2234 1489 l 1,15,-1
 1489 1489 l 1,16,-1
 1489 0 l 1,17,-1
 744 0 l 1,0,-1
EndSplineSet
EndChar

StartChar: uniFB02
Encoding: 64258 64258 316
Width: 3537
GlyphClass: 2
Flags: W
LayerCount: 2
Fore
SplineSet
2234 1861 m 1,0,-1
 2234 2606 l 1,1,-1
 1489 2606 l 1,2,-1
 1489 1861 l 1,3,-1
 2234 1861 l 1,0,-1
744 0 m 1,4,-1
 744 1489 l 1,5,-1
 372 1489 l 1,6,-1
 372 1861 l 1,7,-1
 744 1861 l 1,8,-1
 744 2606 l 1,9,-1
 1117 2606 l 1,10,-1
 1117 2978 l 1,11,-1
 2978 2978 l 1,12,-1
 2978 372 l 1,13,-1
 3351 372 l 1,14,-1
 3351 0 l 1,15,-1
 2606 0 l 1,16,-1
 2606 372 l 1,17,-1
 2234 372 l 1,18,-1
 2234 1489 l 1,19,-1
 1489 1489 l 1,20,-1
 1489 0 l 1,21,-1
 744 0 l 1,4,-1
EndSplineSet
EndChar

StartChar: uniFB03
Encoding: 64259 64259 317
Width: 4654
GlyphClass: 2
Flags: W
LayerCount: 2
Fore
SplineSet
744 0 m 1,0,-1
 744 1489 l 1,1,-1
 372 1489 l 1,2,-1
 372 1861 l 1,3,-1
 744 1861 l 1,4,-1
 744 2606 l 1,5,-1
 1117 2606 l 1,6,-1
 1117 2978 l 1,7,-1
 2234 2978 l 1,8,-1
 2234 2606 l 1,9,-1
 1489 2606 l 1,10,-1
 1489 1861 l 1,11,-1
 2234 1861 l 1,12,-1
 2234 2606 l 1,13,-1
 2606 2606 l 1,14,-1
 2606 2978 l 1,15,-1
 3723 2978 l 1,16,-1
 3723 2606 l 1,17,-1
 2978 2606 l 1,18,-1
 2978 1861 l 1,19,-1
 4468 1861 l 1,20,-1
 4468 0 l 1,21,-1
 3723 0 l 1,22,-1
 3723 1489 l 1,23,-1
 2978 1489 l 1,24,-1
 2978 0 l 1,25,-1
 2234 0 l 1,26,-1
 2234 1489 l 1,27,-1
 1489 1489 l 1,28,-1
 1489 0 l 1,29,-1
 744 0 l 1,0,-1
EndSplineSet
EndChar

StartChar: uniFB04
Encoding: 64260 64260 318
Width: 5026
GlyphClass: 2
Flags: W
LayerCount: 2
Fore
SplineSet
3723 1861 m 1,0,-1
 3723 2606 l 1,1,-1
 2978 2606 l 1,2,-1
 2978 1861 l 1,3,-1
 3723 1861 l 1,0,-1
744 0 m 1,4,-1
 744 1489 l 1,5,-1
 372 1489 l 1,6,-1
 372 1861 l 1,7,-1
 744 1861 l 1,8,-1
 744 2606 l 1,9,-1
 1117 2606 l 1,10,-1
 1117 2978 l 1,11,-1
 2234 2978 l 1,12,-1
 2234 2606 l 1,13,-1
 1489 2606 l 1,14,-1
 1489 1861 l 1,15,-1
 2234 1861 l 1,16,-1
 2234 2606 l 1,17,-1
 2606 2606 l 1,18,-1
 2606 2978 l 1,19,-1
 4468 2978 l 1,20,-1
 4468 372 l 1,21,-1
 4840 372 l 1,22,-1
 4840 0 l 1,23,-1
 4096 0 l 1,24,-1
 4096 372 l 1,25,-1
 3723 372 l 1,26,-1
 3723 1489 l 1,27,-1
 2978 1489 l 1,28,-1
 2978 0 l 1,29,-1
 2234 0 l 1,30,-1
 2234 1489 l 1,31,-1
 1489 1489 l 1,32,-1
 1489 0 l 1,33,-1
 744 0 l 1,4,-1
EndSplineSet
EndChar
